<?xml version="1.0" encoding="UTF-8"?>
<svg width="30px" height="30px" viewBox="0 0 30 30" version="1.1" xmlns="http://www.w3.org/2000/svg" xmlns:xlink="http://www.w3.org/1999/xlink">
    <!-- Generator: Sketch 53.2 (72643) - https://sketchapp.com -->
    <title>online-store</title>
    <desc>Created with Sketch.</desc>
    <g id="Page-1" stroke="none" stroke-width="1" fill="none" fill-rule="evenodd">
        <g id="Главная-Итоговая" transform="translate(-1153.000000, -214.000000)" fill="#564531">
            <g id="header">
                <g id="menu" transform="translate(1.000000, 196.000000)">
                    <g id="shop-basket" transform="translate(1136.000000, 11.000000)">
                        <g id="Group-41" transform="translate(16.000000, 7.000000)">
                            <g id="online-store">
                                <path d="M29.4736636,6.42929114 C29.1827715,6.42929114 28.9473272,6.66887132 28.9473272,6.96500894 L28.9473272,11.2505692 L26.8421009,11.2505692 L26.8421009,6.63021566 C26.8421009,6.33413873 26.6067162,6.09449786 26.3157645,6.09449786 C26.0248129,6.09449786 25.7894282,6.33407804 25.7894282,6.63021566 L25.7894282,11.2505692 L23.5634092,11.2505692 L23.5634092,6.25094105 C23.5634092,5.95486412 23.3280245,5.71522325 23.0370728,5.71522325 C22.7461211,5.71522325 22.5107364,5.95480344 22.5107364,6.25094105 L22.5107364,11.2505692 L20.2631346,11.2505692 L20.2631346,5.80424659 C20.2631346,5.50816966 20.0277499,5.26852879 19.7367982,5.26852879 C19.4458465,5.26852879 19.2104618,5.50810898 19.2104618,5.80424659 L19.2104618,11.2506299 L17.0810889,11.2506299 L16.8415308,5.36222479 C16.8296661,5.06614786 16.5701348,4.8385831 16.2941481,4.84902074 C16.003733,4.86109684 15.7775896,5.11056851 15.7899312,5.40615996 L16.0277007,11.2506299 L13.8072265,11.2506299 L13.0001933,4.78299662 C12.9631685,4.4895291 12.7015505,4.28338576 12.4117316,4.31894655 C12.1234032,4.35608512 11.9193793,4.62449017 11.9558079,4.91789701 L12.7461472,11.2504479 L10.2828953,11.2504479 L8.82104187,4.35189793 C8.75933388,4.0626176 8.47929288,3.87795638 8.19549573,3.94124973 C7.91128124,4.00351144 7.73080772,4.28866526 7.79203874,4.57794559 L9.20595666,11.2505692 L6.73835241,11.2505692 L3.8446351,1.53112648 C3.67554923,0.963488939 3.21551168,0.538215908 2.6429092,0.421035226 L0.629678493,0.0114186515 C0.341827103,-0.0498114409 0.0668539037,0.14164638 0.0103329598,0.431472863 C-0.0467245754,0.721845502 0.13828016,1.00378307 0.423031244,1.0618576 L2.43578498,1.47147417 C2.62699033,1.51073668 2.78063429,1.65249436 2.83721485,1.84182824 L7.85380635,18.6923011 L5.10949989,23.8806564 C4.84323139,24.3834228 4.85610958,24.9766083 5.14342438,25.4668738 C5.43127577,25.957018 5.93799676,26.25 6.4992712,26.25 L28.4209312,26.25 C28.7118233,26.25 28.9472676,26.0104198 28.9472676,25.7142822 C28.9472676,25.4181446 28.7118829,25.1785644 28.4209312,25.1785644 L6.49939044,25.1785644 C6.22954467,25.1785644 6.09336974,24.9959664 6.04764024,24.9175628 C6.00137415,24.8390985 5.908365,24.6303457 6.0363122,24.3887023 L8.74806547,19.2624267 L28.5387428,17.7515787 C29.3579984,17.689317 30,16.9852013 30,16.1491587 L30,6.96494825 C30,6.66893201 29.7645557,6.42929114 29.4736636,6.42929114 Z M8.80249967,18.183709 L7.05732609,12.3219442 L9.43299437,12.3219442 L10.6452732,18.0430437 L8.80249967,18.183709 Z M11.7050409,17.962152 L10.5098734,12.3219442 L12.879818,12.3219442 L13.565999,17.8200909 L11.7050409,17.962152 Z M14.6172408,17.7399274 L13.9410762,12.3220048 L16.0713435,12.3220048 L16.2865165,17.6126125 L14.6172408,17.7399274 Z M19.2105811,17.3892956 L17.3366852,17.5323277 L17.1247317,12.3218835 L19.2105811,12.3218835 L19.2105811,17.3892956 Z M22.5107961,17.1374573 L20.2631942,17.3090715 L20.2631942,12.3219442 L22.5107961,12.3219442 L22.5107961,17.1374573 Z M25.7894878,16.887136 L23.5634688,17.0571118 L23.5634688,12.3218835 L25.7894878,12.3218835 L25.7894878,16.887136 Z M28.9473272,16.1492194 C28.9473272,16.4280621 28.7335254,16.6624234 28.4601024,16.6833594 L26.8421009,16.8068512 L26.8421009,12.3219442 L28.9473272,12.3219442 L28.9473272,16.1492194 Z" id="Shape" fill-rule="nonzero"></path>
                                <g id="Group" transform="translate(5.853659, 27.000000)">
                                    <ellipse id="Oval" cx="1.61766326" cy="1.48333333" rx="1.5627262" ry="1.47127778"></ellipse>
                                    <ellipse id="Oval" cx="20.3702596" cy="1.48333333" rx="1.5627262" ry="1.47127778"></ellipse>
                                </g>
                                <g id="Group" transform="translate(6.585366, 26.250000)">
                                    <path d="M1.06577098,2.9682 L1.06577098,2.9682 C0.768697809,2.9682 0.512889624,2.72666667 0.454667218,2.39106667 L0.0439851178,0.0256666667 L2.08755684,0.0256666667 L1.67687474,2.39106667 C1.61859446,2.72666667 1.36278628,2.9682 1.06577098,2.9682 Z" id="Path"></path>
                                    <path d="M19.458148,2.9682 L19.458148,2.9682 C19.1610748,2.9682 18.9052666,2.72666667 18.8470442,2.39106667 L18.4363621,0.0256666667 L20.4799339,0.0256666667 L20.0692518,2.39106667 C20.0109136,2.72666667 19.7551633,2.9682 19.458148,2.9682 Z" id="Path"></path>
                                </g>
                                <path d="M29.5474961,6.37578306 L4.3902439,3 L4.71666526,4.18027757 L29.4228423,7.49552538 C29.4439582,7.49884938 29.4650741,7.5 29.4857233,7.5 C29.7421473,7.5 29.9644475,7.29058767 29.9961213,7.00408398 C30.0307117,6.69482364 29.8301107,6.41324204 29.5474961,6.37578306 Z" id="Path"></path>
                            </g>
                        </g>
                    </g>
                </g>
            </g>
        </g>
    </g>
</svg>