<?xml version="1.0" encoding="UTF-8"?>
<svg width="30px" height="21px" viewBox="0 0 30 21" version="1.1" xmlns="http://www.w3.org/2000/svg" xmlns:xlink="http://www.w3.org/1999/xlink">
    <!-- Generator: Sketch 52.1 (67048) - http://www.bohemiancoding.com/sketch -->
    <title>каталог ховер</title>
    <desc>Created with Sketch.</desc>
    <g id="Symbols" stroke="none" stroke-width="1" fill="none" fill-rule="evenodd">
        <g id="header" transform="translate(-512.000000, -113.000000)" fill="#77BE32">
            <g id="head">
                <g transform="translate(149.000000, 75.000000)">
                    <g id="Каталог" transform="translate(363.000000, 34.000000)">
                        <g id="каталог-ховер" transform="translate(0.000000, 4.000000)">
                            <path d="M4.96226415,3.5 C4.70696271,3.5 4.5,3.27614237 4.5,3 C4.5,2.72385763 4.70696271,2.5 4.96226415,2.5 L28.5377358,2.5 C28.7930373,2.5 29,2.72385763 29,3 C29,3.27614237 28.7930373,3.5 28.5377358,3.5 L4.96226415,3.5 Z" id="Path-5" fill-rule="nonzero"></path>
                            <path d="M3,11.5 C2.72385763,11.5 2.5,11.2761424 2.5,11 C2.5,10.7238576 2.72385763,10.5 3,10.5 L28.5,10.5 C28.7761424,10.5 29,10.7238576 29,11 C29,11.2761424 28.7761424,11.5 28.5,11.5 L3,11.5 Z" id="Path-5" fill-rule="nonzero"></path>
                            <path d="M3,19.5 C2.72385763,19.5 2.5,19.2761424 2.5,19 C2.5,18.7238576 2.72385763,18.5 3,18.5 L28.5,18.5 C28.7761424,18.5 29,18.7238576 29,19 C29,19.2761424 28.7761424,19.5 28.5,19.5 L3,19.5 Z" id="Path-5" fill-rule="nonzero"></path>
                            <path d="M3,5.5 C1.61928813,5.5 0.5,4.38071187 0.5,3 C0.5,1.61928813 1.61928813,0.5 3,0.5 C4.38071187,0.5 5.5,1.61928813 5.5,3 C5.5,4.38071187 4.38071187,5.5 3,5.5 Z M3,4.5 C3.82842712,4.5 4.5,3.82842712 4.5,3 C4.5,2.17157288 3.82842712,1.5 3,1.5 C2.17157288,1.5 1.5,2.17157288 1.5,3 C1.5,3.82842712 2.17157288,4.5 3,4.5 Z" id="Oval" fill-rule="nonzero"></path>
                            <circle id="Oval" cx="28" cy="19" r="2"></circle>
                        </g>
                    </g>
                </g>
            </g>
        </g>
    </g>
</svg>