<?xml version="1.0" encoding="UTF-8"?>
<svg width="26px" height="26px" viewBox="0 0 26 26" version="1.1" xmlns="http://www.w3.org/2000/svg" xmlns:xlink="http://www.w3.org/1999/xlink">
    <!-- Generator: Sketch 53.2 (72643) - https://sketchapp.com -->
    <title>instagram-logo</title>
    <desc>Created with Sketch.</desc>
    <g id="Page-1" stroke="none" stroke-width="1" fill="none" fill-rule="evenodd">
        <g id="Главная-Итоговая" transform="translate(-891.000000, -4306.000000)" fill="#000000">
            <g id="footer" transform="translate(0.000000, 4032.000000)">
                <g id="social" transform="translate(829.000000, 233.000000)">
                    <g id="instagram" transform="translate(62.000000, 41.000000)">
                        <g id="instagram-logo">
                            <path d="M18.7209176,0 L7.13531765,0 C3.20090588,0 0,3.20105882 0,7.13547059 L0,18.7210706 C0,22.6556353 3.20090588,25.8565412 7.13531765,25.8565412 L18.7209176,25.8565412 C22.6556353,25.8565412 25.8565412,22.6554824 25.8565412,18.7210706 L25.8565412,7.13547059 C25.8566941,3.20105882 22.6556353,0 18.7209176,0 Z M23.5625765,18.7210706 C23.5625765,21.3906588 21.3906588,23.5624235 18.7210706,23.5624235 L7.13531765,23.5624235 C4.46588235,23.5625765 2.29411765,21.3906588 2.29411765,18.7210706 L2.29411765,7.13547059 C2.29411765,4.46603529 4.46588235,2.29411765 7.13531765,2.29411765 L18.7209176,2.29411765 C21.3905059,2.29411765 23.5624235,4.46603529 23.5624235,7.13547059 L23.5624235,18.7210706 L23.5625765,18.7210706 Z" id="Shape" fill-rule="nonzero"></path>
                            <path d="M12.9282706,6.266 C9.25447059,6.266 6.26569412,9.25477647 6.26569412,12.9285765 C6.26569412,16.6022235 9.25447059,19.5908471 12.9282706,19.5908471 C16.6020706,19.5908471 19.5908471,16.6022235 19.5908471,12.9285765 C19.5908471,9.25477647 16.6020706,6.266 12.9282706,6.266 Z M12.9282706,17.2965765 C10.5196,17.2965765 8.55981176,15.3370941 8.55981176,12.9284235 C8.55981176,10.5196 10.5194471,8.55996471 12.9282706,8.55996471 C15.3370941,8.55996471 17.2967294,10.5196 17.2967294,12.9284235 C17.2967294,15.3370941 15.3369412,17.2965765 12.9282706,17.2965765 Z" id="Shape" fill-rule="nonzero"></path>
                            <path d="M19.8702706,4.32074118 C19.4282706,4.32074118 18.9940706,4.49968235 18.6819176,4.81321176 C18.3682353,5.12521176 18.1879176,5.55956471 18.1879176,6.00309412 C18.1879176,6.44524706 18.3683882,6.87944706 18.6819176,7.19297647 C18.9939176,7.50497647 19.4282706,7.68544706 19.8702706,7.68544706 C20.3138,7.68544706 20.7466235,7.50497647 21.0601529,7.19297647 C21.3736824,6.87944706 21.5526235,6.44509412 21.5526235,6.00309412 C21.5526235,5.55956471 21.3736824,5.12521176 21.0601529,4.81321176 C20.7481529,4.49968235 20.3138,4.32074118 19.8702706,4.32074118 Z" id="Path"></path>
                        </g>
                    </g>
                </g>
            </g>
        </g>
    </g>
</svg>