<?xml version="1.0" encoding="UTF-8"?>
<svg width="30px" height="35px" viewBox="0 0 30 35" version="1.1" xmlns="http://www.w3.org/2000/svg" xmlns:xlink="http://www.w3.org/1999/xlink">
    <!-- Generator: Sketch 53.2 (72643) - https://sketchapp.com -->
    <title>login</title>
    <desc>Created with Sketch.</desc>
    <g id="Page-1" stroke="none" stroke-width="1" fill="none" fill-rule="evenodd">
        <g id="Главная-Итоговая" transform="translate(-1188.000000, -105.000000)" fill="#564531" fill-rule="nonzero">
            <g id="header">
                <g id="head" transform="translate(149.000000, 75.000000)">
                    <g id="login" transform="translate(1040.000000, 31.000000)">
                        <path d="M26.4430859,23.0923506 C26.1967848,22.7798627 25.7023757,22.5408217 24.7010149,22.2283399 C24.5730539,22.1884087 23.6840856,21.9206975 23.4063792,21.8325289 C22.8634068,21.6601416 22.4063333,21.4964439 21.9649429,21.3096599 C21.2031161,20.9872762 20.1335194,20.3639596 18.74356,19.4359788 C18.513898,19.2826492 18.4520183,18.9721731 18.605348,18.7425111 C18.7586776,18.5128491 19.0691536,18.4509694 19.2988156,18.6042991 C20.6407617,19.5002247 21.6635731,20.0962767 22.354657,20.388724 C22.7639229,20.5619138 23.1932257,20.7156656 23.7089826,20.8794124 C23.9778678,20.9647803 24.8636168,21.2315221 24.9989047,21.2737396 C26.1916494,21.6459441 26.8131711,21.9464426 27.2284572,22.4733256 C28.4448862,24.0166371 28.7399256,26.5525474 28.1690264,30.0798854 L28.1312724,30.3131511 L27.9270751,30.43207 C26.2288155,31.4210898 24.1167769,32.2337934 21.5904986,32.873391 C19.06502,33.5127862 16.5326386,33.818407 13.9943855,33.7899031 C13.7182605,33.7868023 13.4969307,33.5604451 13.5000315,33.2843201 C13.5031323,33.0081952 13.7294895,32.7868653 14.0056145,32.7899662 C16.4567621,32.8174919 18.9029018,32.5222792 21.3450646,31.9039777 C23.6839649,31.31182 25.6420086,30.571293 27.218791,29.6852195 C27.6992044,26.5334275 27.423455,24.3361675 26.4430859,23.0923506 Z" id="Path-16"></path>
                        <path d="M12.4430859,23.0923506 C12.1967848,22.7798627 11.7023757,22.5408217 10.7010149,22.2283399 C10.5730539,22.1884087 9.68408557,21.9206975 9.40637923,21.8325289 C8.86340685,21.6601416 8.40633325,21.4964439 7.96494289,21.3096599 C7.20311612,20.9872762 6.13351937,20.3639596 4.74355998,19.4359788 C4.51389797,19.2826492 4.45201834,18.9721731 4.60534796,18.7425111 C4.75867758,18.5128491 5.06915364,18.4509694 5.29881565,18.6042991 C6.64076173,19.5002247 7.66357308,20.0962767 8.35465704,20.388724 C8.76392287,20.5619138 9.19322568,20.7156656 9.7089826,20.8794124 C9.97786783,20.9647803 10.8636168,21.2315221 10.9989047,21.2737396 C12.1916494,21.6459441 12.8131711,21.9464426 13.2284572,22.4733256 C14.4448862,24.0166371 14.7399256,26.5525474 14.1690264,30.0798854 L14.1312724,30.3131511 L13.9270751,30.43207 C12.2288155,31.4210898 10.1167769,32.2337934 7.59049858,32.873391 C5.06501995,33.5127862 2.53263856,33.818407 -0.00561451109,33.7899031 C-0.281739476,33.7868023 -0.503069285,33.5604451 -0.499968476,33.2843201 C-0.496867667,33.0081952 -0.270510454,32.7868653 0.00561451108,32.7899662 C2.45676213,32.8174919 4.90290181,32.5222792 7.34506463,31.9039777 C9.68396488,31.31182 11.6420086,30.571293 13.218791,29.6852195 C13.6992044,26.5334275 13.423455,24.3361675 12.4430859,23.0923506 Z" id="Path-16" transform="translate(6.974679, 26.155906) scale(-1, 1) translate(-6.974679, -26.155906) "></path>
                        <path d="M7.09198339,17.5356036 C6.82055409,17.5864046 6.55933479,17.4075501 6.50853377,17.1361208 C6.45773275,16.8646915 6.63658731,16.6034722 6.90801661,16.5526712 C8.16266629,16.3178495 9.02434661,16.091132 9.47095162,15.8849102 C10.220795,15.5386668 10.8668896,15.0298179 11.2432231,14.5156467 C13.2875282,11.6342562 13.4516531,7.83690187 12.6487978,4.60073225 C12.3377264,3.34685777 11.3007699,1.9627853 10.2225663,1.33468636 C9.51539288,0.922728065 8.42802141,0.659985952 6.96656702,0.562045194 C6.69104266,0.543580666 6.48265449,0.305255585 6.50111902,0.0297312259 C6.51958354,-0.245793133 6.75790863,-0.454181301 7.03343298,-0.435716773 C8.63528515,-0.328367125 9.86407818,-0.0314532466 10.7259272,0.470610033 C12.0377922,1.23482659 13.2432342,2.84378436 13.6193753,4.35994346 C14.4854907,7.85110301 14.3095459,11.9219324 12.0545123,15.1002456 C11.5695957,15.7628877 10.7887223,16.3778853 9.89017136,16.792795 C9.34822187,17.0430426 8.4228612,17.286515 7.09198339,17.5356036 Z" id="Path-17" transform="translate(10.300668, 8.553686) scale(-1, 1) translate(-10.300668, -8.553686) "></path>
                        <path d="M14.0919834,17.5356036 C13.8205541,17.5864046 13.5593348,17.4075501 13.5085338,17.1361208 C13.4577327,16.8646915 13.6365873,16.6034722 13.9080166,16.5526712 C15.1626663,16.3178495 16.0243466,16.091132 16.4709516,15.8849102 C17.220795,15.5386668 17.8668896,15.0298179 18.2432231,14.5156467 C20.2875282,11.6342562 20.4516531,7.83690187 19.6487978,4.60073225 C19.3377264,3.34685777 18.3007699,1.9627853 17.2225663,1.33468636 C16.5153929,0.922728065 15.4280214,0.659985952 13.966567,0.562045194 C13.6910427,0.543580666 13.4826545,0.305255585 13.501119,0.0297312259 C13.5195835,-0.245793133 13.7579086,-0.454181301 14.033433,-0.435716773 C15.6352851,-0.328367125 16.8640782,-0.0314532466 17.7259272,0.470610033 C19.0377922,1.23482659 20.2432342,2.84378436 20.6193753,4.35994346 C21.4854907,7.85110301 21.3095459,11.9219324 19.0545123,15.1002456 C18.5695957,15.7628877 17.7887223,16.3778853 16.8901714,16.792795 C16.3482219,17.0430426 15.4228612,17.286515 14.0919834,17.5356036 Z" id="Path-17"></path>
                    </g>
                </g>
            </g>
        </g>
    </g>
</svg>