<?xml version="1.0" encoding="UTF-8"?>
<svg width="18px" height="18px" viewBox="0 0 18 18" version="1.1" xmlns="http://www.w3.org/2000/svg" xmlns:xlink="http://www.w3.org/1999/xlink">
    <!-- Generator: Sketch 53.2 (72643) - https://sketchapp.com -->
    <title>Shape</title>
    <desc>Created with Sketch.</desc>
    <g id="Page-1" stroke="none" stroke-width="1" fill="none" fill-rule="evenodd">
        <g id="Главная-Итоговая" transform="translate(-1051.000000, -114.000000)" fill="#000000" fill-rule="nonzero">
            <g id="header">
                <g id="head" transform="translate(149.000000, 75.000000)">
                    <g id="Поиск" transform="translate(389.000000, 23.000000)">
                        <path d="M530.779592,32.7216327 L526.452245,28.3942857 C527.524898,27.0865306 528.171429,25.4114286 528.171429,23.5857143 C528.171429,19.3979592 524.773469,16 520.585714,16 C516.394286,16 513,19.3979592 513,23.5857143 C513,27.7734694 516.394286,31.1714286 520.585714,31.1714286 C522.411429,31.1714286 524.082857,30.5285714 525.390612,29.4559184 L529.717959,33.7795918 C530.011837,34.0734694 530.485714,34.0734694 530.779592,33.7795918 C531.073469,33.4893878 531.073469,33.0118367 530.779592,32.7216327 Z M520.585714,29.6616327 C517.231837,29.6616327 514.506122,26.9359184 514.506122,23.5857143 C514.506122,20.2355102 517.231837,17.5061224 520.585714,17.5061224 C523.935918,17.5061224 526.665306,20.2355102 526.665306,23.5857143 C526.665306,26.9359184 523.935918,29.6616327 520.585714,29.6616327 Z" id="Shape"></path>
                    </g>
                </g>
            </g>
        </g>
    </g>
</svg>