<?xml version="1.0" encoding="UTF-8"?>
<svg width="33px" height="32px" viewBox="0 0 33 32" version="1.1" xmlns="http://www.w3.org/2000/svg" xmlns:xlink="http://www.w3.org/1999/xlink">
    <!-- Generator: Sketch 53.2 (72643) - https://sketchapp.com -->
    <title>Star</title>
    <desc>Created with Sketch.</desc>
    <g id="Page-1" stroke="none" stroke-width="1" fill="none" fill-rule="evenodd">
        <g id="Главная-Итоговая" transform="translate(-1254.000000, -106.000000)" fill="#000000" fill-rule="nonzero">
            <g id="header">
                <g id="head" transform="translate(149.000000, 75.000000)">
                    <g id="favorites" transform="translate(1104.000000, 31.000000)">
                        <path d="M17.5,25.1477947 L26.0927165,30.1038172 C26.199619,30.1654753 26.3255473,30.1854204 26.446271,30.1598147 C26.716404,30.102519 26.8889427,29.8370857 26.831647,29.5669527 L24.773485,19.8632985 L32.1422379,13.2226347 C32.2339129,13.1400178 32.2917959,13.0264162 32.3047491,12.9036885 C32.3337333,12.6290715 32.1346086,12.382954 31.8599915,12.3539697 L21.9952609,11.3128041 L17.9566842,2.25262567 C17.90644,2.1399075 17.8162853,2.04975272 17.7035671,1.99950857 C17.4513474,1.88708157 17.1557428,2.00040596 17.0433158,2.25262567 L13.0047391,11.3128041 L3.14000846,12.3539697 C3.01728081,12.3669229 2.90367917,12.4248059 2.82106231,12.5164809 C2.6361977,12.7216143 2.65262877,13.0377701 2.85776211,13.2226347 L10.226515,19.8632985 L8.16835297,29.5669527 C8.14274726,29.6876764 8.16269236,29.8136048 8.2243505,29.9205073 C8.3623176,30.1597136 8.66807712,30.2417843 8.90728349,30.1038172 L17.5,25.1477947 Z M17.5,26.3022053 L9.40690656,30.9700601 C8.68928743,31.3839614 7.77200889,31.1377495 7.35810759,30.4201303 C7.17313315,30.099423 7.11329786,29.7216378 7.19011498,29.3594667 L9.12860529,20.220031 L2.18830816,13.9654882 C1.57290812,13.4108944 1.52361494,12.462427 2.07820875,11.847027 C2.32605933,11.5720018 2.66686425,11.398353 3.0350472,11.3594934 L12.3261935,10.3788663 L16.1299475,1.8454915 C16.4672284,1.08883237 17.3540421,0.748859217 18.1107013,1.08614021 C18.4488558,1.23687266 18.7193201,1.50733698 18.8700525,1.8454915 L22.6738065,10.3788663 L31.9649528,11.3594934 C32.788804,11.4464462 33.3861781,12.1847986 33.2992254,13.0086498 C33.2603658,13.3768327 33.086717,13.7176377 32.8116918,13.9654882 L25.8713947,20.220031 L27.809885,29.3594667 C27.981772,30.1698656 27.4641559,30.9661657 26.653757,31.1380527 C26.291586,31.2148698 25.9138008,31.1550345 25.5930934,30.9700601 L17.5,26.3022053 Z" id="Star"></path>
                    </g>
                </g>
            </g>
        </g>
    </g>
</svg>