<?xml version="1.0" encoding="UTF-8"?>
<svg width="26px" height="27px" viewBox="0 0 26 27" version="1.1" xmlns="http://www.w3.org/2000/svg" xmlns:xlink="http://www.w3.org/1999/xlink">
    <!-- Generator: Sketch 53.2 (72643) - https://sketchapp.com -->
    <title>viber</title>
    <desc>Created with Sketch.</desc>
    <g id="Page-1" stroke="none" stroke-width="1" fill="none" fill-rule="evenodd">
        <g id="Главная-Итоговая" transform="translate(-269.000000, -4304.000000)" fill="#000000">
            <g id="footer" transform="translate(0.000000, 4032.000000)">
                <g id="social" transform="translate(150.000000, 242.000000)">
                    <g id="viber" transform="translate(119.000000, 30.000000)">
                        <g>
                            <path d="M20.027027,0 L5.97297297,0 C2.69437838,0 0.027027027,2.66735135 0.027027027,5.94594595 L0.027027027,15.4054054 C0.027027027,18.684 2.69437838,21.3513514 5.97297297,21.3513514 L8.13513514,21.3513514 L8.13513514,25.6756757 C8.13513514,25.8803784 8.25075676,26.0675676 8.43394595,26.1591351 C8.51043243,26.1974054 8.59324324,26.2162162 8.67562162,26.2162162 C8.79048649,26.2162162 8.90459459,26.1796216 9,26.1081081 L15.3423243,21.3513514 L20.027027,21.3513514 C23.3056216,21.3513514 25.972973,18.684 25.972973,15.4054054 L25.972973,5.94594595 C25.972973,2.66735135 23.3056216,0 20.027027,0 Z M24.8918919,15.4054054 C24.8918919,18.0878919 22.7095135,20.2702703 20.027027,20.2702703 L15.1621622,20.2702703 C15.0451892,20.2702703 14.9314054,20.3082162 14.8378378,20.3783784 L9.21621622,24.5945946 L9.21621622,20.8108108 C9.21621622,20.5122703 8.97421622,20.2702703 8.67567568,20.2702703 L5.97297297,20.2702703 C3.29048649,20.2702703 1.10810811,18.0878919 1.10810811,15.4054054 L1.10810811,5.94594595 C1.10810811,3.26345946 3.29048649,1.08108108 5.97297297,1.08108108 L20.027027,1.08108108 C22.7095135,1.08108108 24.8918919,3.26345946 24.8918919,5.94594595 L24.8918919,15.4054054 Z" id="Shape" fill-rule="nonzero"></path>
                            <path d="M14.6042703,12.6127568 C14.6024865,12.611027 14.6007568,12.6092973 14.598973,12.6075676 C14.3929189,12.4065946 14.1218919,12.2959459 13.8358378,12.2959459 C13.5472432,12.2959459 13.2758919,12.4083784 13.0718919,12.6123784 L12.3078378,13.3764865 L10.0134595,11.0861622 L10.7768108,10.3228108 C10.9808649,10.1187568 11.0932432,9.8467027 11.0932432,9.55681081 C11.0932432,9.26686486 10.9808108,8.99481081 10.7768108,8.79081081 L8.10118919,6.11518919 C7.89713514,5.91113514 7.62605405,5.7987027 7.33783784,5.7987027 C7.04962162,5.7987027 6.77854054,5.91108108 6.57454054,6.11513514 L4.08805405,8.60162162 C3.96972973,8.71989189 3.91286486,8.88627027 3.93405405,9.05221622 C3.94745946,9.15659459 4.30291892,11.6511892 8.02291892,15.3711351 C11.7384324,19.0921622 14.2391351,19.4422162 14.3437838,19.4552973 C14.3661622,19.4581081 14.3885405,19.4594595 14.4108649,19.4594595 C14.5532432,19.4594595 14.691027,19.4031351 14.7930811,19.3011351 L15.3633514,18.7308108 L17.2725405,16.8216757 C17.4802703,16.6174595 17.5946486,16.345027 17.5946486,16.0540541 C17.5946486,15.762973 17.4802703,15.4905405 17.2724865,15.2863243 L14.6042703,12.6127568 Z M16.509027,16.0562703 L14.2367027,18.3285946 C13.5745405,18.1492432 11.5900541,17.4135135 8.78767568,14.6069189 C6.01037838,11.8296757 5.25189189,9.82091892 5.06356757,9.15491892 L7.33675676,6.87951351 L10.0124324,9.55827027 L8.86648649,10.7042703 C8.76508108,10.8056757 8.70810811,10.9432432 8.70816216,11.0867027 C8.70821622,11.2301622 8.7652973,11.3677297 8.86686486,11.469027 L11.9263243,14.5230811 C12.1375135,14.7338378 12.4795135,14.7337297 12.6904324,14.5227568 L13.8358378,13.377027 C13.8381081,13.377027 13.8404865,13.3781622 13.8432432,13.3805946 L16.5093514,16.0520541 C16.51,16.0526486 16.5105946,16.0532973 16.5112973,16.054 C16.5105405,16.0547568 16.5098378,16.0555135 16.509027,16.0562703 Z" id="Shape" fill-rule="nonzero"></path>
                            <path d="M12.7297297,5.40540541 L12.7297297,6.48648649 C15.4122162,6.48648649 17.5945946,8.66886486 17.5945946,11.3513514 L18.6756757,11.3513514 C18.6756757,8.07275676 16.0083243,5.40540541 12.7297297,5.40540541 Z" id="Path"></path>
                            <path d="M15.1621622,11.0810811 L16.2432432,11.0810811 C16.2432432,9.14372973 14.6670811,7.56756757 12.7297297,7.56756757 L12.7297297,8.64864865 C14.071027,8.64864865 15.1621622,9.73983784 15.1621622,11.0810811 Z" id="Path"></path>
                            <path d="M12.7297297,3.24324324 L12.7297297,4.32432432 C16.7535135,4.32432432 20.027027,7.59789189 20.027027,11.6216216 L21.1081081,11.6216216 C21.1081081,7.00178378 17.3496216,3.24324324 12.7297297,3.24324324 Z" id="Path"></path>
                        </g>
                    </g>
                </g>
            </g>
        </g>
    </g>
</svg>