<?xml version="1.0" encoding="UTF-8"?>
<svg width="28px" height="17px" viewBox="0 0 28 17" version="1.1" xmlns="http://www.w3.org/2000/svg" xmlns:xlink="http://www.w3.org/1999/xlink">
    <!-- Generator: Sketch 53.2 (72643) - https://sketchapp.com -->
    <title>Path</title>
    <desc>Created with Sketch.</desc>
    <g id="Page-1" stroke="none" stroke-width="1" fill="none" fill-rule="evenodd">
        <g id="Главная-Итоговая" transform="translate(-152.000000, -4308.000000)" fill="#000000" fill-rule="nonzero">
            <g id="footer" transform="translate(0.000000, 4032.000000)">
                <g id="social" transform="translate(150.000000, 242.000000)">
                    <g id="vk" transform="translate(3.000000, 35.000000)">
                        <g id="vk-social-network-logo">
                            <path d="M26.9411003,13.5760873 C26.9976476,13.8862408 26.9933238,14.1872814 26.9161921,14.4754129 C26.8024014,14.8989344 26.5165724,15.2135446 26.1234365,15.4474791 C25.7585864,15.6646517 25.3209007,15.7575497 24.8289042,15.757428 L21.4425761,15.8102475 C21.0762044,15.8659641 20.6918684,15.8235526 20.2919122,15.6984552 C19.9328572,15.5862947 19.6273366,15.4570479 19.3712091,15.3034519 L19.0410228,15.1023305 C18.704821,14.8665534 18.3399637,14.5329989 17.9354341,14.0982504 C17.5608618,13.6955803 17.2393492,13.3318702 16.9697999,13.0054294 C16.792056,12.7904863 16.6079353,12.6092366 16.4175123,12.4602181 C16.4111985,12.4709659 16.4048475,12.4821944 16.398468,12.4939119 C16.3655853,12.5543299 16.3160269,12.7056967 16.2670252,12.9317308 C16.2169978,13.1624053 16.1942331,13.433733 16.2019332,13.7687744 C16.2019332,13.992399 16.1746115,14.2071978 16.1180078,14.4087716 C16.0604931,14.6157375 15.9896483,14.790516 15.8363128,15.0129341 L15.7246679,15.1473257 C15.3784796,15.5121913 14.9108522,15.7063292 14.2817188,15.7569333 L12.7807723,15.7553724 C12.0292944,15.7974085 11.2628087,15.7107586 10.4849345,15.497967 C9.72961216,15.2915852 9.05759614,15.0208135 8.46937433,14.6827879 C7.93029771,14.3724454 7.43717248,14.0563895 6.98949812,13.7338192 C6.5300122,13.402871 6.17302958,13.1116977 5.92723189,12.8655434 L5.57403879,12.5263051 C5.46427828,12.4165446 5.32573636,12.265527 5.15614118,12.0715585 C4.97782896,11.8677502 4.64716262,11.4468601 4.1450979,10.7867371 C3.64286954,10.1266432 3.1503597,9.42501925 2.66763331,8.68222439 C2.18165533,7.9348153 1.61570446,6.9600055 0.967188848,5.7549013 C0.316332168,4.5454468 -0.285675374,3.29063021 -0.854871504,1.9505121 C-0.947887807,1.70287552 -1,1.46849609 -1,1.23346195 C-1,0.969677384 -0.955639067,0.734065524 -0.790797774,0.46129416 L-0.689909594,0.315945908 C-0.328864895,-0.141301528 0.211888914,-0.321710636 0.859280941,-0.321684278 L4.56844453,-0.34861553 L4.73926422,-0.335175418 C4.92129372,-0.304996424 5.09733696,-0.255318962 5.26729004,-0.185633697 C5.42030028,-0.122732738 5.54986227,-0.0567008622 5.66726646,0.0272807426 L5.73800154,0.071096119 C6.05670155,0.290261244 6.28906012,0.599962464 6.42474112,0.956908787 C6.5962,1.38575874 6.79403673,1.830962 7.01831291,2.29224087 C7.24899281,2.76679171 7.42808368,3.12287311 7.54956127,3.3497278 L7.79075639,3.79010651 C8.03860076,4.30285699 8.27576668,4.74330004 8.50064159,5.10987646 C8.71723638,5.46268035 8.90510337,5.72797913 9.05673205,5.90079805 C9.08081909,5.92824539 9.10449736,5.95446232 9.12774258,5.97945255 C9.16186696,5.74579106 9.19896734,5.4222888 9.2386891,5.00964968 C9.27800555,4.60009636 9.27800555,4.08926525 9.23534421,3.46265454 C9.21999154,3.15357053 9.18581663,2.8765014 9.13414692,2.63271023 C9.08926477,2.42126242 9.04895338,2.28882692 9.02836894,2.24965516 L9.00244545,2.19782329 C8.93312587,2.14080928 8.79104774,2.08391485 8.54057364,2.04639226 C7.9303852,1.95365546 7.50872042,1.39158536 7.64096853,0.758609444 C7.69389256,0.505300445 7.80895151,0.314525149 8.01348035,0.0660674187 C8.24543015,-0.193136834 8.51171542,-0.403348485 8.83259033,-0.570833116 C9.50198684,-0.899227577 10.6815813,-1.01774063 12.5206793,-0.997998234 C13.3259517,-0.988094174 14.0019686,-0.923049548 14.5794916,-0.792084194 C14.8567477,-0.72249663 15.1048878,-0.622524843 15.3236665,-0.484733073 C15.6133836,-0.301682517 15.8355256,-0.0417817402 15.9791751,0.275654318 C16.0719666,0.482145255 16.1419018,0.695310105 16.1871991,0.912003355 C16.2353964,1.1400693 16.2562224,1.41005917 16.2562224,1.73472462 C16.2562224,2.01365345 16.2515707,2.27411012 16.2419799,2.51877536 C16.2338197,2.72566595 16.2243843,2.99248303 16.2082505,3.46696796 C16.1952033,3.85746171 16.1887046,4.2186975 16.1887046,4.55041548 C16.1887046,4.66876127 16.1838802,4.87386293 16.1745621,5.15165324 C16.1662031,5.4071889 16.1641634,5.60763589 16.1677822,5.7391735 C16.1682776,5.75587621 16.1689688,5.77327107 16.1698574,5.79135233 C16.2985259,5.63982267 16.4605115,5.42286608 16.6500529,5.14467516 C16.9170213,4.75323899 17.2129462,4.28542487 17.5307685,3.75301054 C18.0457225,2.86068818 18.5065811,1.89157364 18.9168568,0.836166471 C18.9883097,0.657252268 19.0821432,0.492605309 19.1998621,0.345275988 C19.3067491,0.211737382 19.4202097,0.0994970705 19.5557691,0.00832717081 L19.5802678,-0.0101978168 L19.7364452,-0.107115383 L19.9101481,-0.19390615 L20.0254221,-0.220629588 C20.0551016,-0.227510024 20.0551016,-0.227510024 20.2023903,-0.261571055 C20.4087502,-0.309205375 20.6061257,-0.325903088 20.8035679,-0.294772928 L24.5329311,-0.320535215 C24.9872172,-0.372707677 25.3906793,-0.352860761 25.7514622,-0.244791751 C26.1847525,-0.11443089 26.4938321,0.0501180785 26.7412316,0.423323942 L26.8218831,0.558312101 L26.904466,0.732893276 C27.2841087,1.78887222 26.5379005,3.25129928 24.7329687,5.65085695 C24.5128998,5.94447486 24.2168104,6.33169262 23.8416022,6.81656408 C23.204031,7.63434091 22.8254868,8.18509021 22.758679,8.35707633 C22.748405,8.38191547 22.7465007,8.37089435 22.8022376,8.44301498 C22.8962629,8.55936759 23.1422382,8.81241147 23.5233285,9.18174977 L23.5486806,9.18174977 L23.8415739,9.47464298 L23.8501491,9.48325382 L23.8711284,9.50401661 C25.2124468,10.7512628 26.1364986,11.820455 26.6297555,12.7102324 C26.6777098,12.7895447 26.7233983,12.8772485 26.7689887,12.975466 C26.8447982,13.1385449 26.8935994,13.3226585 26.9411003,13.5760873 Z M24.8997391,13.7130671 C24.5374672,13.0606045 23.8221103,12.2162664 22.7354646,11.1817498 L22.7205372,11.1817498 L22.4308139,10.9055612 C21.8197549,10.3230483 21.436544,9.93504042 21.2344986,9.68471141 C20.7424355,9.0507743 20.6142598,8.30892842 20.9019398,7.61412007 C21.059643,7.20638603 21.4912789,6.57839285 22.2620928,5.58972396 C22.6293204,5.11515499 22.9196038,4.73553019 23.1336215,4.44998824 C23.8826485,3.45419699 24.4129243,2.64815772 24.720764,2.04485012 C24.7953351,1.8987049 24.8549657,1.76798908 24.8999606,1.65431467 C24.8472529,1.65725939 24.7884656,1.66265808 24.7237633,1.6709452 L24.6036281,1.67902413 L20.7241082,1.7058237 C20.2940509,2.79400954 19.8069826,3.81006521 19.2556258,4.76526268 C18.9109448,5.34289583 18.5938646,5.84415342 18.3026146,6.27119172 C17.9926418,6.72614082 17.725487,7.07042783 17.4876656,7.31390593 C17.2662289,7.54049095 17.0605096,7.72723441 16.8658015,7.87599757 C16.4958337,8.1592166 16.142961,8.30867907 15.6882213,8.20688741 C15.599472,8.18706759 15.5151561,8.1672324 15.4345991,8.1472117 L15.2738516,8.10726136 L15.1345701,8.01761493 C14.865741,7.84458711 14.6497209,7.60929124 14.4951128,7.32687666 C14.3526055,7.06769255 14.26571,6.772899 14.2235916,6.44295712 C14.1927177,6.19966256 14.1742363,5.98644812 14.1686004,5.79633575 C14.1636487,5.61646117 14.1660693,5.37857503 14.1756588,5.08543545 C14.1843041,4.82769186 14.1887046,4.64061223 14.1887046,4.55041548 C14.1887046,4.19550996 14.1956015,3.81214258 14.2093858,3.39959183 C14.2256625,2.92089956 14.2351833,2.65166752 14.2435242,2.44019451 C14.2520335,2.22311905 14.2562224,1.98857571 14.2562224,1.73472462 C14.2562224,1.53721435 14.2453412,1.39614941 14.2299682,1.32339392 C14.2196284,1.27393313 14.2054339,1.22444993 14.1875424,1.17540693 C14.165801,1.1674906 14.1411859,1.1597763 14.1153495,1.15317313 C13.7138222,1.06231309 13.1718009,1.01016118 12.4976477,1.00186854 C11.7400781,0.993736662 11.117173,1.01408422 10.6502461,1.05255543 L10.7358037,1.19243611 L10.8029407,1.32772831 C10.9229042,1.55020927 11.0089037,1.83274459 11.0906228,2.21773796 C11.1653476,2.57030881 11.212457,2.95224281 11.2317845,3.34484331 C11.2803071,4.0546528 11.2803071,4.67189977 11.2295116,5.20102844 C11.1823116,5.69135359 11.1376235,6.07283564 11.093633,6.35552167 C11.0381707,6.71192696 10.949627,7.02018437 10.8169622,7.28559098 C10.7036475,7.51195615 10.6378226,7.63259906 10.5597029,7.73639389 C10.4457912,7.88801023 10.3317101,8.00239133 10.0504583,8.13717324 C9.81878025,8.22594883 9.5755033,8.27123056 9.32707967,8.27123056 C8.95912472,8.27123056 8.62640982,8.13409268 8.29300683,7.9005529 C8.04174356,7.72450353 7.79692659,7.49738603 7.55342688,7.21991652 C7.3170726,6.95053155 7.06723231,6.59771637 6.79603326,6.15596935 C6.53366546,5.72827459 6.26537532,5.23003045 6.01473367,4.70818094 L5.79244642,4.30492549 C5.65038775,4.03981564 5.46076817,3.66280031 5.2196071,3.16668778 C4.97685316,2.66740489 4.7611043,2.18228859 4.5665371,1.69618307 L4.50292367,1.65191235 C4.52329075,1.67064395 4.52268712,1.67066883 4.50770178,1.66450815 C4.49651048,1.65991945 4.48502836,1.65579633 4.47314907,1.65212832 L1.20387177,1.67584249 C1.67681764,2.75367327 2.18497705,3.79738553 2.72836687,4.80713974 C3.35277675,5.96744947 3.89238767,6.8968906 4.344484,7.5921915 C4.80087102,8.29445662 5.26501532,8.95567132 5.73688299,9.57586126 C6.21001591,10.1979443 6.52417927,10.5978284 6.66157595,10.754871 C6.80452259,10.9183611 6.91558001,11.0394192 6.97354906,11.0976878 L7.32681954,11.4370035 C7.49957424,11.609796 7.77884712,11.8375852 8.15853731,12.11106 C8.54921229,12.3925596 8.98527655,12.6720438 9.46654356,12.949106 C9.89957963,13.1979528 10.4143482,13.4053657 11.0123699,13.5687672 C11.5867934,13.7259037 12.1379077,13.7882063 12.7249218,13.7569333 L14.1956897,13.7606407 C14.197672,13.7604695 14.1996152,13.7602999 14.2015193,13.760133 C14.1928966,13.3096516 14.2291261,12.8920992 14.3124457,12.5079161 C14.3982473,12.1121314 14.502457,11.7938424 14.6418615,11.5377041 C14.7719278,11.2988068 14.9252174,11.0884504 15.1038014,10.9097879 C15.2878934,10.7256153 15.4205345,10.6126618 15.5906152,10.527814 C15.6719822,10.4867014 15.7492897,10.4529542 15.8334023,10.4242587 C16.4040812,10.2341157 16.9708077,10.3896283 17.500468,10.7725885 C17.8641516,11.0355199 18.200796,11.3556662 18.5115403,11.7314451 C18.7545104,12.0256964 19.0504745,12.3605049 19.3997173,12.7359455 C19.7165281,13.0764225 19.9834899,13.3204804 20.1298256,13.4261842 L20.4001346,13.5884265 C20.505927,13.6518687 20.6697735,13.721182 20.8885964,13.7895373 C21.0251768,13.8322565 21.1095188,13.8397876 21.1444299,13.8325307 L21.3323524,13.8117235 L24.8133082,13.7575497 C24.8543699,13.7575497 24.8910731,13.7564555 24.9234076,13.7546705 C24.9166382,13.7422719 24.9090175,13.7288969 24.8997391,13.7130671 Z M20.2925908,0.931826598 L20.3246501,1.07011696 L20.6303723,1.68198898 L20.698222,1.64808784 L20.4333539,1.11798123 L20.2925908,0.931826598 Z M20.5295516,1.70716768 L20.5669314,1.70690947 C20.5855899,1.70259439 20.6093195,1.6971068 20.6400591,1.68999812 C20.5998048,1.69652705 20.5446766,1.69711443 20.4657457,1.67874542 L20.5295516,1.70716768 Z" id="Path"></path>
                        </g>
                    </g>
                </g>
            </g>
        </g>
    </g>
</svg>