<?xml version="1.0" encoding="UTF-8"?>
<svg width="26px" height="26px" viewBox="0 0 26 26" version="1.1" xmlns="http://www.w3.org/2000/svg" xmlns:xlink="http://www.w3.org/1999/xlink">
    <!-- Generator: Sketch 53.2 (72643) - https://sketchapp.com -->
    <title>whatsapp</title>
    <desc>Created with Sketch.</desc>
    <g id="Page-1" stroke="none" stroke-width="1" fill="none" fill-rule="evenodd">
        <g id="Главная-Итоговая" transform="translate(-211.000000, -4303.000000)" fill="#000000" fill-rule="nonzero">
            <g id="footer" transform="translate(0.000000, 4032.000000)">
                <g id="social" transform="translate(150.000000, 242.000000)">
                    <g id="whatsapp" transform="translate(61.000000, 29.000000)">
                        <g id="Shape">
                            <path d="M6.28834532,24.1446991 C8.29718018,25.3535309 10.5940399,25.9906769 12.9539795,25.9906769 C20.1052094,25.9906769 26,20.1551972 26,12.9952393 C26,5.84361268 20.1135406,0 12.9539795,0 C5.81623839,0 0.00932313281,5.82972716 0.00932313281,12.9952393 C0.00932313281,15.3867188 0.64666748,17.7010346 1.85530089,19.7114563 L0,26 L6.28834532,24.1446991 Z M1.53236388,12.9952393 C1.53236388,6.6694031 6.65611268,1.52284239 12.9539795,1.52284239 C19.307785,1.52284239 24.4771576,6.6694031 24.4771576,12.9952393 C24.4771576,19.3212738 19.307785,24.4676361 12.9539795,24.4676361 C10.7676086,24.4676361 8.64292909,23.8483429 6.8102417,22.6764068 L6.51745605,22.4893494 L2.25242616,23.7477722 L3.51065061,19.4825439 L3.32359315,19.1899567 C2.15165712,17.3568726 1.53236388,15.2149353 1.53236388,12.9952393 Z"></path>
                            <path d="M6.67780545,10.9506933 C6.92933132,12.2716009 7.67597439,14.8122504 9.84984831,16.9861243 C12.0237222,19.1599981 14.5643716,19.9068396 15.8854776,20.1583655 C17.3982034,20.4463904 19.6180978,20.4898321 20.7029519,19.404978 L21.3077645,18.8001654 C21.6130471,18.4948828 21.78126,18.0888311 21.78126,17.6569922 C21.78126,17.2251532 21.6130471,16.8192999 21.3077645,16.5140173 L18.8891092,14.095362 C18.5836282,13.7898809 18.177775,13.6218665 17.745936,13.6218665 C17.3140969,13.6218665 16.9082437,13.7898809 16.6027627,14.095362 L15.9981485,14.6999762 C15.6287942,15.0693304 14.9315438,15.0709173 14.5594125,14.7045385 L12.1469064,12.1908667 C12.1433358,12.1870977 12.1397653,12.1833289 12.1359964,12.1797583 C11.766047,11.8098089 11.766047,11.2077734 12.1359964,10.8378241 L12.7406106,10.2332098 C13.3725992,9.60122133 13.3725992,8.57865356 12.7406106,7.94686336 L10.3219552,5.52820798 C9.691752,4.89800475 8.66620877,4.89800475 8.03580718,5.52820798 L7.43119292,6.13302059 L7.43119292,6.13282224 C6.5653329,6.99888061 6.27671294,8.84485837 6.67780545,10.9506933 Z M8.50811247,7.20994018 C9.14287809,6.58965514 9.10895779,6.57775328 9.17898036,6.57775328 C9.20298247,6.57775328 9.22698454,6.58687801 9.24523405,6.60512758 C11.793818,9.16739868 11.6914621,9.0168402 11.6914621,9.090235 C11.6914621,9.11582397 11.6821389,9.13823912 11.6640878,9.15648863 L11.0592752,9.76110289 C10.0962167,10.7241614 10.0924478,12.2831061 11.0531259,13.2505286 L13.4670206,15.7657874 C13.4707895,15.7693579 13.47436,15.7731268 13.478129,15.7768958 C14.440989,16.7397558 16.1090341,16.7429297 17.075068,15.7768958 L17.6796823,15.1722815 C17.7161813,15.1357825 17.7756906,15.1357825 17.8121896,15.1722815 C20.3607736,17.7343542 20.2584176,17.5837958 20.2584176,17.6571905 C20.2584176,17.6829779 20.2490945,17.7051947 20.2310434,17.7234442 L19.6262307,18.3280585 C19.2118478,18.7424414 17.8919321,18.9903967 16.1703287,18.6625006 C15.0214029,18.4435065 12.8122202,17.7948553 10.9267678,15.9094031 C9.04131559,14.0239508 8.39266449,11.814768 8.1738687,10.6658423 C7.8457742,8.9442389 8.09372954,7.62412475 8.50811247,7.20994018 Z"></path>
                        </g>
                    </g>
                </g>
            </g>
        </g>
    </g>
</svg>