<?xml version="1.0" encoding="UTF-8"?>
<svg width="26px" height="20px" viewBox="0 0 26 20" version="1.1" xmlns="http://www.w3.org/2000/svg" xmlns:xlink="http://www.w3.org/1999/xlink">
    <!-- Generator: Sketch 53.2 (72643) - https://sketchapp.com -->
    <title>youtube</title>
    <desc>Created with Sketch.</desc>
    <g id="Page-1" stroke="none" stroke-width="1" fill="none" fill-rule="evenodd">
        <g id="Главная-Итоговая" transform="translate(-949.000000, -4309.000000)" fill="#000000" fill-rule="nonzero">
            <g id="footer" transform="translate(0.000000, 4032.000000)">
                <g id="social" transform="translate(829.000000, 233.000000)">
                    <g id="youtube" transform="translate(120.000000, 44.000000)">
                        <g id="Shape">
                            <path d="M16.9688566,8.66627074 L11.2360197,5.52951386 C10.906387,5.34915632 10.5167672,5.35588754 10.1936678,5.54733187 C9.87037037,5.73897417 9.67754018,6.07751581 9.67754018,6.45327729 L9.67754018,12.672941 C9.67754018,13.0469207 9.86918248,13.3848684 10.1903021,13.5767087 C10.3579892,13.6768854 10.5438901,13.7271716 10.730187,13.7271716 C10.9008437,13.7271716 11.0718963,13.6850024 11.2292885,13.600268 L16.9623234,10.5175591 C17.3026468,10.3344298 17.5150768,9.98064387 17.5166606,9.59399366 C17.5180464,9.20734346 17.3081902,8.85197368 16.9688566,8.66627074 L16.9688566,8.66627074 Z"></path>
                            <path d="M25.7584673,4.63881276 L25.7572795,4.6269341 C25.735304,4.41806774 25.5165388,2.5602461 24.613365,1.61529911 C23.5694292,0.503852936 22.3859192,0.36883225 21.8167337,0.304093567 C21.769615,0.29874816 21.7264559,0.293798733 21.6878503,0.28865129 L21.6425134,0.283899828 C18.2119579,0.0344481248 13.0310825,0.000395955166 12.9792124,0.000197977583 L12.9746589,0 L12.9701054,0.000197977583 C12.9182353,0.000395955166 7.73735987,0.0344481248 4.27591986,0.283899828 L4.23018703,0.28865129 C4.19336317,0.293600768 4.15277778,0.298154214 4.10862876,0.303301657 C3.5459765,0.368238304 2.37513705,0.503457006 1.32823159,1.65509259 C0.468019006,2.58994271 0.219359162,4.40797087 0.193820066,4.61228373 L0.19085039,4.63881276 C0.183129251,4.72572493 -5.68434189e-14,6.79478861 -5.68434189e-14,8.87196941 L-5.68434189e-14,10.8137335 C-5.68434189e-14,12.8909143 0.183129251,14.9599781 0.19085039,15.0470882 L0.192236246,15.0601548 C0.214211719,15.2656555 0.432778971,17.089425 1.33179521,18.0347679 C2.31336804,19.1089943 3.5544895,19.2511422 4.22206996,19.3275615 C4.327592,19.3396382 4.41846372,19.349933 4.48043069,19.3608217 L4.54041791,19.3691368 C6.52118361,19.5576115 12.7315424,19.650463 12.9948526,19.6542245 L13.0027717,19.6544225 L13.0106908,19.6542245 C13.0625609,19.6540265 18.2432383,19.6199744 21.6737939,19.3705226 L21.7191307,19.3657712 C21.7624878,19.3600298 21.8111903,19.3548824 21.8646442,19.3493391 C22.4241289,19.2899458 23.588633,19.1666058 24.6210861,18.0306104 C25.4812987,17.0955623 25.7301565,15.2775341 25.7554977,15.0734192 L25.7584673,15.0468902 C25.7661885,14.9597801 25.9495157,12.8909143 25.9495157,10.8137335 L25.9495157,8.87196941 C25.9493177,6.79478861 25.7661885,4.72592289 25.7584673,4.63881276 L25.7584673,4.63881276 Z M24.4286519,10.8137335 C24.4286519,12.7362939 24.2607669,14.7162677 24.2449287,14.8980111 C24.180388,15.3986964 23.9180677,16.5489462 23.4989492,17.0044926 C22.8527504,17.71543 22.1889316,17.7859101 21.7042824,17.8371863 C21.6456811,17.8433236 21.5914352,17.8492629 21.5423367,17.8554002 C18.2242325,18.095349 13.238959,18.1321729 13.009305,18.1335587 C12.7517361,18.1297972 6.63224903,18.0361538 4.71186647,17.8577759 C4.61347163,17.8417398 4.50715768,17.8294651 4.39510234,17.8167946 C3.82670869,17.75166 3.04865681,17.6625701 2.45036853,17.0044926 L2.43631211,16.9894463 C2.02451874,16.5604288 1.76972163,15.4848167 1.70498294,14.9039504 C1.69290632,14.766554 1.5206658,12.7632188 1.5206658,10.8137335 L1.5206658,8.87196941 C1.5206658,6.95158685 1.68815486,4.97379083 1.704389,4.78828579 C1.78140232,4.19851061 2.04867203,3.11794894 2.45036853,2.68121042 C3.11636512,1.94869336 3.81859162,1.86752253 4.283047,1.81387059 C4.32739398,1.8087232 4.36877133,1.80397173 4.40698099,1.79902231 C7.77339181,1.55788559 12.7944992,1.52205166 12.9746589,1.5206658 C13.1548185,1.52185369 18.1741441,1.55788559 21.5106603,1.79902231 C21.5516417,1.8041697 21.5963846,1.80931714 21.6444932,1.81486051 C22.1222131,1.86930431 22.8442373,1.95166299 23.5068683,2.65844298 L23.5130056,2.66497623 C23.924799,3.09399366 24.1795961,4.18841374 24.2443348,4.78096064 C24.2558175,4.91063596 24.4286519,6.91832662 24.4286519,8.87196941 L24.4286519,10.8137335 Z"></path>
                        </g>
                    </g>
                </g>
            </g>
        </g>
    </g>
</svg>