<?xml version="1.0" encoding="UTF-8"?>
<svg width="55px" height="48px" viewBox="0 0 55 48" version="1.1" xmlns="http://www.w3.org/2000/svg" xmlns:xlink="http://www.w3.org/1999/xlink">
    <!-- Generator: Sketch 53.2 (72643) - https://sketchapp.com -->
    <title>24-hours</title>
    <desc>Created with Sketch.</desc>
    <g id="Page-1" stroke="none" stroke-width="1" fill="none" fill-rule="evenodd">
        <g id="Главная-Итоговая" transform="translate(-158.000000, -698.000000)">
            <g id="advantages" transform="translate(158.000000, 691.000000)">
                <g id="1" transform="translate(0.000000, 3.000000)">
                    <g id="24-hours" transform="translate(0.000000, 4.000000)">
                        <path d="M54.1761185,43.0173388 L51.704474,43.0173388 L51.704474,27.2389118 C51.704165,26.7802994 51.3349631,26.4087797 50.8799746,26.4090911 C50.6114922,26.4092987 50.3598994,26.5413392 50.2058336,26.7630677 L38.6714926,43.3719382 C38.4107341,43.7478177 38.50167,44.2655993 38.8745793,44.5283308 C39.0128884,44.6258041 39.1774588,44.6781221 39.3462515,44.6782259 L50.056711,44.6782259 L50.056711,47.1695565 C50.056711,47.6281689 50.4256039,48 50.8805925,48 C51.3355811,48 51.704474,47.6281689 51.704474,47.1695565 L51.704474,44.6782259 L54.1761185,44.6782259 C54.6311071,44.6782259 55,44.3063948 55,43.8477824 C55,43.3891699 54.6311071,43.0173388 54.1761185,43.0173388 Z M50.056711,43.0173388 L40.928104,43.0173388 L50.056711,29.8730787 L50.056711,43.0173388 Z" id="Shape" fill="#77BE32" fill-rule="nonzero"></path>
                        <path d="M38.8423296,46.3392713 L29.1726918,46.3392713 L38.1627841,35.5769188 C38.1832031,35.5522155 38.2022949,35.5264742 38.2199574,35.499695 C39.911266,32.9548358 39.3479048,29.5093427 36.9376421,27.657734 C34.0070002,25.5169509 29.9242144,26.1969155 27.8186036,29.1763666 C27.0201173,30.3061811 26.590705,31.6622699 26.5909092,33.0534416 C26.5909092,33.5120103 26.9566141,33.8838059 27.4076705,33.8838059 C27.858727,33.8838059 28.2244319,33.5120103 28.2244319,33.0534416 C28.2241256,30.3018217 30.4180487,28.0710478 33.1244896,28.0707364 C34.1503418,28.0706326 35.150364,28.3977962 35.9836648,29.0062457 C37.6720126,30.321439 38.0651811,32.7436119 36.8821023,34.5406241 L26.7852984,46.6323899 C26.4934083,46.9820771 26.5356757,47.506037 26.8796343,47.8027885 C27.0271618,47.9300418 27.2142002,47.9998962 27.4076705,48 L38.8423296,48 C39.293386,48 39.6590909,47.6282044 39.6590909,47.1696356 C39.6590909,46.7110669 39.293386,46.3392713 38.8423296,46.3392713 Z" id="Path" fill="#77BE32"></path>
                        <path d="M21.8452368,43.2241521 C21.845132,43.2241521 21.8450272,43.2241521 21.8449224,43.2241521 C10.9088396,42.8214878 2.13136784,34.130113 1.7058487,23.2826028 L1.7058487,21.6195597 C2.12529049,10.7911746 10.8784528,2.10863466 21.7946272,1.69297783 L23.4711369,1.69297783 C34.2378923,2.10603615 42.9276616,10.5632337 43.5490181,21.2337338 L45.2288809,21.3118968 C44.6300525,9.39307507 34.7226132,0.0292071937 22.6923981,0.0116413014 C22.6714418,0.0108097799 22.6538384,0 22.632882,0 C22.6119257,0 22.5943223,0.0108097799 22.5733659,0.0116413014 C10.1200417,0.0285835525 0.0288150119,10.0387515 0.0117355685,22.3920432 C0.0117355685,22.4128313 0,22.4302932 0,22.4510813 C0,22.4718693 0.0108973136,22.4893313 0.0117355685,22.5101193 C0.0325871589,34.5585544 9.64527512,44.4383814 21.7828916,44.8863636 C21.7828916,44.8863636 21.8036733,44.3322931 21.8452368,43.2241521 Z" id="Path" fill="#564531"></path>
                        <path d="M33.8465696,11.6023103 C33.5206792,11.2840784 32.9924114,11.2840784 32.666521,11.6023103 L23.6984858,20.3615859 C23.0209385,20.0664851 22.2470011,20.0664851 21.5695581,20.3615859 L17.3233862,16.2138712 C16.9918627,15.9011418 16.4634905,15.910109 16.1433376,16.2339454 C15.8310087,16.5498337 15.8310087,17.0506694 16.1433376,17.3665576 L20.3811641,21.5061203 C19.7861325,22.7227996 20.3135658,24.1803691 21.5592306,24.7615016 C22.5153077,25.2076174 23.6555067,25.0163521 24.4045121,24.2843066 C25.1575858,23.5549104 25.3515135,22.4380926 24.8868798,21.5069355 L33.8465696,12.7549967 C34.1723556,12.4366629 34.1723556,11.9206442 33.8465696,11.6023103 Z M23.2246721,23.1306012 C23.2245678,23.1307031 23.2245678,23.1307031 23.2244635,23.130805 C22.8944004,23.4390507 22.374478,23.4390507 22.0444149,23.130805 C21.7184203,22.8124711 21.7184203,22.2963505 22.0442063,21.9779147 C22.3700967,21.659479 22.8984688,21.659479 23.2244635,21.9777109 C23.5504582,22.2960448 23.5504582,22.8122673 23.2246721,23.1306012 Z" id="Shape" fill="#564531" fill-rule="nonzero"></path>
                    </g>
                </g>
            </g>
        </g>
    </g>
</svg>