<svg width="856" height="113" viewBox="0 0 856 113" fill="none" xmlns="http://www.w3.org/2000/svg">
<path fill-rule="evenodd" clip-rule="evenodd" d="M9.22222 86C6.07032 86 1.40084 84.611 0 82.8748C4.55274 75.5828 5.48664 46.9933 5.48664 37.502C5.48664 24.4226 6.42053 11.9219 11.6737 3.35666C12.1406 2.54643 14.2419 0 18.9114 0C23.3474 0 28.3671 2.19919 33.737 20.4872C38.173 35.4186 43.076 49.7712 43.076 49.7712C43.076 49.8869 56.0338 8.21803 69.225 8.21803C71.5598 8.21803 74.3615 9.72275 76.8129 14.8156C80.3151 21.9919 80.4318 43.7524 80.4318 53.5908C80.4318 69.3324 80.6653 76.856 83 81.7174C81.8326 84.2638 78.4473 85.7685 75.1786 85.7685C67.007 85.7685 65.8397 79.6339 65.8397 67.3647C65.8397 52.0861 66.6568 43.5209 66.6568 29.1682C66.6568 28.0108 66.5401 27.3163 66.0731 27.3163C65.256 27.3163 65.256 28.4738 62.4543 34.4926C57.4346 45.3728 51.5978 59.031 48.7961 61.1144C47.045 62.3876 45.0605 63.0821 42.609 63.0821C38.173 63.0821 34.9044 60.9987 32.9198 57.0633C29.1842 49.424 23.5809 24.7699 21.5963 24.7699C21.4796 24.7699 21.1294 24.4226 20.7792 24.4226C20.3122 24.4226 20.1955 25.0013 20.1955 27.432C20.429 35.1871 20.7792 44.0996 20.7792 52.6649C20.7792 70.2584 18.9114 86 9.22222 86ZM116.237 35C128.316 35 134 45.551 134 57.0399C134 70.6391 125.947 85.7622 110.316 85.9967C95.6316 86.2311 89 74.0388 89 63.8395C89 55.3987 93.1447 47.7785 100.724 47.7785H100.961C101.908 39.2204 108.184 35 116.237 35ZM109.818 78C115.727 78 118 66.9109 118 59.2871C118 51.2013 115.955 43 108.909 43C106.182 43 104.25 45.4257 103.227 47.0429C106.75 48.3135 108 51.7789 108 55.5908C108 57.2079 107.773 58.7096 107.432 60.2112C104.477 61.3663 103 65.1782 103 68.9901C103 73.495 105.955 78 109.818 78ZM181.685 29.3772C168.511 26.5864 139.032 26.9816 136.1 40.7273C134.598 47.7735 150.436 49.6799 151.495 44.713C151.863 42.986 154.325 41.828 157.793 41.1601C158.04 42.3277 158.559 43.411 159.344 44.2279C160.534 45.4661 160.53 53.9664 160.529 56.1543C160.529 56.2128 160.529 56.2669 160.529 56.3161C160.529 65.8815 158.633 79.1507 158.278 81.3944C160.174 84.3467 163.017 86 165.979 86C171.43 86 172.496 58.9778 172.496 55.8438C172.615 54.4267 172.615 53.0096 172.615 51.7106C172.615 48.1294 171.946 44.0102 170.639 40.5768C174.601 40.8167 178.462 41.39 181.417 42.2386C185.068 41.0803 187.435 37.9599 187.903 35.7652C188.47 33.1085 186.57 30.412 181.685 29.3772ZM216.237 35C228.316 35 234 45.551 234 57.0399C234 70.6391 225.947 85.7622 210.316 85.9967C195.632 86.2311 189 74.0388 189 63.8395C189 55.3987 193.145 47.7785 200.724 47.7785H200.961C201.908 39.2204 208.184 35 216.237 35ZM209.818 78C215.727 78 218 66.9109 218 59.2871C218 51.2013 215.955 43 208.909 43C206.182 43 204.25 45.4257 203.227 47.0429C206.75 48.3135 208 51.7789 208 55.5908C208 57.2079 207.773 58.7096 207.432 60.2112C204.477 61.3663 203 65.1782 203 68.9901C203 73.495 205.955 78 209.818 78ZM286.124 72.0584C287.414 73.1089 288 74.9767 288 76.2607C288 81.9805 278.036 87 270.182 87C259.28 87 252.95 79.9961 252.95 72.2918C252.95 62.4864 258.811 54.4319 261.507 49.8794C246.502 47.5447 239 44.8599 239 35.8716C239 29.4514 243.103 27 247.557 27C251.191 27 257.053 27.9339 257.053 33.1868C257.053 35.2879 256.467 36.8054 254.943 39.2568C264.086 41.2412 279.208 41.0078 279.208 47.3113C279.208 53.6148 268.775 64.1206 268.775 72.5253C268.775 76.0272 271.002 77.7782 274.167 77.7782C277.567 77.7782 282.256 74.9767 286.124 72.0584ZM338.535 76.0129C339 77.0581 339 78.8 339 79.729C339 83.4452 335.161 86 330.856 86C319.804 86 314.918 76.129 309.683 64.9806L306.426 66.8387C306.309 69.1613 306.193 71.8323 306.077 74.9677C305.844 79.729 304.564 86 299.097 86C296.653 86 294.327 84.9548 292.698 83.7935C293.978 77.0581 295.025 70.0903 295.025 61.6129C295.025 52.9032 294.094 44.1936 292 35.3677C296.304 32.929 298.864 32 301.307 32C305.96 32 307.938 35.8323 307.938 43.4968C307.938 48.8387 307.589 51.9742 307.124 57.2C313.29 52.4387 320.27 44.5419 321.433 34.4387C323.178 33.5097 326.087 32.929 328.064 32.929C331.438 32.929 334.347 34.5548 334.347 39.0839C334.347 45.2387 329.926 51.5097 319.106 59.0581C320.619 62.0774 322.829 65.4452 325.621 68.8129C329.344 73.1097 332.834 74.9677 338.535 76.0129ZM387.097 65.7094C387.097 72.5394 388.833 75.3177 393 77.7488C392.653 80.5271 390.569 84 386.056 84C382.352 84 374.944 81.9163 373.093 71.266C368.579 77.7488 362.213 84 354.574 84C347.63 84 343.579 79.8325 343.579 69.5296C343.579 65.5936 343.926 57.6059 343.926 49.5025C343.926 44.1773 343.694 41.5148 343 37.9261C345.894 37.4631 348.787 37 351.565 37C357.583 37 358.972 40.0099 358.972 45.798C358.972 49.734 358.278 59.1108 358.278 65.5936C358.278 69.5296 358.856 72.3079 361.866 72.3079C363.37 72.3079 366.611 70.803 372.861 61.1946C373.208 56.3325 373.787 51.2389 373.787 46.9557C373.787 43.7143 373.556 40.3571 372.861 38.0419C374.597 37.8103 376.333 37.5788 377.838 37.5788C384.319 37.5788 388.023 40.0099 388.023 50.197C388.023 53.2069 387.097 60.2685 387.097 65.7094ZM501.645 71.9783C501.882 73.1467 502 74.1984 502 75.25C502 81.0924 498.455 85.4158 489.355 85.4158C475.409 85.4158 466.782 67.7717 457.8 48.8424L456.264 49.6603L452.245 51.1793C451.773 61.9293 451.182 71.0435 450.945 76.1848C450.709 81.4429 448.936 86 444.209 86C441.609 86 439.6 85.4158 438.3 84.5978C437.827 82.962 437 35.288 437 12.8533C437 5.25815 440.664 0 447.873 0C449.882 0 451.3 0.467391 452.955 1.40217C453.545 3.97283 452.955 10.3995 452.955 23.6033V26.5245C452.955 31.1984 452.836 35.8723 452.718 40.4293C461.818 35.1712 477.891 21.6168 479.9 3.97283C482.382 2.6875 485.455 1.86957 488.291 1.86957C493.018 1.86957 495.618 4.08967 495.618 10.3995C495.618 19.981 488.527 29.913 468.318 42.6495C471.036 47.5571 474.109 52.8152 478.955 58.4239C485.1 65.6685 492.191 70.2255 501.645 71.9783ZM505.233 75.3445C507.331 74.8792 509.662 73.5995 510.128 73.3669C514.441 69.7606 517.471 57.8949 524.464 43.1208C527.611 36.4899 532.972 33 537.984 33C540.548 33 544.627 33.698 548.24 35.443C547.657 40.0962 547.191 45.7964 547.191 51.4966C547.191 62.3154 548.939 73.4832 555 79.8814C554.534 82.7897 550.338 85 546.841 85C536.002 85 534.72 70.1096 534.72 63.4787C534.72 59.4072 535.07 56.3826 535.07 50.3333C535.07 48.2394 534.837 46.6107 534.254 46.4944C533.205 46.6107 530.991 55.2192 526.795 66.038C523.415 74.8792 520.618 85 512.226 85C506.632 85 505 81.8591 505 78.1365C505 77.2058 505.117 76.2752 505.233 75.3445ZM595.355 33C602.715 33 604 38.4335 604 44.5607C604 55.5434 591.5 113 569.07 113C559.958 113 558.322 108.723 558.439 104.908C558.439 102.711 558.907 99.8208 560.192 99.8208C561.243 99.8208 562.411 100.977 565.098 100.977C574.561 100.977 583.79 80.8613 583.907 79.5896C584.958 76.6994 585.776 73.8092 586.593 70.8035C583.79 74.3873 580.051 77.2775 575.846 77.2775C567.435 77.2775 562.645 59.7052 561.243 53.3468C559.841 47.104 556.804 39.5896 554 37.0462C554 37.0462 559.841 33.9249 564.748 33.9249C567.668 33.9249 570.238 35.0809 571.757 38.5491C574.561 45.4855 575.729 67.4509 581.22 67.4509C583.322 67.4509 586.827 63.7514 589.164 57.6243H589.28C589.865 53.4624 590.215 49.185 590.215 44.7919C590.215 41.0925 589.981 37.5087 589.28 34.0405C591.85 33.3468 593.486 33 595.355 33ZM645.787 42.7931C647.852 46.6621 649 53.2276 649 58.3862C649 70.8138 642.115 84.531 626.852 85C613.771 85 607 74.2138 607 62.8414C607 48.6552 614.689 38.6897 624.672 35.2897C618.361 31.069 610.328 27.5517 610.328 20.4C610.328 6.44828 632.131 0 642.344 0C646.131 0 647.967 2.22759 647.967 4.92414C647.967 7.15172 646.705 10.669 644.18 12.5448C636.607 11.8414 622.377 15.9448 622.377 21.1034C622.377 26.1448 641.426 33.531 644.984 41.269C645.213 41.8552 645.557 42.3241 645.787 42.7931ZM628.963 77C633.734 77 636 68.5474 636 60.2105C636 51.9895 633.853 44 630.275 44C625.505 44 623 54.6526 623 61.4842C623 68.6632 624.789 77 628.963 77ZM682.237 33C694.316 33 700 43.551 700 55.0399C700 68.6391 691.947 83.7622 676.316 83.9967C661.632 84.2311 655 72.0388 655 61.8395C655 53.3987 659.145 45.7785 666.724 45.7785H666.961C667.908 37.2204 674.184 33 682.237 33ZM675.818 76C681.727 76 684 64.9109 684 57.2871C684 49.2013 681.955 41 674.909 41C672.182 41 670.25 43.4257 669.227 45.0429C672.75 46.3135 674 49.7789 674 53.5908C674 55.2079 673.773 56.7096 673.432 58.2112C670.477 59.3663 669 63.1782 669 66.9901C669 71.495 671.955 76 675.818 76ZM749.124 72.0584C750.414 73.1089 751 74.9767 751 76.2607C751 81.9805 741.036 87 733.182 87C722.28 87 715.95 79.9961 715.95 72.2918C715.95 62.4864 721.811 54.4319 724.507 49.8794C709.502 47.5447 702 44.8599 702 35.8716C702 29.4514 706.103 27 710.557 27C714.191 27 720.053 27.9339 720.053 33.1868C720.053 35.2879 719.466 36.8054 717.943 39.2568C727.086 41.2412 742.208 41.0078 742.208 47.3113C742.208 53.6148 731.775 64.1206 731.775 72.5253C731.775 76.0272 734.002 77.7782 737.167 77.7782C740.567 77.7782 745.256 74.9767 749.124 72.0584ZM800.535 75.0129C801 76.0581 801 77.8 801 78.729C801 82.4452 797.161 85 792.856 85C781.804 85 776.918 75.129 771.683 63.9806L768.426 65.8387C768.309 68.1613 768.193 70.8323 768.077 73.9677C767.844 78.729 766.564 85 761.097 85C758.653 85 756.327 83.9548 754.698 82.7935C755.978 76.0581 757.025 69.0903 757.025 60.6129C757.025 51.9032 756.094 43.1936 754 34.3677C758.304 31.929 760.864 31 763.307 31C767.96 31 769.938 34.8323 769.938 42.4968C769.938 47.8387 769.589 50.9742 769.124 56.2C775.29 51.4387 782.27 43.5419 783.433 33.4387C785.178 32.5097 788.087 31.929 790.064 31.929C793.438 31.929 796.347 33.5548 796.347 38.0839C796.347 44.2387 791.926 50.5097 781.106 58.0581C782.619 61.0774 784.829 64.4452 787.621 67.8129C791.344 72.1097 794.834 73.9677 800.535 75.0129ZM850.097 63.7094C850.097 70.5394 851.833 73.3177 856 75.7488C855.653 78.5271 853.569 82 849.056 82C845.352 82 837.944 79.9163 836.093 69.266C831.579 75.7488 825.213 82 817.574 82C810.63 82 806.579 77.8325 806.579 67.5296C806.579 63.5936 806.926 55.6059 806.926 47.5025C806.926 42.1773 806.694 39.5148 806 35.9261C808.893 35.4631 811.787 35 814.565 35C820.583 35 821.972 38.0099 821.972 43.798C821.972 47.734 821.278 57.1108 821.278 63.5936C821.278 67.5296 821.857 70.3079 824.866 70.3079C826.37 70.3079 829.611 68.803 835.861 59.1946C836.208 54.3325 836.787 49.2389 836.787 44.9557C836.787 41.7143 836.556 38.3571 835.861 36.0419C837.597 35.8103 839.333 35.5788 840.838 35.5788C847.319 35.5788 851.023 38.0099 851.023 48.197C851.023 51.2069 850.097 58.2685 850.097 63.7094Z" fill="#77BE32"/>
</svg>
