<?xml version="1.0" encoding="UTF-8"?>
<svg width="25px" height="25px" viewBox="0 0 25 25" version="1.1" xmlns="http://www.w3.org/2000/svg" xmlns:xlink="http://www.w3.org/1999/xlink">
    <!-- Generator: Sketch 52.2 (67145) - http://www.bohemiancoding.com/sketch -->
    <title>call (1)</title>
    <desc>Created with Sketch.</desc>
    <g id="Page-1" stroke="none" stroke-width="1" fill="none" fill-rule="evenodd">
        <g id="Личный-кабинет" transform="translate(-150.000000, -788.000000)">
            <g id="номер" transform="translate(150.000000, 788.000000)">
                <g id="call-(1)">
                    <path d="M24.3001462,19.2514133 L19.2491715,15.8829922 C18.6081871,15.4589669 17.7489766,15.5984893 17.2750975,16.2036062 L15.8038012,18.0953216 C15.6147173,18.3446394 15.2710039,18.4169591 14.9974659,18.2650097 L14.7175926,18.1107212 C13.7898148,17.6050195 12.6354288,16.9754386 10.3095517,14.6487329 C7.98367446,12.3220273 7.35282651,11.1667641 6.84712476,10.240692 L6.69366472,9.96081871 C6.53961988,9.68732943 6.61057505,9.342154 6.85999025,9.15155945 L8.7504386,7.68070175 C9.35531189,7.20677388 9.49502924,6.34780702 9.07149123,5.70662768 L5.70307018,0.655653021 C5.26900585,0.00272904483 4.39814815,-0.193274854 3.72616959,0.210672515 L1.61403509,1.4794347 C0.950389864,1.86959064 0.463499025,2.50146199 0.25545809,3.24264133 C-0.505116959,6.01388889 0.0670565302,10.7966374 7.11247563,17.842885 C12.7169591,23.4469298 16.88923,24.9539961 19.7569688,24.9539961 C20.4169591,24.9568226 21.0743665,24.8709552 21.711501,24.6986842 C22.4528265,24.4908869 23.0847953,24.0039474 23.4747076,23.3401072 L24.7447368,21.2292398 C25.149269,20.557115 24.9533626,19.6857212 24.3001462,19.2514133 Z M24.0281676,20.8025341 L22.7610624,22.9146686 C22.4810916,23.3938109 22.0265595,23.7461014 21.4926901,23.8977583 C18.9343567,24.6001462 14.4647661,24.0183723 7.70087719,17.2544834 C0.936988304,10.4905945 0.355263158,6.02139376 1.05765107,3.46267057 C1.20950292,2.92816764 1.56223197,2.47305068 2.04195906,2.19264133 L4.15409357,0.925536062 C4.44566277,0.750097466 4.82363548,0.835136452 5.0119883,1.11846979 L6.84176413,3.86559454 L8.37753411,6.16900585 C8.56145224,6.44712476 8.50102339,6.81988304 8.23864522,7.02568226 L6.34775828,8.49653996 C5.77231969,8.93654971 5.6079922,9.73269981 5.9622807,10.3645712 L6.1124269,10.6373782 C6.64390838,11.6121345 7.30467836,12.8247563 9.71705653,15.2367446 C12.1294347,17.6486842 13.3416667,18.3095029 14.3159844,18.8409357 L14.5891813,18.9914717 C15.2210039,19.3457115 16.0172027,19.1814327 16.4572125,18.6059942 L17.9280702,16.7151072 C18.1339181,16.4528752 18.5065302,16.3924951 18.7847466,16.5762183 L23.8352827,19.9446394 C24.1188109,20.132846 24.2038499,20.5110136 24.0281676,20.8025341 Z" id="Shape" fill="#564531" fill-rule="nonzero"></path>
                    <path d="M14.1403996,4.16130604 C18.0429825,4.16564327 21.2055556,7.32826511 21.2099415,11.230848 C21.2099415,11.4605263 21.3961014,11.6466862 21.6257797,11.6466862 C21.8554581,11.6466862 22.0416179,11.4605263 22.0416179,11.230848 C22.0367934,6.86910331 18.5021442,3.33440546 14.1403996,3.32962963 C13.9107212,3.32962963 13.7245614,3.51578947 13.7245614,3.74546784 C13.7245614,3.9751462 13.9107212,4.16130604 14.1403996,4.16130604 Z" id="Path" fill="#77BE32"></path>
                    <path d="M14.1403996,6.65643275 C16.6655458,6.65940546 18.7118421,8.70570175 18.7148148,11.230848 C18.7148148,11.4605263 18.9010234,11.6466862 19.130653,11.6466862 C19.3603314,11.6466862 19.5464912,11.4605263 19.5464912,11.230848 C19.5430312,8.24653996 17.1246589,5.82816764 14.1403996,5.82475634 C13.9107212,5.82475634 13.7245614,6.01091618 13.7245614,6.24059454 C13.7245614,6.4702729 13.9107212,6.65643275 14.1403996,6.65643275 Z" id="Path" fill="#77BE32"></path>
                    <path d="M14.1403996,9.15155945 C15.2881579,9.15292398 16.2182749,10.0830409 16.2196881,11.230848 C16.2196881,11.4605263 16.4058967,11.6466862 16.6355263,11.6466862 C16.8651559,11.6466862 17.0513645,11.4605263 17.0513645,11.230848 C17.0495127,9.62392788 15.7473197,8.32168616 14.1403996,8.31988304 C13.9107212,8.31988304 13.7245614,8.50604288 13.7245614,8.73572125 C13.7245614,8.96539961 13.9107212,9.15155945 14.1403996,9.15155945 Z" id="Path" fill="#77BE32"></path>
                </g>
            </g>
        </g>
    </g>
</svg>