<svg width="191" height="86" viewBox="0 0 191 86" fill="none" xmlns="http://www.w3.org/2000/svg">
<path fill-rule="evenodd" clip-rule="evenodd" d="M34.3125 5.08802C36.1898 5.17335 37.6618 6.04801 38.7285 7.71202C39.7098 9.07736 40.2005 10.8907 40.2005 13.152C40.2005 14.1334 40.0938 15.1147 39.8805 16.096C39.2831 18.4 38.0138 21.5253 36.0725 25.472C34.1311 29.4187 31.4538 34.2507 28.0405 39.968C27.7418 40.4374 27.5925 40.8214 27.5925 41.12C27.5925 41.2907 27.6778 41.376 27.8485 41.376C28.1471 41.376 28.4885 41.0347 28.8725 40.352C30.6218 38.1333 32.5525 35.872 34.6645 33.568C36.7765 31.264 39.1125 28.8747 41.6725 26.4C48.5845 19.616 53.9178 15.9254 57.6725 15.328C58.2698 15.2 58.7818 15.296 59.2085 15.616C59.6351 15.936 60.0831 16.3733 60.5525 16.928C61.1498 17.6107 61.4911 18.24 61.5765 18.816C61.6618 19.392 61.7045 19.9787 61.7045 20.576C61.7045 20.832 61.6938 21.088 61.6725 21.344C61.6511 21.6 61.5978 21.8134 61.5125 21.984C59.9765 24.8427 58.4405 27.648 56.9045 30.4C55.3685 33.152 53.8538 35.9573 52.3605 38.816C51.5925 40.224 50.6218 42.144 49.4485 44.576C48.2751 47.008 47.0485 49.6747 45.7685 52.576C44.4885 55.4774 43.2191 58.4533 41.9605 61.504C40.7018 64.5547 39.6138 67.4027 38.6965 70.048C37.7791 72.6934 37.0965 74.9867 36.6485 76.928C36.2005 78.8694 36.1471 80.1814 36.4885 80.864C36.5738 81.0774 36.5738 81.3014 36.4885 81.536C36.4031 81.7707 36.3605 81.9947 36.3605 82.208C36.3605 83.488 36.7018 84.128 37.3845 84.128C39.1765 84.128 42.2911 81.9307 46.7285 77.536C47.2405 77.024 47.5605 76.768 47.6885 76.768C47.7738 76.8534 47.8165 76.9387 47.8165 77.024C47.8165 77.1947 47.6245 77.5573 47.2405 78.112C46.5151 79.3067 45.1071 80.7573 43.0165 82.464C40.7551 84.256 39.0485 85.152 37.8965 85.152C37.4271 85.152 37.0218 85.0027 36.6805 84.704C36.3391 84.4053 36.0405 84.0427 35.7845 83.616C35.5285 83.1894 35.3365 82.72 35.2085 82.208C35.0805 81.696 35.0165 81.2054 35.0165 80.736C35.0591 80.0533 35.3471 78.7414 35.8805 76.8C36.4138 74.8587 37.1071 72.576 37.9605 69.952C38.8138 67.328 39.7738 64.512 40.8405 61.504C41.9071 58.496 42.9845 55.5734 44.0725 52.736C45.1605 49.8987 46.1951 47.2854 47.1765 44.896C48.1578 42.5067 48.9898 40.608 49.6725 39.2L58.9525 20.384C59.4218 19.488 59.6565 18.6774 59.6565 17.952C59.6565 17.056 59.1658 16.608 58.1845 16.608C57.5445 16.608 56.7765 16.8 55.8805 17.184C52.0831 18.8054 47.4965 22.112 42.1205 27.104C39.9445 29.1947 37.8111 31.392 35.7205 33.696C33.6298 36 31.5391 38.4747 29.4485 41.12C27.6991 43.3387 26.2378 45.2373 25.0645 46.816C23.8911 48.3947 22.9845 49.7173 22.3445 50.784C21.8751 51.4667 21.3418 51.808 20.7445 51.808C20.1898 51.808 19.9125 51.5734 19.9125 51.104C19.9125 50.976 19.9445 50.8374 20.0085 50.688C20.0725 50.5387 20.1471 50.3574 20.2325 50.144C30.6005 33.0773 36.7018 21.6427 38.5365 15.84C38.7498 15.1573 38.9098 14.496 39.0165 13.856C39.1231 13.216 39.1765 12.5974 39.1765 12C39.1765 8.45867 37.6191 6.56002 34.5045 6.30402C31.5605 6.13335 27.4218 7.54134 22.0885 10.528C19.4005 12.1067 16.9258 13.7493 14.6645 15.456C12.4031 17.1627 10.2911 19.04 8.32847 21.088C4.06178 25.4827 1.92847 29.28 1.92847 32.48C1.92847 33.632 2.48313 34.3147 3.59247 34.528C4.23247 34.656 4.88313 34.7307 5.54447 34.752C6.2058 34.7734 6.83513 34.72 7.43247 34.592C7.94447 34.5067 8.20047 34.592 8.20047 34.848C8.20047 35.0614 7.94447 35.232 7.43247 35.36C5.93913 35.8294 4.65914 35.9574 3.59247 35.744C1.54446 35.36 0.584466 33.76 0.712466 30.944C0.840467 28.2133 2.90978 24.7147 6.92047 20.448C8.92581 18.272 11.0485 16.2987 13.2885 14.528C15.5285 12.7573 17.9071 11.1254 20.4245 9.63202C23.2405 8.05334 25.8005 6.88002 28.1045 6.11202C30.4085 5.34402 32.4778 5.00269 34.3125 5.08802ZM118.664 11.232C118.75 11.7867 118.547 12.096 118.056 12.16C117.566 12.224 117.086 12.1707 116.616 12C115.678 11.8294 114.451 11.648 112.936 11.456C111.422 11.264 109.8 11.104 108.072 10.976C106.344 10.848 104.595 10.7414 102.824 10.656C101.054 10.5707 99.4431 10.528 97.9925 10.528C95.3898 13.088 92.8618 15.968 90.4085 19.168C87.9551 22.368 85.7471 25.504 83.7845 28.576C85.4911 28.448 87.3471 28.3414 89.3525 28.256C91.3578 28.1707 93.3631 28.1174 95.3685 28.096C97.3738 28.0747 99.3578 28.0854 101.32 28.128C103.283 28.1707 105.096 28.256 106.76 28.384C107.358 28.4694 107.667 28.704 107.688 29.088C107.71 29.472 107.4 29.664 106.76 29.664C105.736 29.664 104.52 29.696 103.112 29.76C101.704 29.824 100.211 29.8987 98.6325 29.984C97.0538 30.0694 95.4538 30.176 93.8325 30.304C92.2111 30.432 90.6431 30.5707 89.1285 30.72C87.6138 30.8694 86.2271 31.04 84.9685 31.232C83.7098 31.424 82.6751 31.6267 81.8645 31.84C81.3098 32.8214 80.7125 33.92 80.0725 35.136C79.4325 36.352 78.8351 37.6533 78.2805 39.04C77.7258 40.4267 77.2565 41.8667 76.8725 43.36C76.4885 44.8534 76.2751 46.368 76.2325 47.904C76.2325 49.056 76.4671 50.016 76.9365 50.784C77.4058 51.552 78.0138 52.1493 78.7605 52.576C79.5071 53.0027 80.3391 53.28 81.2565 53.408C82.1738 53.536 83.0805 53.5574 83.9765 53.472C85.2565 53.3867 86.7391 53.1734 88.4245 52.832C90.1098 52.4907 91.8698 52.0534 93.7045 51.52C95.5391 50.9867 97.3951 50.3467 99.2725 49.6C101.15 48.8533 102.899 48.0107 104.52 47.072C104.99 46.816 105.256 46.8373 105.32 47.136C105.384 47.4347 105.267 47.6694 104.968 47.84C103.432 49.0774 101.758 50.1653 99.9445 51.104C98.1311 52.0427 96.2965 52.832 94.4405 53.472C92.5845 54.112 90.7498 54.6027 88.9365 54.944C87.1231 55.2854 85.4485 55.456 83.9125 55.456C83.3578 55.456 82.5791 55.3387 81.5765 55.104C80.5738 54.8694 79.5605 54.464 78.5365 53.888C77.5125 53.312 76.5951 52.5227 75.7845 51.52C74.9738 50.5173 74.5045 49.248 74.3765 47.712C74.2911 46.56 74.3871 45.2694 74.6645 43.84C74.9418 42.4107 75.3151 41.0134 75.7845 39.648C76.2538 38.2827 76.7658 36.9814 77.3205 35.744C77.8751 34.5067 78.4085 33.504 78.9205 32.736C78.5791 32.736 78.2165 32.7147 77.8325 32.672C77.4485 32.6294 77.1498 32.4374 76.9365 32.096C76.8085 32.0107 76.6591 31.872 76.4885 31.68C76.3178 31.488 76.1791 31.2747 76.0725 31.04C75.9658 30.8054 75.9125 30.5814 75.9125 30.368C75.9125 30.112 76.0191 29.8774 76.2325 29.664C76.4031 29.4934 76.6805 29.3654 77.0645 29.28C77.4485 29.1947 77.8751 29.12 78.3445 29.056C78.8138 28.992 79.2725 28.928 79.7205 28.864C80.1685 28.8 80.5631 28.7254 80.9045 28.64C82.9525 25.568 85.0858 22.5067 87.3045 19.456C89.5231 16.4053 91.8271 13.4294 94.2165 10.528C92.4245 10.528 90.4725 10.6454 88.3605 10.88C86.2485 11.1147 84.1045 11.4773 81.9285 11.968C79.7525 12.4587 77.5978 13.0987 75.4645 13.888C73.3311 14.6774 71.3471 15.6267 69.5125 16.736C67.2511 18.272 65.2885 20.1707 63.6245 22.432C61.9605 24.6934 61.0218 27.3387 60.8085 30.368C60.6805 32.5867 60.9471 34.7413 61.6085 36.832C62.2698 38.9227 63.2191 40.9067 64.4565 42.784C64.7551 43.296 64.7658 43.6267 64.4885 43.776C64.2111 43.9254 63.9018 43.7654 63.5605 43.296C62.9631 42.4853 62.4085 41.5787 61.8965 40.576C61.3845 39.5733 60.9365 38.5067 60.5525 37.376C60.1685 36.2453 59.8485 35.0827 59.5925 33.888C59.3365 32.6933 59.2085 31.52 59.2085 30.368C59.0805 27.04 59.7951 24.16 61.3525 21.728C62.9098 19.296 65.2671 17.0134 68.4245 14.88C70.4725 13.5573 72.5738 12.4694 74.7285 11.616C76.8831 10.7627 79.1124 10.0907 81.4165 9.60002C83.7205 9.10935 86.1205 8.74669 88.6165 8.51202C91.1125 8.27735 93.7471 8.07469 96.5205 7.90402C96.9471 7.43468 97.3311 7.04002 97.6725 6.72002C98.0138 6.40002 98.3765 6.09069 98.7605 5.79202C99.0165 5.62135 99.2085 5.63202 99.3365 5.82402C99.4645 6.01602 99.5925 6.28268 99.7205 6.62402C99.8485 6.96535 100.04 7.28535 100.296 7.58402C100.552 7.88269 100.958 8.03202 101.512 8.03202C104.67 8.07469 107.56 8.24535 110.184 8.54402C112.808 8.84269 115.166 9.16268 117.256 9.50402C118.195 9.80269 118.664 10.3787 118.664 11.232ZM133.448 51.936C133.235 52.2347 132.915 52.384 132.488 52.384C131.379 52.384 130.824 52 130.824 51.232C130.824 51.0614 130.867 50.848 130.952 50.592C144.563 27.0399 151.07 12.6187 150.472 7.32802C150.131 3.91467 148.296 2.20802 144.968 2.20802C142.536 2.20802 139.752 2.83735 136.616 4.09602C133.48 5.35469 129.928 7.20001 125.96 9.63202C117.896 14.7094 113.075 19.5093 111.496 24.032C110.856 25.952 110.984 27.3173 111.88 28.128C112.563 28.6827 113.822 28.96 115.656 28.96C116.126 28.96 116.36 29.0027 116.36 29.088C116.36 29.2587 116.104 29.3867 115.592 29.472C114.099 30.0267 112.819 30.0267 111.752 29.472C111.24 29.216 110.792 28.6294 110.408 27.712C110.024 26.7947 109.832 25.888 109.832 24.992C109.832 24.5653 109.875 24.2454 109.96 24.032C110.899 19.936 115.123 15.2214 122.632 9.88802C130.099 4.63999 136.819 1.58936 142.792 0.736019C144.968 0.480017 146.995 1.05601 148.872 2.46402C150.664 3.74403 151.603 5.36534 151.688 7.32802C151.816 11.1254 150.152 17.0133 146.696 24.992C145.331 28.192 143.848 31.328 142.248 34.4C140.648 37.472 138.91 40.544 137.032 43.616C136.819 44.128 136.712 44.448 136.712 44.576C136.712 44.9174 136.84 45.0454 137.096 44.96C137.352 44.9174 137.672 44.704 138.056 44.32C140.83 41.12 144.019 37.472 147.624 33.376C151.23 29.28 155.251 24.6934 159.688 19.616C159.688 19.5307 160.008 18.9974 160.648 18.016C160.99 17.2907 161.331 16.9707 161.672 17.056C162.142 17.2267 162.568 17.6533 162.952 18.336C163.336 19.0187 163.528 19.6587 163.528 20.256C163.528 20.512 163.486 20.7254 163.4 20.896C162.035 23.4987 160.851 25.92 159.848 28.16C158.846 30.4 158.046 32.4373 157.448 34.272C156.083 38.4534 155.379 42.656 155.336 46.88C155.294 48.2454 155.72 49.3653 156.616 50.24C157.512 51.1147 158.664 51.552 160.072 51.552C160.243 51.552 160.414 51.552 160.584 51.552C160.755 51.552 160.926 51.5307 161.096 51.488C163.443 51.1894 166.942 48.864 171.592 44.512C176.243 40.2027 180.211 35.4454 183.496 30.24C185.459 27.168 186.931 24.3307 187.912 21.728C188.894 19.1253 189.427 16.7147 189.512 14.496C189.555 11.4667 189.128 9.22669 188.232 7.77602C187.934 7.47735 187.784 7.20002 187.784 6.94402C187.784 6.77335 187.848 6.68802 187.976 6.68802C188.232 6.68802 188.552 6.92268 188.936 7.39202C190.259 8.88536 190.92 11.2533 190.92 14.496C190.92 18.72 189 23.904 185.16 30.048C183.496 32.7787 181.651 35.36 179.624 37.792C177.598 40.224 175.368 42.592 172.936 44.896C168.115 49.376 164.254 51.936 161.352 52.576C161.096 52.6187 160.851 52.6507 160.616 52.672C160.382 52.6934 160.158 52.704 159.944 52.704C158.323 52.704 156.936 52.1707 155.784 51.104C154.632 50.0373 153.992 48.6507 153.864 46.944C153.822 46.56 153.8 46.1974 153.8 45.856C153.8 45.472 153.8 45.0454 153.8 44.576C153.8 37.8773 155.87 30.5814 160.008 22.688C160.179 22.3894 160.264 22.048 160.264 21.664C160.264 21.28 160.136 21.088 159.88 21.088C159.624 21.088 159.347 21.2374 159.048 21.536C156.531 24.4374 153.459 27.9787 149.832 32.16C146.206 36.3414 142.003 41.248 137.224 46.88C136.712 47.4774 136.147 48.224 135.528 49.12C134.91 50.016 134.216 50.9547 133.448 51.936Z" fill="#564531"/>
</svg>
