<?xml version="1.0" encoding="UTF-8"?>
<svg width="20px" height="22px" viewBox="0 0 20 22" version="1.1" xmlns="http://www.w3.org/2000/svg" xmlns:xlink="http://www.w3.org/1999/xlink">
    <!-- Generator: Sketch 52.2 (67145) - http://www.bohemiancoding.com/sketch -->
    <title>viber (2)</title>
    <desc>Created with Sketch.</desc>
    <g id="Page-1" stroke="none" stroke-width="1" fill="none" fill-rule="evenodd">
        <g id="Контакты" transform="translate(-354.000000, -532.000000)">
            <g id="Group-10" transform="translate(150.000000, 464.000000)">
                <g id="Group-3" transform="translate(0.000000, 68.000000)">
                    <g id="viber-(2)" transform="translate(204.000000, 0.000000)">
                        <path d="M12.2167532,0 L7.78329004,0 C3.50515152,0 0.0247186147,3.44786745 0.0247186147,7.68597661 L0.0247186147,10.9799727 C0.0247186147,13.9553762 1.75692641,16.6555439 4.45818182,17.9256686 L4.45818182,21.593922 C4.45818182,21.9124288 4.86038961,22.0789513 5.08887446,21.8527329 L8.30571429,18.6659493 L12.21671,18.6659493 C16.4948052,18.6659493 19.9752814,15.2180819 19.9752814,10.9799727 L19.9752814,7.68597661 C19.9752814,3.44786745 16.4948052,0 12.2167532,0 Z" id="Path" fill="#665CAC"></path>
                        <path d="M5.5665368,17.9256257 C2.86528139,16.6554581 1.13307359,13.9553333 1.13307359,10.9799298 L1.13307359,7.68593372 C1.13307359,3.44786745 4.61354978,0 8.89164502,0 L7.78329004,0 C3.50515152,0 0.0247186147,3.44786745 0.0247186147,7.68597661 L0.0247186147,10.9799727 C0.0247186147,13.9553762 1.75692641,16.6555439 4.45818182,17.9256686 L4.45818182,21.593922 C4.45818182,21.9124288 4.86038961,22.0789513 5.08887446,21.8527329 L5.5665368,21.37954 L5.5665368,17.9256257 Z" id="Path" fill="#523494"></path>
                        <path d="M15.5779221,13.6417583 L15.2457576,11.8592008 C15.2182684,11.7119337 15.1031169,11.5961014 14.9548918,11.5667251 L12.3424675,11.0491462 C12.2211255,11.0252164 12.0961039,11.0627407 12.0087013,11.1492398 L10.9473593,12.200694 C9.1591342,11.4069357 8.16666667,10.4216101 7.29341991,8.57408187 L8.35134199,7.52610136 C8.43865801,7.43955945 8.47658009,7.31545029 8.45238095,7.19545809 L7.92991342,4.6074347 C7.90025974,4.46063938 7.78333333,4.34647953 7.63467532,4.31929045 L5.83528139,3.9902768 C5.78601732,3.98131384 5.73528139,3.98225731 5.68636364,3.99327875 C5.21125541,4.10019103 4.77774892,4.33734503 4.43268398,4.67926706 C3.83519481,5.27116569 3.60683983,6.1348694 3.77238095,7.17701754 C4.05025974,8.92698246 4.91571429,11.3623353 6.51246753,12.9504951 L6.53428571,12.9719376 C8.13619048,14.5526355 10.5945887,15.410078 12.3611688,15.6853996 C12.5837229,15.7201365 12.7980519,15.7373333 13.0035931,15.7373333 C13.7696104,15.7373333 14.4113853,15.4979493 14.8825974,15.031232 C15.2276623,14.6893528 15.4671429,14.2599025 15.5750216,13.7893255 C15.585974,13.7408226 15.587013,13.6906472 15.5779221,13.6417583 Z" id="Path" fill="#FFFFFF"></path>
                        <g id="Group" transform="translate(3.679654, 4.331384)" fill="#E5E5E5">
                            <polygon id="Path" points="4.3104329 3.55254971 4.67164502 3.19467446 4.67203463 3.1942885 4.31038961 3.55250682"></polygon>
                            <polygon id="Rectangle" transform="translate(8.146722, 7.000264) rotate(-45.000000) translate(-8.146722, -7.000264) " points="7.88999885 6.9969033 8.40342477 6.99931658 8.40344502 7.00362533 7.8900191 7.00121205"></polygon>
                            <path d="M10.0204762,10.7157154 C9.81493506,10.7157154 9.60060606,10.6985185 9.37805195,10.6637817 C7.61151515,10.38846 5.15311688,9.53101754 3.55116883,7.95031969 L3.52935065,7.92887719 C1.9325974,6.34071735 1.06714286,3.90536452 0.789264069,2.15539961 C0.655541126,1.3134386 0.779177489,0.588038986 1.14666667,0.0282612086 C1.00593074,0.121278752 0.873852814,0.227976608 0.752857143,0.347840156 C0.155367965,0.939738791 -0.072987013,1.8034425 0.0925541126,2.84559064 C0.3704329,4.59555556 1.23588745,7.03090838 2.83264069,8.61906823 L2.85445887,8.64051072 C4.45636364,10.2212086 6.9147619,11.0786511 8.68134199,11.3539727 C8.9038961,11.3887096 9.11822511,11.4059064 9.32376623,11.4059064 C10.0897835,11.4059064 10.7315584,11.1665653 11.2027706,10.6998051 C11.3237229,10.5799415 11.4314286,10.4491423 11.5253247,10.3097232 C11.1081385,10.5785263 10.5999134,10.7157154 10.0204762,10.7157154 Z" id="Path"></path>
                        </g>
                        <g id="Group" transform="translate(9.956710, 3.259259)" fill="#FFFFFF">
                            <path d="M0.782207792,2.96270955 C0.578181818,2.96270955 0.412770563,3.1265731 0.412770563,3.32869006 C0.412770563,3.53080702 0.578181818,3.69467057 0.782207792,3.69467057 C1.59709957,3.69467057 2.26004329,4.35141131 2.26004329,5.15867836 C2.26004329,5.35809357 2.42818182,5.52465887 2.62948052,5.52465887 C2.83077922,5.52465887 2.99891775,5.35809357 2.99891775,5.15867836 C2.99896104,3.94777778 2.00454545,2.96270955 0.782207792,2.96270955 Z" id="Path"></path>
                            <path d="M0.782207792,1.49870175 C0.645541126,1.49870175 0.507619048,1.50620663 0.372207792,1.52100195 C0.169393939,1.54317349 0.0231168831,1.72401949 0.0454978355,1.92497856 C0.0678787879,2.12593762 0.250822511,2.27046004 0.453290043,2.24863158 C0.561861472,2.23675244 0.672510823,2.23070565 0.782207792,2.23070565 C2.41194805,2.23070565 3.7378355,3.54418713 3.7378355,5.15867836 C3.7378355,5.26739181 3.7317316,5.37700585 3.71974026,5.4845614 C3.69766234,5.68273294 3.84632035,5.86670955 4.04645022,5.88853801 C4.2465368,5.91036647 4.43212121,5.7631423 4.45424242,5.56488499 C4.46917749,5.43074074 4.47675325,5.29410916 4.47675325,5.15867836 C4.47675325,3.14059649 2.81939394,1.49870175 0.782207792,1.49870175 Z" id="Path"></path>
                            <path d="M0.782207792,0.0347368421 C0.65017316,0.0347368421 0.516450216,0.039711501 0.384848485,0.0496179337 C0.181385281,0.0648849903 0.0289177489,0.24071345 0.0443290043,0.442230019 C0.0596969697,0.643789474 0.237792208,0.794830409 0.440649351,0.779563353 C0.553766234,0.77102924 0.668701299,0.766740741 0.782207792,0.766740741 C3.22683983,0.766740741 5.215671,2.73696296 5.215671,5.15872125 C5.215671,5.50137232 5.17575758,5.84247953 5.09705628,6.17252242 C5.05190476,6.36164522 5.16948052,6.55823002 5.35878788,6.60960624 C5.55796537,6.66364133 5.7687013,6.53991813 5.81614719,6.34088889 C5.90800866,5.95573879 5.95458874,5.55802339 5.95458874,5.15872125 C5.95458874,2.33332943 3.63428571,0.0347368421 0.782207792,0.0347368421 Z" id="Path"></path>
                        </g>
                    </g>
                </g>
            </g>
        </g>
    </g>
</svg>