<svg width="120" height="120" viewBox="0 0 120 120" fill="none" xmlns="http://www.w3.org/2000/svg">
<path fill-rule="evenodd" clip-rule="evenodd" d="M49.7775 114.794V86.3493H70.0949V114.794H86.3485V25.3969H86.349V114.794H90.412H94.4756C94.4756 112.559 96.3042 110.73 98.5392 110.73C99.3521 110.73 100.165 110.933 100.774 111.34C101.384 108.698 103.822 106.667 106.666 106.667C109.511 106.667 111.949 108.698 112.558 111.34C113.168 110.933 113.981 110.73 114.793 110.73C117.028 110.73 118.857 112.559 118.857 114.794V25.3969H86.349V1.01599H33.5235V25.3969H1.01562V118.857H33.5235V114.794H49.7775Z" fill="#E4F2DE"/>
<path fill-rule="evenodd" clip-rule="evenodd" d="M49.7778 114.794H70.0952V86.3493H49.7778V114.794Z" fill="#77BE32"/>
<path fill-rule="evenodd" clip-rule="evenodd" d="M17.2694 98.5398C17.2694 90.4129 15.2378 74.1588 9.14253 74.1588C3.04729 74.1588 1.01562 90.4126 1.01562 98.5398C1.01562 103.01 4.67277 106.667 9.14253 106.667C13.6123 106.667 17.2694 103.01 17.2694 98.5398ZM118.857 114.794C118.857 112.559 117.028 110.73 114.793 110.73C113.981 110.73 113.168 110.933 112.558 111.34C111.949 108.698 109.511 106.667 106.666 106.667C103.822 106.667 101.384 108.698 100.774 111.34C100.165 110.933 99.3518 110.73 98.5392 110.73C96.3042 110.73 94.4756 112.559 94.4756 114.794C94.4756 117.029 96.3042 118.857 98.5392 118.857H114.793C117.028 118.857 118.857 117.029 118.857 114.794Z" fill="#7EE1E6"/>
<path fill-rule="evenodd" clip-rule="evenodd" d="M53.8408 13.2064H45.7139V25.3969H53.8408V13.2064ZM13.2061 37.5874H21.333V49.7779H13.2061V37.5874ZM98.5394 61.9683H106.666V74.1588H98.5394V61.9683ZM106.666 86.3493H98.5394V98.5398H106.666V86.3493ZM98.5394 37.5874H106.666V49.7779H98.5394V37.5874ZM21.333 61.9683H13.2061V74.1588H21.333V61.9683ZM45.7139 61.9683H53.8408V74.1588H45.7139V61.9683ZM66.0313 13.2064H74.1582V25.3969H66.0313V13.2064ZM74.1582 61.9683H66.0313V74.1588H74.1582V61.9683ZM66.0313 37.5874H74.1582V49.7779H66.0313V37.5874ZM53.8408 37.5874H45.7139V49.7779H53.8408V37.5874Z" fill="#77BE32"/>
<rect x="29.46" y="114.794" width="60.9524" height="4.06357" fill="#E4F2DE"/>
<path fill-rule="evenodd" clip-rule="evenodd" d="M86.3493 107.683C85.7398 107.683 85.3333 107.276 85.3333 106.667V2.03167H34.5398V106.667C34.5398 107.276 34.1333 107.683 33.5238 107.683C32.9143 107.683 32.5079 107.276 32.5079 106.667V1.01595C32.5079 0.406429 32.9143 0 33.5238 0H86.3493C86.9588 0 87.3652 0.406429 87.3652 1.01595V106.667C87.365 107.276 86.9588 107.683 86.3493 107.683ZM114.794 119.873H98.5395C95.695 119.873 93.4602 117.638 93.4602 114.794C93.4602 111.95 95.6952 109.715 98.5395 109.715C99.149 109.715 99.5555 109.715 100.165 109.918C101.181 107.276 103.822 105.651 106.667 105.651C109.511 105.651 112.152 107.276 113.168 109.918C114.794 109.308 116.622 109.715 117.841 110.73V26.4126H94.4762C93.8667 26.4126 93.4602 26.0062 93.4602 25.3967C93.4602 24.7871 93.8667 24.3807 94.4762 24.3807H118.857C119.467 24.3807 119.873 24.7871 119.873 25.3967V114.794C119.873 117.638 117.638 119.873 114.794 119.873ZM98.5398 111.746C96.9143 111.746 95.4921 113.168 95.4921 114.794C95.4921 116.419 96.9143 117.841 98.5398 117.841H114.794C116.419 117.841 117.841 116.419 117.841 114.794C117.841 113.168 116.419 111.746 114.794 111.746C114.184 111.746 113.575 111.949 113.168 112.152C112.965 112.355 112.559 112.355 112.152 112.152C111.746 111.949 111.543 111.746 111.543 111.34C110.933 109.105 108.902 107.48 106.667 107.48C104.432 107.48 102.197 109.105 101.79 111.34C101.79 111.746 101.587 111.949 101.181 112.152C100.919 112.284 100.741 112.245 100.538 112.202C100.427 112.178 100.309 112.152 100.165 112.152C99.7588 111.949 99.1493 111.746 98.5398 111.746ZM28.4443 118.857C28.4443 119.467 28.8507 119.873 29.4602 119.873C30.0698 119.873 30.4762 119.467 30.4762 118.857V115.81H86.349C86.9586 115.81 87.365 115.403 87.365 114.794C87.365 114.184 86.9586 113.778 86.349 113.778H29.4602C28.8507 113.778 28.4443 114.184 28.4443 114.794V118.857ZM9.14286 119.873C8.53333 119.873 8.1269 119.467 8.1269 118.857V107.683C3.65714 107.073 0 103.213 0 98.5398C0 91.4286 1.62548 73.1429 9.14286 73.1429C16.6602 73.1429 18.2857 91.4286 18.2857 98.5398C18.2857 103.213 14.6286 107.073 10.1588 107.683V118.857C10.1588 119.467 9.75238 119.873 9.14286 119.873ZM2.03167 98.5395C2.03167 88.9905 4.46976 75.1745 9.14286 75.1745C13.816 75.1745 16.254 88.9905 16.254 98.5395C16.254 102.4 13.0033 105.651 9.14286 105.651C5.28238 105.651 2.03167 102.4 2.03167 98.5395ZM69.0793 106.667C69.0793 107.276 69.4857 107.683 70.0952 107.683C70.7048 107.683 71.1112 107.276 71.111 106.667V87.365H78.2221C78.8317 87.365 79.2381 86.9586 79.2381 86.349C79.2381 85.7395 78.8317 85.3331 78.2221 85.3331H41.6507C41.0412 85.3331 40.6348 85.7395 40.6348 86.349C40.6348 86.9586 41.0412 87.365 41.6507 87.365H48.7619V106.667C48.7619 107.276 49.1681 107.683 49.7776 107.683C50.3871 107.683 50.7936 107.276 50.7936 106.667V87.365H69.0793V106.667ZM106.667 99.5555H98.5398C97.9302 99.5555 97.5238 99.149 97.5238 98.5395V86.349C97.5238 85.7395 97.9302 85.3331 98.5398 85.3331H106.667C107.276 85.3331 107.683 85.7395 107.683 86.349V98.5395C107.683 99.1493 107.276 99.5555 106.667 99.5555ZM105.651 97.5238H99.5555V87.365H105.651V97.5238ZM106.667 75.1745H98.5398C97.9302 75.1745 97.5238 74.7681 97.5238 74.1586V61.9681C97.5238 61.3586 97.9302 60.9521 98.5398 60.9521H106.667C107.276 60.9521 107.683 61.3586 107.683 61.9681V74.1586C107.683 74.7683 107.276 75.1745 106.667 75.1745ZM105.651 73.1429H99.5555V62.984H105.651V73.1429ZM74.1588 75.1745H66.0319C65.4224 75.1745 65.016 74.7681 65.016 74.1586V61.9681C65.016 61.3586 65.4224 60.9521 66.0319 60.9521H74.1588C74.7683 60.9521 75.1748 61.3586 75.1748 61.9681V74.1586C75.1745 74.7683 74.7683 75.1745 74.1588 75.1745ZM73.1429 73.1429H67.0476V62.984H73.1429V73.1429ZM53.8412 75.1745H45.7143C45.1048 75.1745 44.6983 74.7681 44.6983 74.1586V61.9681C44.6983 61.3586 45.1048 60.9521 45.7143 60.9521H53.8412C54.4507 60.9521 54.8571 61.3586 54.8571 61.9681V74.1586C54.8571 74.7683 54.4507 75.1745 53.8412 75.1745ZM52.8255 73.1429H46.7302V62.984H52.8255V73.1429ZM21.3333 75.1745C20.7238 75.1745 20.3174 74.7681 20.3174 74.1586V62.9841H14.2221V66.0317C14.2221 66.6412 13.8157 67.0476 13.2062 67.0476C12.5967 67.0476 12.1902 66.6412 12.1902 66.0317V61.9681C12.1902 61.3586 12.5967 60.9521 13.2062 60.9521H21.3333C21.9429 60.9521 22.3493 61.3586 22.3493 61.9681V74.1586C22.3493 74.7683 21.9429 75.1745 21.3333 75.1745ZM0 66.0317C0 66.6412 0.406429 67.0476 1.01595 67.0476C1.62548 67.0476 2.03167 66.6412 2.03167 66.0319V26.4129H25.3969C26.0064 26.4129 26.4129 26.0064 26.4129 25.3969C26.4129 24.7874 26.0064 24.381 25.3969 24.381H1.01595C0.406429 24.381 0 24.7874 0 25.3969V66.0317ZM106.667 50.7936H98.5398C97.9302 50.7936 97.5238 50.3871 97.5238 49.7776V37.5871C97.5238 36.9776 97.9302 36.5712 98.5398 36.5712H106.667C107.276 36.5712 107.683 36.9776 107.683 37.5871V49.7776C107.683 50.3874 107.276 50.7936 106.667 50.7936ZM105.651 48.7619H99.5555V38.6031H105.651V48.7619ZM74.1588 50.7936H66.0319C65.4224 50.7936 65.016 50.3871 65.016 49.7776V37.5871C65.016 36.9776 65.4224 36.5712 66.0319 36.5712H74.1588C74.7683 36.5712 75.1748 36.9776 75.1748 37.5871V49.7776C75.1745 50.3874 74.7683 50.7936 74.1588 50.7936ZM73.1429 48.7619H67.0476V38.6031H73.1429V48.7619ZM53.8412 50.7936H45.7143C45.1048 50.7936 44.6983 50.3871 44.6983 49.7776V37.5871C44.6983 36.9776 45.1048 36.5712 45.7143 36.5712H53.8412C54.4507 36.5712 54.8571 36.9776 54.8571 37.5871V49.7776C54.8571 50.3874 54.4507 50.7936 53.8412 50.7936ZM52.8255 48.7619H46.7302V38.6031H52.8255V48.7619ZM21.3333 50.7936H13.2064C12.5969 50.7936 12.1905 50.3871 12.1905 49.7776V37.5871C12.1905 36.9776 12.5969 36.5712 13.2064 36.5712H21.3333C21.9429 36.5712 22.3493 36.9776 22.3493 37.5871V49.7776C22.3493 50.3874 21.9429 50.7936 21.3333 50.7936ZM20.3174 48.7619H14.2221V38.6031H20.3174V48.7619ZM74.1588 26.4126H66.0319C65.4224 26.4126 65.016 26.0062 65.016 25.3967V13.2062C65.016 12.5967 65.4224 12.1902 66.0319 12.1902H74.1588C74.7683 12.1902 75.1748 12.5967 75.1748 13.2062V25.3967C75.1745 26.0064 74.7683 26.4126 74.1588 26.4126ZM73.1429 24.381H67.0476V14.2221H73.1429V24.381ZM53.8412 26.4126H45.7143C45.1048 26.4126 44.6983 26.0062 44.6983 25.3967V13.2062C44.6983 12.5967 45.1048 12.1902 45.7143 12.1902H53.8412C54.4507 12.1902 54.8571 12.5967 54.8571 13.2062V25.3967C54.8571 26.0064 54.4507 26.4126 53.8412 26.4126ZM52.8255 24.381H46.7302V14.2221H52.8255V24.381Z" fill="#51565F"/>
</svg>
