<svg width="117" height="120" viewBox="0 0 117 120" fill="none" xmlns="http://www.w3.org/2000/svg">
<path fill-rule="evenodd" clip-rule="evenodd" d="M34.8286 39.9033H37.8059V41.0569C37.8059 47.3187 42.4428 54.4341 48.1817 57.93L48.1812 63.7165C48.1812 64.2598 47.8271 64.7398 47.3077 64.8998L40.0074 68.5664L40.9613 69.5217C50.4026 78.9776 65.8519 78.9776 75.293 69.5217L76.2462 68.5671L68.9407 64.8998C68.4216 64.7395 68.0674 64.2598 68.0674 63.7165L68.067 57.8829C73.8089 54.3853 78.4435 47.2767 78.4435 41.0123V39.9033H81.4207C82.9936 39.9033 84.2684 38.6283 84.2684 37.0556V31.478C84.2684 30.9115 84.101 30.3848 83.8158 29.9414H32.4335C32.1483 30.3851 31.981 30.9115 31.981 31.478V37.0556C31.981 38.6283 33.256 39.9033 34.8286 39.9033Z" fill="#FED9A8"/>
<path fill-rule="evenodd" clip-rule="evenodd" d="M37.8071 41.0576C37.8071 48.8025 44.9003 57.8562 52.3993 59.7469C57.2717 60.9755 58.6974 60.9837 63.5741 59.771L63.7967 59.7157C71.3218 57.8444 78.4421 48.7786 78.4421 41.013V10.7107H37.8071V41.0576Z" fill="#FED9A8"/>
<path fill-rule="evenodd" clip-rule="evenodd" d="M68.1179 40.8612C68.1179 48.6265 60.9974 57.6926 53.4725 59.5638L52.6196 59.8017C57.3142 60.9743 58.7724 60.9649 63.5738 59.771L63.7965 59.7157C71.3216 57.8444 78.4419 48.7786 78.4419 41.013V10.7107H68.1179V40.8612Z" fill="#F4C892"/>
<path fill-rule="evenodd" clip-rule="evenodd" d="M102.148 74.5631L78.3165 66.1406C77.8346 65.9702 77.2979 66.0923 76.9365 66.4542L75.2905 68.1028C65.8491 77.5587 50.3998 77.5587 40.9587 68.1028L39.3127 66.4542C38.9513 66.0923 38.4146 65.9702 37.9327 66.1406L14.101 74.5631C7.76703 76.8016 3.37929 82.6116 2.95249 89.325L1.91867 108.614C1.7846 110.724 3.45687 112.509 5.56765 112.509H57.8858H58.3634H110.682C112.792 112.509 114.465 110.724 114.331 108.614L113.297 89.325C112.87 82.6116 108.482 76.8016 102.148 74.5631Z" fill="#D4EABF"/>
<path fill-rule="evenodd" clip-rule="evenodd" d="M114.331 108.557L114.172 105.599C114.171 105.601 114.17 105.604 114.17 105.606L113.297 89.325C112.87 82.6113 108.482 76.8016 102.148 74.5631L78.3167 66.1406C77.8348 65.9702 77.2981 66.0921 76.937 66.4537L75.2905 68.1028C75.1372 68.2563 74.9823 68.407 74.8257 68.5556L91.824 74.5631C98.158 76.8016 102.546 82.6116 102.972 89.325L103.674 102.409C103.842 105.546 101.344 108.182 98.202 108.182H58.3634H57.8858H5.56765C3.91531 108.182 2.53601 107.086 2.07734 105.599L1.91867 108.557C1.7846 110.667 3.45687 112.452 5.56765 112.452H57.8858H58.3634L110.682 112.509C112.677 112.509 114.279 110.912 114.334 108.954C114.34 108.824 114.339 108.691 114.331 108.557Z" fill="#77BE32"/>
<path fill-rule="evenodd" clip-rule="evenodd" d="M58.1245 1.70789H50.8148C40.8145 1.70789 32.7079 9.81468 32.7079 19.8148V30.2271C31.8564 30.2344 37.8072 30.244 37.8072 30.244V25.1597H78.4422V30.244L83.5415 30.2271V19.815C83.5415 9.81468 75.4347 1.70812 65.4346 1.70812H58.1245V1.70789Z" fill="#D4EABF"/>
<path fill-rule="evenodd" clip-rule="evenodd" d="M65.4343 1.70789H58.1244H55.1104C65.1107 1.70789 73.2172 9.81468 73.2172 19.8148V25.1599H78.4419V30.2442L83.5412 30.2273V19.815C83.5412 9.81468 75.4344 1.70789 65.4343 1.70789Z" fill="#77BE32"/>
<path fill-rule="evenodd" clip-rule="evenodd" d="M84.2684 30.2442C84.2684 23.7176 78.9776 18.4268 72.451 18.4268H57.5386H43.7984C37.2717 18.4268 31.981 23.7176 31.981 30.2442H57.5553H84.2684Z" fill="#669C32"/>
<path fill-rule="evenodd" clip-rule="evenodd" d="M84.8575 81.4708H31.3919C30.8683 81.4708 30.4438 81.8953 30.4438 82.4189V117.344C30.4438 117.867 30.8683 118.292 31.3919 118.292H84.8575C85.3811 118.292 85.8056 117.867 85.8056 117.344V82.4189C85.8058 81.8953 85.3811 81.4708 84.8575 81.4708Z" fill="#AF8A82"/>
<path fill-rule="evenodd" clip-rule="evenodd" d="M84.8575 81.4708H75.4816V113.358C75.4816 113.882 75.0571 114.307 74.5335 114.307H30.4438V117.344C30.4438 117.867 30.8683 118.292 31.3919 118.292H84.8575C85.3811 118.292 85.8056 117.867 85.8056 117.344V82.4189C85.8058 81.8953 85.3811 81.4708 84.8575 81.4708Z" fill="#927266"/>
<path fill-rule="evenodd" clip-rule="evenodd" d="M51.3081 81.4708V98.0088L57.9808 94.3038L64.941 98.0088V81.4708H51.3081Z" fill="#FFB125"/>
<path fill-rule="evenodd" clip-rule="evenodd" d="M57.9824 94.3045L64.9412 98.0088V81.4708H57.9824V94.3045Z" fill="#FF901D"/>
<path fill-rule="evenodd" clip-rule="evenodd" d="M28.7356 82.4191C28.7356 80.9545 29.9272 79.763 31.3918 79.763H84.8574C86.3218 79.763 87.5134 80.9545 87.5134 82.4189V110.8H93.1578V90.5716C93.1578 89.6283 93.9226 88.8635 94.8659 88.8635C95.8093 88.8635 96.5741 89.6283 96.5741 90.5716V110.8H110.682C111.225 110.8 111.729 110.582 112.1 110.186C112.474 109.788 112.661 109.268 112.626 108.722L111.591 89.4162C111.208 83.3923 107.278 78.1875 101.579 76.1733L100.632 75.8388C99.743 75.5245 99.2766 74.5488 99.5909 73.6594C99.9052 72.7702 100.881 72.303 101.77 72.618L102.717 72.9525C109.708 75.4233 114.53 81.8074 115.001 89.2165L116.036 108.522C116.129 109.981 115.602 111.446 114.591 112.523C113.581 113.599 112.156 114.217 110.681 114.217H87.5134V117.344C87.5134 118.808 86.3218 120 84.8572 120H31.3916C29.9269 120 28.7354 118.808 28.7354 117.344V114.217H5.56741C4.09249 114.217 2.66725 113.599 1.65757 112.523C0.646239 111.446 0.120067 109.981 0.213817 108.506L1.24671 89.2336C1.71897 81.8077 6.54054 75.4235 13.5317 72.9527L37.3634 64.5302C38.4598 64.1431 39.6994 64.4243 40.5212 65.2472L41.2859 66.0131L46.4731 63.4078L46.4736 58.8703C41.6541 55.6312 37.7614 50.1527 36.5197 44.6454C36.5164 44.6304 36.5129 44.6153 36.5094 44.6003L36.5091 44.5992C36.5056 44.5838 36.502 44.5684 36.4986 44.553C36.4632 44.3918 36.4299 44.2305 36.399 44.0693C36.3824 43.9837 36.3674 43.8982 36.3523 43.8127L36.3476 43.7862L36.331 43.6916C36.314 43.5955 36.297 43.4995 36.2825 43.4037C36.2483 43.1794 36.2192 42.9558 36.1944 42.7327C36.19 42.6934 36.1864 42.6543 36.1828 42.6152L36.1813 42.5985L36.1758 42.5414C36.1562 42.3448 36.1405 42.1488 36.1285 41.9534L36.1283 41.9501C36.1262 41.9173 36.1242 41.8845 36.1223 41.8518L36.1194 41.7961C36.118 41.7714 36.1164 41.7466 36.1148 41.7219L36.1148 41.7217L36.1148 41.7216L36.1148 41.7214L36.1148 41.7213L36.1148 41.7211L36.1147 41.7209C36.1124 41.6843 36.11 41.6476 36.1086 41.6112H34.8287C32.3166 41.6112 30.2729 39.5674 30.2729 37.0554V31.478C30.2729 31.2176 30.2949 30.9607 30.3383 30.708C30.2968 30.5604 30.2729 30.4052 30.2729 30.2442C30.2729 28.717 30.5309 27.2498 30.9997 25.8792V19.815C30.9997 8.88891 39.8886 0 50.8147 0H65.4343C76.3604 0 85.2493 8.88891 85.2491 19.815V25.8785C85.7176 27.2489 85.9758 28.7161 85.9758 30.2435C85.9758 30.4045 85.9522 30.5597 85.9105 30.7073C85.9538 30.96 85.9758 31.2169 85.9758 31.4773V37.0547C85.9758 39.5667 83.9321 41.6105 81.4201 41.6105H80.1385C80.1374 41.6392 80.1355 41.6681 80.1335 41.697C80.132 41.7188 80.1305 41.7406 80.1294 41.7623C80.1265 41.8146 80.123 41.8669 80.1198 41.9191C80.108 42.1078 80.0928 42.2972 80.0741 42.4873L80.0674 42.5566C80.0623 42.6099 80.0572 42.6633 80.0513 42.7167C80.0309 42.8984 80.0066 43.0805 79.9796 43.2628C79.9512 43.4566 79.9182 43.6507 79.8833 43.8448L79.8705 43.9168L79.8607 43.9715L79.8516 44.0201C78.7627 49.7241 74.7671 55.4719 69.7747 58.8244L69.7749 63.4071L74.9635 66.0117L75.7276 65.2465C76.5498 64.4234 77.7894 64.1421 78.8853 64.5293L90.1906 68.5249C91.0801 68.8392 91.5462 69.8149 91.2319 70.7044C90.9179 71.5941 89.9422 72.0602 89.0525 71.7457L77.975 67.8307L76.5085 69.2995V69.2998L76.5078 69.3005L76.4991 69.3091C72.0828 73.7325 66.3308 76.3598 60.1294 76.8265C59.6804 76.8602 59.2292 76.8834 58.7757 76.8945C58.5591 76.8998 58.3421 76.9024 58.1246 76.9024C56.1671 76.9024 54.2441 76.6891 52.3819 76.2736C47.6234 75.2116 43.2641 72.8288 39.7501 69.3094C39.7497 69.3092 39.7495 69.3089 39.7493 69.3087L39.7491 69.3084L38.2742 67.8309L14.6703 76.173C8.97171 78.1873 5.04124 83.392 4.6571 89.433L3.62421 108.705C3.58858 109.268 3.77515 109.787 4.14874 110.186C4.52069 110.582 5.0246 110.8 5.56741 110.8H19.6744V90.5716C19.6744 89.6283 20.4392 88.8635 21.3826 88.8635C22.3259 88.8635 23.0907 89.6283 23.0907 90.5716V110.8H28.7351V105.859C28.7351 104.916 29.4999 104.151 30.4433 104.151C31.3866 104.151 32.1514 104.916 32.1514 105.859V116.584H84.0978V83.1785H66.6493V98.0084C66.6493 98.6081 66.3345 99.1638 65.8205 99.4727C65.5505 99.6349 65.2458 99.7165 64.9412 99.7165C64.6655 99.7165 64.3897 99.6502 64.1384 99.5163L57.9983 96.2477L52.1375 99.502C51.6085 99.7957 50.9635 99.7875 50.442 99.4807C49.9205 99.1739 49.6004 98.614 49.6004 98.0088V83.179H32.1519V93.8306C32.1519 94.774 31.3871 95.5387 30.4437 95.5387C29.5004 95.5387 28.7356 94.774 28.7356 93.8306V82.4191ZM58.7834 92.7961L63.2328 95.1647V83.179H53.0162V95.1068L57.1517 92.8106C57.4093 92.6677 57.695 92.5959 57.9807 92.5959C58.2566 92.5959 58.5324 92.6625 58.7834 92.7961ZM82.5601 37.0554C82.5601 37.6838 82.0487 38.1952 81.4203 38.1952H80.1498V31.9523H82.5601V37.0554ZM50.8147 3.41602C41.7723 3.41602 34.4157 10.7726 34.4157 19.815V20.5163C36.8497 18.1678 40.1569 16.7189 43.7982 16.7189H72.451C76.0923 16.7189 79.3995 18.1678 81.8335 20.5163V19.815C81.8335 10.7726 74.4769 3.41602 65.4345 3.41602H50.8147ZM36.099 38.1952H34.8284C34.1998 38.1952 33.6887 37.6838 33.6887 37.0554V31.9523H36.099V38.1952ZM43.7982 20.1349C38.806 20.1349 34.647 23.7727 33.833 28.5363H82.4159C81.6017 23.7727 77.443 20.1349 72.4508 20.1349H43.7982ZM39.5954 42.402C39.5926 42.3778 39.59 42.3537 39.5874 42.3295C39.5663 42.1385 39.5501 41.9482 39.5384 41.7586L39.5374 41.7418C39.5369 41.7353 39.5364 41.7288 39.536 41.7224C39.5351 41.7102 39.5342 41.698 39.5335 41.6859C39.5218 41.4752 39.515 41.2655 39.515 41.0573V31.9523H76.734V41.013C76.734 41.2209 76.7274 41.4305 76.7155 41.6409C76.7141 41.6679 76.7117 41.6953 76.7098 41.7223C76.6981 41.9072 76.6824 42.093 76.662 42.2796L76.6588 42.3092L76.6519 42.3701C75.8792 49.001 69.6868 56.4907 63.3842 58.058L63.1613 58.1133C58.5779 59.2533 57.4177 59.2505 52.8165 58.0905C46.534 56.5066 40.3611 49.0153 39.5954 42.402ZM49.8889 63.7167C49.8887 64.9598 49.1258 66.0483 47.9731 66.477L43.947 68.4989C43.9548 68.5052 43.9627 68.5113 43.9705 68.5177C44.4601 68.913 44.964 69.2866 45.4812 69.6373L45.4918 69.6445C45.7475 69.8177 46.0065 69.9846 46.2683 70.1466L46.3128 70.174C46.5748 70.335 46.8399 70.4911 47.108 70.6411L47.1169 70.646C47.6576 70.9481 48.2101 71.2263 48.7728 71.4818C48.784 71.4868 48.7952 71.4919 48.8064 71.4971C48.8147 71.5009 48.823 71.5047 48.8314 71.5085C49.0995 71.6292 49.3702 71.7443 49.643 71.8545L49.7295 71.8889C50.0042 71.9984 50.2808 72.1031 50.5597 72.2016C50.5723 72.206 50.585 72.21 50.5974 72.2145C50.8789 72.3134 51.1625 72.4064 51.448 72.4941C51.4542 72.4959 51.4604 72.498 51.4666 72.5C51.4727 72.5019 51.4788 72.5039 51.485 72.5058C51.762 72.5902 52.0414 72.668 52.3219 72.7418C52.3634 72.7526 52.4049 72.7636 52.4466 72.7744C52.719 72.8442 52.993 72.9089 53.2683 72.9687C53.3001 72.9757 53.332 72.9823 53.3638 72.9889C53.3756 72.9914 53.3875 72.9938 53.3994 72.9963C53.6818 73.0559 53.9654 73.1112 54.2509 73.1599L54.2982 73.1674C54.5778 73.2145 54.8591 73.2558 55.1412 73.2926C55.1776 73.2973 55.2137 73.3027 55.25 73.3071C55.5298 73.3423 55.8111 73.3713 56.0933 73.3962L56.0976 73.3966C56.1493 73.4011 56.2009 73.4057 56.2524 73.4098C56.5327 73.4325 56.8137 73.4505 57.0962 73.463C57.1416 73.4648 57.1873 73.4662 57.233 73.4679C57.5293 73.4794 57.826 73.4866 58.1241 73.4866C58.4223 73.4866 58.7192 73.4791 59.0152 73.4679C59.0612 73.4662 59.1073 73.4651 59.1533 73.463C59.4352 73.4505 59.7162 73.4325 59.9963 73.4098C60.05 73.4055 60.1034 73.4009 60.1571 73.3962C60.4383 73.3716 60.7184 73.3425 60.9973 73.3076C61.0196 73.3048 61.0418 73.3017 61.064 73.2986C61.081 73.2962 61.0979 73.2939 61.115 73.2916C61.3923 73.2553 61.6686 73.2148 61.9433 73.1686C61.9532 73.1668 61.9633 73.1653 61.9733 73.1638C61.9833 73.1623 61.9933 73.1607 62.0033 73.159C62.2841 73.1109 62.563 73.0563 62.8409 72.998C62.8602 72.9939 62.8795 72.9899 62.8988 72.9859C62.9294 72.9795 62.96 72.9732 62.9905 72.9666C63.2591 72.9082 63.5262 72.8449 63.792 72.777C63.8209 72.7695 63.8497 72.7619 63.8785 72.7543C63.9011 72.7484 63.9238 72.7424 63.9465 72.7364C64.2165 72.6654 64.4853 72.5904 64.752 72.5093C64.782 72.5004 64.8116 72.4903 64.8416 72.4812C65.1005 72.4013 65.3576 72.3166 65.6131 72.2276C65.6272 72.2226 65.6414 72.2178 65.6556 72.213C65.6737 72.2069 65.6919 72.2007 65.7099 72.1943C65.971 72.1017 66.2298 72.0035 66.4869 71.9016C66.5373 71.8816 66.5876 71.8617 66.638 71.8413C66.8902 71.7391 67.1405 71.6327 67.3887 71.5214C67.4354 71.5005 67.4816 71.479 67.528 71.4579C67.7839 71.3409 68.0382 71.2207 68.2894 71.0941C68.2979 71.0899 68.3063 71.0855 68.3146 71.0811C68.323 71.0767 68.3314 71.0723 68.3398 71.0681C68.5841 70.9444 68.8259 70.8152 69.0657 70.6823C69.0911 70.6683 69.1164 70.6546 69.1417 70.6407C69.1541 70.634 69.1664 70.6272 69.1787 70.6202C69.4177 70.4857 69.6544 70.3463 69.8888 70.2028C69.9202 70.1835 69.9516 70.1643 69.983 70.145C69.9989 70.1351 70.0149 70.1253 70.0309 70.1154C70.2636 69.9708 70.494 69.8222 70.7218 69.6687C70.7439 69.6537 70.7659 69.6386 70.7879 69.6234C70.8042 69.6121 70.8205 69.6009 70.8369 69.5897C71.0694 69.4308 71.3 69.2684 71.5271 69.1003L71.5489 69.0844C71.7793 68.9135 72.0057 68.7363 72.2302 68.5561L72.3019 68.4987L68.2749 66.4772C67.1225 66.0488 66.3594 64.9601 66.3591 63.717L66.3589 60.663C65.6504 60.9523 64.9327 61.1934 64.2085 61.3734L63.9858 61.4287C61.4244 62.0655 59.72 62.3852 58.0189 62.3852C56.2981 62.3852 54.5808 62.0585 51.9814 61.4032C51.2771 61.2255 50.5787 60.9893 49.8891 60.7078L49.8889 63.7167Z" fill="black"/>
</svg>
