<?xml version="1.0" encoding="UTF-8"?>
<svg width="25px" height="25px" viewBox="0 0 25 25" version="1.1" xmlns="http://www.w3.org/2000/svg" xmlns:xlink="http://www.w3.org/1999/xlink">
    <!-- Generator: Sketch 52.2 (67145) - http://www.bohemiancoding.com/sketch -->
    <title>email</title>
    <desc>Created with Sketch.</desc>
    <g id="Page-1" stroke="none" stroke-width="1" fill="none" fill-rule="evenodd">
        <g id="Личный-кабинет" transform="translate(-150.000000, -837.000000)">
            <g id="почта" transform="translate(150.000000, 837.000000)">
                <g id="email">
                    <path d="M24.99375,9.55688477 C24.9911621,9.52817383 24.9854492,9.49980469 24.9766602,9.47231445 C24.9709473,9.44775391 24.9629883,9.4237793 24.9529297,9.40063477 C24.9412598,9.37802734 24.9272949,9.35664063 24.9112793,9.33686523 C24.8952148,9.31337891 24.8766113,9.29174805 24.8558594,9.27226563 C24.8491699,9.26645508 24.8462891,9.25849609 24.839209,9.25268555 L20.8321289,6.140625 L20.8321289,2.91523438 C20.8321289,2.22490234 20.2724609,1.66523438 19.5821289,1.66523438 L15.0666992,1.66523438 L13.2587402,0.261474609 C12.8121094,-0.0868652344 12.185791,-0.0868652344 11.7391602,0.261474609 L9.93081055,1.66523438 L5.41538086,1.66523438 C4.72504883,1.66523438 4.16538086,2.22485352 4.16538086,2.91523438 L4.16538086,6.14067383 L0.159570313,9.25273438 C0.152490234,9.25859375 0.149560547,9.26650391 0.142919922,9.27231445 C0.122167969,9.29174805 0.103564453,9.31342773 0.0875,9.33691406 C0.071484375,9.35668945 0.0575195313,9.37802734 0.0458496094,9.40068359 C0.0357421875,9.4237793 0.0278320313,9.44780273 0.0221191406,9.47236328 C0.0134277344,9.49946289 0.00771484375,9.52739258 0.00502929688,9.55571289 C0.00502929688,9.56445313 4.8828125e-05,9.57197266 4.8828125e-05,9.58071289 L4.8828125e-05,23.7485352 C0.000634765625,24.0135742 0.0863769531,24.2713867 0.244628906,24.4839355 C0.247119141,24.4876953 0.247558594,24.4922852 0.250439453,24.4956055 C0.253369141,24.4989258 0.259619141,24.5026855 0.263769531,24.5072754 C0.497851563,24.8152832 0.861914063,24.996875 1.2487793,24.9985352 L23.7487793,24.9985352 C24.1371582,24.9973633 24.5027344,24.8148926 24.7371094,24.5052246 C24.7404297,24.5010742 24.745459,24.4998047 24.7483398,24.4956543 C24.7512695,24.4915039 24.7516602,24.4877441 24.7541992,24.4839844 C24.9124512,24.2713867 24.9981934,24.0135742 24.9987793,23.748584 L24.9987793,9.58188477 C24.9987305,9.57314453 24.9941895,9.565625 24.99375,9.55688477 Z M12.2487305,0.918945313 C12.3942383,0.803320313 12.600293,0.803320313 12.7458008,0.918945313 L13.7070313,1.66518555 L11.2903809,1.66518555 L12.2487305,0.918945313 Z M1.35375977,24.1652344 L12.2487793,15.7022949 C12.3943848,15.5868652 12.600293,15.5868652 12.7458496,15.7022949 L23.64375,24.1652344 L1.35375977,24.1652344 Z M24.1654297,23.515625 L13.2587402,15.0447754 C12.8120117,14.6967285 12.1858887,14.6967285 11.7391602,15.0447754 L0.832080078,23.515625 L0.832080078,10.2164551 L7.66000977,15.5185547 C7.84194336,15.6596191 8.10375977,15.6265137 8.24482422,15.4445801 C8.38588867,15.2626465 8.3527832,15.0008301 8.17084961,14.8597656 L1.23417969,9.47353516 L4.16542969,7.19560547 L4.16542969,10.4151855 C4.16542969,10.6453125 4.35200195,10.8318359 4.58208008,10.8318359 C4.81220703,10.8318359 4.99873047,10.6452637 4.99873047,10.4151855 L4.99873047,2.91518555 C4.99873047,2.68505859 5.18525391,2.49853516 5.41538086,2.49853516 L19.5820313,2.49853516 C19.8121582,2.49853516 19.9986816,2.68505859 19.9986816,2.91518555 L19.9986816,10.4151855 C19.9986816,10.6453125 20.1852051,10.8318359 20.415332,10.8318359 C20.645459,10.8318359 20.8319824,10.6452637 20.8319824,10.4151855 L20.8319824,7.19560547 L23.7632324,9.47353516 L16.814502,14.8693848 C16.6949707,14.9599609 16.6333008,15.1078125 16.653125,15.2564941 C16.6729492,15.4051758 16.7711426,15.5317383 16.9102539,15.5878418 C17.0493652,15.6439453 17.2079102,15.6209961 17.3253418,15.5276855 L24.165332,10.2164551 L24.1654297,23.515625 Z" id="Shape" fill="#564531" fill-rule="nonzero"></path>
                    <path d="M17.4987305,9.99853516 L17.4987305,8.33188477 C17.4987305,5.57045898 15.2601563,3.33188477 12.4987305,3.33188477 C9.73730469,3.33188477 7.49873047,5.57045898 7.49873047,8.33188477 C7.49873047,11.0933105 9.73730469,13.3318848 12.4987305,13.3318848 C12.7288574,13.3318848 12.9153809,13.1453613 12.9153809,12.9152344 C12.9153809,12.6851074 12.7288574,12.498584 12.4987305,12.498584 C10.1975586,12.498584 8.33208008,10.6331055 8.33208008,8.33193359 C8.33208008,6.03076172 10.1975586,4.1652832 12.4987305,4.1652832 C14.7999023,4.1652832 16.6653809,6.03076172 16.6653809,8.33193359 L16.6653809,9.99858398 C16.6653809,10.4588379 16.2922852,10.8319336 15.8320312,10.8319336 C15.3717773,10.8319336 14.9986816,10.4588379 14.9986816,9.99858398 L14.9986816,8.33193359 C14.9986816,8.10180664 14.8121582,7.9152832 14.5820312,7.9152832 C14.3519043,7.9152832 14.1653809,8.10180664 14.1653809,8.33193359 C14.1653809,9.25239258 13.4191895,9.99858398 12.4987305,9.99858398 C11.5782715,9.99858398 10.8320801,9.25239258 10.8320801,8.33193359 C10.8320801,7.41147461 11.5782715,6.6652832 12.4987305,6.6652832 C12.7288574,6.6652832 12.9153809,6.47875977 12.9153809,6.24863281 C12.9153809,6.01850586 12.7288574,5.83198242 12.4987305,5.83198242 C11.379834,5.82949219 10.3955078,6.57075195 10.0888672,7.64682617 C9.78222656,8.72290039 10.2278809,9.87167969 11.1800293,10.459375 C12.1321777,11.0470703 13.3588379,10.9305664 14.1833008,10.1740723 C14.2740234,11.0552246 15.0398926,11.7104004 15.9244629,11.6635742 C16.809082,11.6166992 17.5015137,10.884375 17.4987305,9.99853516 Z" id="Path" fill="#77BE32"></path>
                </g>
            </g>
        </g>
    </g>
</svg>