<?xml version="1.0" encoding="UTF-8"?>
<svg width="154px" height="84px" viewBox="0 0 154 84" version="1.1" xmlns="http://www.w3.org/2000/svg" xmlns:xlink="http://www.w3.org/1999/xlink">
    <!-- Generator: Sketch 53.2 (72643) - https://sketchapp.com -->
    <title>Моточки Клубочки</title>
    <desc>Created with Sketch.</desc>
    <g id="Page-1" stroke="none" stroke-width="1" fill="none" fill-rule="evenodd">
        <g id="Главная-Итоговая" transform="translate(-150.000000, -4094.000000)" fill="#564531">
            <g id="footer" transform="translate(0.000000, 4032.000000)">
                <g id="logo" transform="translate(150.000000, 62.000000)">
                    <g id="Group-43">
                        <path d="M3.37152647,31.473525 C2.21923261,31.473525 0.512130602,30.9652042 0,30.3298033 C1.66442446,27.6611195 2.00584486,17.1981846 2.00584486,13.7246596 C2.00584486,8.93797277 2.34726526,4.36308623 4.26775502,1.22844175 C4.43846522,0.931921331 5.20666112,0 6.91376313,0 C8.53551004,0 10.3706447,0.80484115 12.333812,7.49773071 C13.9555589,12.9621785 15.748016,18.214826 15.748016,18.214826 C15.748016,18.2571861 20.4852241,3.0075643 25.3077873,3.0075643 C26.1613383,3.0075643 27.1855995,3.55824508 28.081828,5.42208775 C29.3621545,8.0484115 29.4048321,16.0121029 29.4048321,19.612708 C29.4048321,25.3736762 29.4901872,28.1270802 30.3437382,29.9062027 C29.9169627,30.8381241 28.6793137,31.3888048 27.4843423,31.3888048 C24.4969138,31.3888048 24.0701383,29.1437216 24.0701383,24.6535552 C24.0701383,19.0620272 24.3688812,15.9273828 24.3688812,10.6747352 C24.3688812,10.2511346 24.3262036,9.99697428 24.1554934,9.99697428 C23.8567506,9.99697428 23.8567506,10.4205749 22.8324894,12.623298 C20.9973547,16.6051437 18.8634772,21.6036309 17.839216,22.366112 C17.1990527,22.8320726 16.4735344,23.086233 15.5773058,23.086233 C13.9555589,23.086233 12.7605875,22.3237519 12.0350692,20.8835098 C10.6693875,18.0877458 8.62086514,9.06505295 7.89534679,9.06505295 C7.85266924,9.06505295 7.72463659,8.93797277 7.59660394,8.93797277 C7.42589373,8.93797277 7.38321618,9.14977307 7.38321618,10.0393343 C7.46857128,12.8774584 7.59660394,16.1391831 7.59660394,19.2738275 C7.59660394,25.7125567 6.91376313,31.473525 3.37152647,31.473525 Z M42.3788073,12.71572 C46.7319175,12.71572 48.7804399,16.5281254 48.7804399,20.6794114 C48.7804399,25.5931784 45.8783665,31.0576262 40.2449298,31.1423463 C34.9529136,31.2270664 32.5629708,26.8216201 32.5629708,23.1362949 C32.5629708,20.0863705 34.0566851,17.3329666 36.7880483,17.3329666 L36.8734034,17.3329666 C37.2148238,14.2406822 39.4767339,12.71572 42.3788073,12.71572 Z M40.4583176,28.1270802 C42.6775502,28.1270802 43.5311012,24.0605144 43.5311012,21.2647504 C43.5311012,18.2995461 42.7629053,15.2919818 40.1168972,15.2919818 C39.092636,15.2919818 38.3671176,16.1815431 37.9830197,16.774584 C39.3060237,17.2405446 39.7754768,18.5113464 39.7754768,19.9092284 C39.7754768,20.5022693 39.6901217,21.0529501 39.562089,21.6036309 C38.4524727,22.0272315 37.8976646,23.4251135 37.8976646,24.8229955 C37.8976646,26.4750378 39.0072809,28.1270802 40.4583176,28.1270802 Z M57.9908355,15.1157704 C56.7418695,15.3553608 55.8551603,15.7707414 55.7225019,16.390207 C55.340956,18.1718859 49.6363979,17.4880419 50.1776607,14.9605441 C51.2335669,10.0298515 61.8514503,9.88811003 66.5964897,10.8891961 C68.3558863,11.2603854 69.040337,12.2276093 68.8362543,13.1806003 C68.6676642,13.9678538 67.8150038,15.0871558 66.5001022,15.5026466 C65.4356261,15.1982567 64.0450813,14.9925927 62.6178932,14.9065565 C63.0885823,16.13812 63.3296047,17.6156932 63.3296047,18.9002888 C63.3296047,19.3662495 63.3296047,19.8745702 63.2869272,20.3828909 C63.2869272,21.5070928 62.9028292,31.20011 60.9396619,31.20011 C59.8727232,31.20011 58.8484619,30.6070692 58.1656211,29.5480677 C58.2936538,28.7432265 58.9764946,23.9834961 58.9764946,20.5523312 C58.9764946,19.8745702 58.9897707,16.6722654 58.5497191,16.2162013 C58.2670013,15.9231961 58.0798207,15.5346108 57.9908355,15.1157704 Z M78.9224296,12.71572 C83.2755398,12.71572 85.3240622,16.5281254 85.3240622,20.6794114 C85.3240622,25.5931784 82.4219888,31.0576262 76.7885521,31.1423463 C71.4965359,31.2270664 69.1065931,26.8216201 69.1065931,23.1362949 C69.1065931,20.0863705 70.6003074,17.3329666 73.3316706,17.3329666 L73.4170257,17.3329666 C73.7584461,14.2406822 76.0203562,12.71572 78.9224296,12.71572 Z M77.0019399,28.1270802 C79.2211725,28.1270802 80.0747235,24.0605144 80.0747235,21.2647504 C80.0747235,18.2995461 79.3065276,15.2919818 76.6605195,15.2919818 C75.6362583,15.2919818 74.9107399,16.1815431 74.526642,16.774584 C75.849646,17.2405446 76.3190991,18.5113464 76.3190991,19.9092284 C76.3190991,20.5022693 76.233744,21.0529501 76.1057113,21.6036309 C74.996095,22.0272315 74.4412869,23.4251135 74.4412869,24.8229955 C74.4412869,26.4750378 75.5509032,28.1270802 77.0019399,28.1270802 Z M104.587156,26.4326778 C105.056609,26.8139183 105.269997,27.4916793 105.269997,27.9576399 C105.269997,30.0332829 101.642405,31.8547655 98.7830096,31.8547655 C94.8139974,31.8547655 92.5094097,29.3131619 92.5094097,26.5173979 C92.5094097,22.9591528 94.6432872,20.0363086 95.6248709,18.3842663 C90.1621445,17.5370651 87.4307812,16.5627837 87.4307812,13.301059 C87.4307812,10.9712557 88.9244955,10.0816944 90.5462424,10.0816944 C91.8692465,10.0816944 94.003124,10.4205749 94.003124,12.3267776 C94.003124,13.0892587 93.7897362,13.6399395 93.2349281,14.5295008 C96.563777,15.2496218 102.069181,15.1649017 102.069181,17.4523449 C102.069181,19.7397882 98.270879,23.5521936 98.270879,26.602118 C98.270879,27.8729198 99.0817525,28.5083207 100.234046,28.5083207 C101.471695,28.5083207 103.178797,27.4916793 104.587156,26.4326778 Z M123.834732,27.6187595 C124.005442,28 124.005442,28.6354009 124.005442,28.9742814 C124.005442,30.3298033 122.597083,31.2617247 121.018013,31.2617247 C116.963646,31.2617247 115.171189,27.6611195 113.250699,23.5945537 L112.055728,24.2723147 C112.01305,25.1195159 111.970373,26.0937973 111.927695,27.2375189 C111.84234,28.9742814 111.372887,31.2617247 109.367042,31.2617247 C108.470813,31.2617247 107.617262,30.8804841 107.019777,30.4568835 C107.48923,28 107.873328,25.4583964 107.873328,22.366112 C107.873328,19.1891074 107.531907,16.0121029 106.763711,12.7927383 C108.342781,11.903177 109.281687,11.5642965 110.177916,11.5642965 C111.885018,11.5642965 112.610536,12.9621785 112.610536,15.7579425 C112.610536,17.7065053 112.482503,18.8502269 112.311793,20.7564297 C114.573703,19.0196672 117.134356,16.1391831 117.561132,12.4538578 C118.201295,12.1149773 119.268234,11.903177 119.993752,11.903177 C121.231401,11.903177 122.29834,12.4962179 122.29834,14.1482602 C122.29834,16.3933434 120.676593,18.6807867 116.707581,21.4341906 C117.262389,22.5355522 118.073262,23.7639939 119.097523,24.9924357 C120.463205,26.5597579 121.743532,27.2375189 123.834732,27.6187595 Z M141.930013,23.806354 C141.930013,26.3055976 142.570176,27.322239 144.106568,28.2118003 C143.978535,29.2284418 143.210339,30.4992436 141.545915,30.4992436 C140.180233,30.4992436 137.44887,29.7367625 136.766029,25.8396369 C135.101605,28.2118003 132.75434,30.4992436 129.937621,30.4992436 C127.376968,30.4992436 125.883254,28.9742814 125.883254,25.204236 C125.883254,23.7639939 126.011287,20.8411498 126.011287,17.8759455 C126.011287,15.9273828 125.925932,14.9531014 125.669866,13.6399395 C126.736805,13.4704992 127.803744,13.301059 128.828005,13.301059 C131.047238,13.301059 131.559368,14.4024206 131.559368,16.5204236 C131.559368,17.9606657 131.303303,21.3918306 131.303303,23.7639939 C131.303303,25.204236 131.516691,26.2208775 132.626307,26.2208775 C133.181115,26.2208775 134.376086,25.6701967 136.680674,22.1543116 C136.808707,20.3751891 137.022095,18.5113464 137.022095,16.9440242 C137.022095,15.7579425 136.936739,14.5295008 136.680674,13.6822995 C137.320837,13.5975794 137.961001,13.5128593 138.515809,13.5128593 C140.905752,13.5128593 142.271433,14.4024206 142.271433,18.1301059 C142.271433,19.2314675 141.930013,21.8154312 141.930013,23.806354 Z M23.5580077,68.623298 C23.6433628,69.0468986 23.6860404,69.4281392 23.6860404,69.8093797 C23.6860404,71.9273828 22.4057139,73.494705 19.1195425,73.494705 C14.0835916,73.494705 10.9681304,67.0983359 7.72463659,60.2360061 L7.16982843,60.5325265 L5.71879173,61.0832073 C5.54808153,64.9803328 5.33469377,68.2844175 5.24933867,70.1482602 C5.16398357,72.0544629 4.52382032,73.7065053 2.81671831,73.7065053 C1.87781221,73.7065053 1.15229386,73.494705 0.682840803,73.1981846 C0.512130602,72.6051437 0.213387751,55.322239 0.213387751,47.1891074 C0.213387751,44.4357035 1.53639181,42.5295008 4.13972237,42.5295008 C4.86524072,42.5295008 5.37737132,42.698941 5.97485703,43.0378215 C6.18824478,43.9697428 5.97485703,46.2995461 5.97485703,51.086233 L5.97485703,52.1452345 C5.97485703,53.8396369 5.93217948,55.5340393 5.88950193,57.1860817 C9.17567329,55.279879 14.9798201,50.366112 15.7053385,43.9697428 C16.601567,43.5037821 17.7111833,43.2072617 18.7354445,43.2072617 C20.4425465,43.2072617 21.3814526,44.0121029 21.3814526,46.2995461 C21.3814526,49.7730711 18.8207996,53.3736762 11.5229386,57.9909228 C12.5045222,59.7700454 13.6141385,61.6762481 15.3639181,63.709531 C17.5831507,66.3358548 20.1438037,67.9878971 23.5580077,68.623298 Z M25.3349457,70.3177005 C26.1031416,70.1482602 26.9566926,69.6822995 27.1274028,69.5975794 C28.7064722,68.2844175 29.8160885,63.9636914 32.3767415,58.5839637 C33.5290353,56.1694402 35.4922027,54.8986384 37.3273373,54.8986384 C38.2662434,54.8986384 39.7599577,55.1527988 41.0829617,55.7881997 C40.869574,57.4826021 40.6988638,59.5582451 40.6988638,61.633888 C40.6988638,65.5733737 41.339027,69.6399395 43.5582596,71.9697428 C43.3875494,73.0287443 41.8511576,73.8335855 40.5708311,73.8335855 C36.601819,73.8335855 36.1323659,68.4114977 36.1323659,65.9969743 C36.1323659,64.5143722 36.2603986,63.4130106 36.2603986,61.2102874 C36.2603986,60.4478064 36.1750435,59.8547655 35.9616557,59.8124054 C35.5775578,59.8547655 34.7666843,62.98941 33.2302925,66.9288956 C31.9926435,70.1482602 30.9683823,73.8335855 27.8955987,73.8335855 C25.8470763,73.8335855 25.2495906,72.6898638 25.2495906,71.3343419 C25.2495906,70.9954614 25.2922682,70.6565809 25.3349457,70.3177005 Z M58.1811403,54.6868381 C60.8698259,54.6868381 61.339279,56.677761 61.339279,58.9228442 C61.339279,62.9470499 56.7727811,84 48.5786915,84 C45.2498425,84 44.6523568,82.4326778 44.6950344,81.0347958 C44.6950344,80.2299546 44.8657446,79.1709531 45.3351976,79.1709531 C45.7192956,79.1709531 46.1460711,79.5945537 47.1276548,79.5945537 C50.5845363,79.5945537 53.9560628,72.2239032 53.9987403,71.7579425 C54.3828383,70.698941 54.6815811,69.6399395 54.980324,68.5385779 C53.9560628,69.8517398 52.5903812,70.9107413 51.0539894,70.9107413 C47.9812058,70.9107413 46.2314262,64.4720121 45.7192956,62.1422088 C45.207165,59.8547655 44.0975487,57.1013616 43.0732875,56.1694402 C43.0732875,56.1694402 45.207165,55.0257186 46.9996221,55.0257186 C48.0665609,55.0257186 49.005467,55.4493192 49.5602751,56.720121 C50.5845363,59.2617247 51.0113118,67.3101362 53.0171567,67.3101362 C53.7853526,67.3101362 55.0656791,65.9546142 55.9192301,63.709531 L55.9619076,63.709531 C56.1752954,62.1845688 56.303328,60.6172466 56.303328,59.0075643 C56.303328,57.6520424 56.2179729,56.3388805 55.9619076,55.0680787 C56.9008137,54.8139183 57.4982994,54.6868381 58.1811403,54.6868381 Z M77.0290983,58.075643 C77.7972942,59.473525 78.2240697,61.8456884 78.2240697,63.709531 C78.2240697,68.1996974 75.6634167,73.1558245 69.9873025,73.3252648 C65.1220618,73.3252648 62.6040864,69.4281392 62.6040864,65.3192133 C62.6040864,60.193646 65.4634822,56.5930408 69.1764291,55.3645991 C66.8291638,53.8396369 63.8417353,52.5688351 63.8417353,49.9848714 C63.8417353,44.9440242 71.9504699,42.6142209 75.7487718,42.6142209 C77.157131,42.6142209 77.8399718,43.419062 77.8399718,44.3933434 C77.8399718,45.1981846 77.3705187,46.4689864 76.4316126,47.1467474 C73.6148943,46.892587 68.3228781,48.3751891 68.3228781,50.2390318 C68.3228781,52.0605144 75.4073514,54.7291982 76.7303555,57.5249622 C76.8157106,57.7367625 76.9437432,57.9062027 77.0290983,58.075643 Z M70.414078,70.2329803 C72.1211801,70.2329803 72.9320535,67.1406959 72.9320535,64.0907716 C72.9320535,61.0832073 72.1638576,58.1603631 70.8835311,58.1603631 C69.1764291,58.1603631 68.2802005,62.0574887 68.2802005,64.5567322 C68.2802005,67.183056 68.9203638,70.2329803 70.414078,70.2329803 Z M89.9021994,54.3055976 C94.2553095,54.3055976 96.3038319,58.118003 96.3038319,62.269289 C96.3038319,67.183056 93.4017585,72.6475038 87.7683219,72.7322239 C82.4763056,72.816944 80.0863628,68.4114977 80.0863628,64.7261725 C80.0863628,61.6762481 81.5800771,58.9228442 84.3114403,58.9228442 L84.3967954,58.9228442 C84.7382158,55.8305598 87.000126,54.3055976 89.9021994,54.3055976 Z M87.9817096,70.4871407 C90.2009422,70.4871407 91.0544932,66.4205749 91.0544932,63.6248109 C91.0544932,60.6596067 90.2862973,57.6520424 87.6402892,57.6520424 C86.616028,57.6520424 85.8905097,58.5416036 85.5064117,59.1346445 C86.8294158,59.6006051 87.2988688,60.871407 87.2988688,62.269289 C87.2988688,62.8623298 87.2135137,63.4130106 87.0854811,63.9636914 C85.9758648,64.387292 85.4210566,65.785174 85.4210566,67.183056 C85.4210566,68.8350983 86.5306729,70.4871407 87.9817096,70.4871407 Z M114.170206,68.7927383 C114.639659,69.1739788 114.853047,69.8517398 114.853047,70.3177005 C114.853047,72.3933434 111.225455,74.214826 108.36606,74.214826 C104.397047,74.214826 102.09246,71.6732224 102.09246,68.8774584 C102.09246,65.3192133 104.226337,62.3963691 105.207921,60.7443268 C99.7451944,59.8971256 97.0138312,58.9228442 97.0138312,55.6611195 C97.0138312,53.3313162 98.5075454,52.4417549 100.129292,52.4417549 C101.452296,52.4417549 103.586174,52.7806354 103.586174,54.6868381 C103.586174,55.4493192 103.372786,56 102.817978,56.8895613 C106.146827,57.6096823 111.652231,57.5249622 111.652231,59.8124054 C111.652231,62.0998487 107.853929,65.9122542 107.853929,68.9621785 C107.853929,70.2329803 108.664802,70.8683812 109.817096,70.8683812 C111.054745,70.8683812 112.761847,69.8517398 114.170206,68.7927383 Z M133.572973,69.97882 C133.743683,70.3600605 133.743683,70.9954614 133.743683,71.3343419 C133.743683,72.6898638 132.335324,73.6217852 130.756254,73.6217852 C126.701887,73.6217852 124.90943,70.02118 122.98894,65.9546142 L121.793969,66.6323752 C121.751291,67.4795764 121.708614,68.4538578 121.665936,69.5975794 C121.580581,71.3343419 121.111128,73.6217852 119.105283,73.6217852 C118.209054,73.6217852 117.355503,73.2405446 116.758018,72.816944 C117.227471,70.3600605 117.611569,67.8184569 117.611569,64.7261725 C117.611569,61.5491679 117.270148,58.3721634 116.501952,55.1527988 C118.081022,54.2632375 119.019928,53.924357 119.916157,53.924357 C121.623259,53.924357 122.348777,55.322239 122.348777,58.118003 C122.348777,60.0665658 122.220744,61.2102874 122.050034,63.1164902 C124.311944,61.3797277 126.872597,58.4992436 127.299373,54.8139183 C127.939536,54.4750378 129.006475,54.2632375 129.731993,54.2632375 C130.969642,54.2632375 132.036581,54.8562784 132.036581,56.5083207 C132.036581,58.7534039 130.414834,61.0408472 126.445822,63.7942511 C127.00063,64.8956127 127.811503,66.1240545 128.835764,67.3524962 C130.201446,68.9198185 131.481773,69.5975794 133.572973,69.97882 Z M151.823445,66.1664145 C151.823445,68.6656581 152.463608,69.6822995 154,70.5718608 C153.871967,71.5885023 153.103771,72.8593041 151.439347,72.8593041 C150.073665,72.8593041 147.342302,72.096823 146.659461,68.1996974 C144.995037,70.5718608 142.647772,72.8593041 139.831053,72.8593041 C137.2704,72.8593041 135.776686,71.3343419 135.776686,67.5642965 C135.776686,66.1240545 135.904719,63.2012103 135.904719,60.2360061 C135.904719,58.2874433 135.819364,57.3131619 135.563298,56 C136.630237,55.8305598 137.697176,55.6611195 138.721437,55.6611195 C140.94067,55.6611195 141.4528,56.7624811 141.4528,58.8804841 C141.4528,60.3207262 141.196735,63.7518911 141.196735,66.1240545 C141.196735,67.5642965 141.410123,68.580938 142.519739,68.580938 C143.074547,68.580938 144.269519,68.0302572 146.574106,64.5143722 C146.702139,62.7352496 146.915527,60.871407 146.915527,59.3040847 C146.915527,58.118003 146.830172,56.8895613 146.574106,56.0423601 C147.21427,55.9576399 147.854433,55.8729198 148.409241,55.8729198 C150.799184,55.8729198 152.164865,56.7624811 152.164865,60.4901664 C152.164865,61.591528 151.823445,64.1754917 151.823445,66.1664145 Z" id="Моточки-Клубочки"></path>
                    </g>
                </g>
            </g>
        </g>
    </g>
</svg>