<?xml version="1.0" encoding="UTF-8"?>
<svg width="23px" height="22px" viewBox="0 0 23 22" version="1.1" xmlns="http://www.w3.org/2000/svg" xmlns:xlink="http://www.w3.org/1999/xlink">
    <!-- Generator: Sketch 52.2 (67145) - http://www.bohemiancoding.com/sketch -->
    <title>Star</title>
    <desc>Created with Sketch.</desc>
    <g id="Page-1" stroke="none" stroke-width="1" fill="none" fill-rule="evenodd">
        <g id="Детальная" transform="translate(-636.000000, -469.000000)" fill-rule="nonzero" stroke="#564531">
            <g id="Group-35" transform="translate(635.000000, 368.000000)">
                <g id="Group-34" transform="translate(0.000000, 94.000000)">
                    <g id="Group-2">
                        <g id="favorites" transform="translate(0.000000, 6.000000)">
                            <g id="Star-2">
                                <path d="M12.5,18.375 L7.09602129,21.4918537 C6.61760854,21.7677879 6.00608951,21.6036466 5.73015531,21.1252338 C5.60683902,20.9114289 5.56694882,20.6595721 5.61816023,20.4181248 L6.91254297,14.3154748 L2.27831772,10.1391464 C1.86805103,9.76941722 1.8351889,9.13710561 2.20491811,8.72683892 C2.37015183,8.54348881 2.59735511,8.42772296 2.84281041,8.40181656 L9.04676164,7.74702516 L11.5866316,2.04905858 C11.8114856,1.54461916 12.4026948,1.3179704 12.9071342,1.54282439 C13.1325705,1.64331269 13.3128801,1.82362224 13.4133684,2.04905858 L15.9532384,7.74702516 L22.1571896,8.40181656 C22.7064237,8.45978506 23.1046731,8.95202003 23.0467046,9.50125413 C23.0207982,9.74670943 22.9050324,9.97391271 22.7216823,10.1391464 L18.087457,14.3154748 L19.3818398,20.4181248 C19.4964311,20.9583907 19.1513537,21.4892574 18.6110878,21.6038487 C18.3696404,21.6550602 18.1177836,21.61517 17.9039787,21.4918537 L12.5,18.375 Z" id="Star"></path>
                            </g>
                        </g>
                    </g>
                </g>
            </g>
        </g>
    </g>
</svg>