<svg width="35" height="28" viewBox="0 0 35 28" fill="none" xmlns="http://www.w3.org/2000/svg">
<rect x="0.4" y="0.4" width="27.475" height="17.9441" rx="2.6" stroke="#564531" stroke-width="0.8"/>
<path d="M0.0983887 6.41106H28.1991" stroke="#564531" stroke-width="4"/>
<rect x="7.03501" y="8.69382" width="27.475" height="17.9441" rx="2.6" fill="white" stroke="#564531" stroke-width="0.8"/>
<path fill-rule="evenodd" clip-rule="evenodd" d="M18.2464 21.2322C20.1702 21.2322 21.7298 19.6726 21.7298 17.7488C21.7298 15.825 20.1702 14.2654 18.2464 14.2654C16.3225 14.2654 14.7629 15.825 14.7629 17.7488C14.7629 19.6726 16.3225 21.2322 18.2464 21.2322Z" fill="white" stroke="#77BE32" stroke-width="0.8"/>
<path fill-rule="evenodd" clip-rule="evenodd" d="M23.5545 21.2322C25.4783 21.2322 27.0379 19.6726 27.0379 17.7488C27.0379 15.825 25.4783 14.2654 23.5545 14.2654C21.6306 14.2654 20.071 15.825 20.071 17.7488C20.071 19.6726 21.6306 21.2322 23.5545 21.2322Z" fill="white" stroke="#77BE32" stroke-width="0.8"/>
</svg>
