<?xml version="1.0" encoding="UTF-8"?>
<svg width="25px" height="25px" viewBox="0 0 25 25" version="1.1" xmlns="http://www.w3.org/2000/svg" xmlns:xlink="http://www.w3.org/1999/xlink">
    <!-- Generator: Sketch 52.2 (67145) - http://www.bohemiancoding.com/sketch -->
    <title>feedback</title>
    <desc>Created with Sketch.</desc>
    <g id="Page-1" stroke="none" stroke-width="1" fill="none" fill-rule="evenodd">
        <g id="Детальная" transform="translate(-1039.000000, -468.000000)" stroke="#564531">
            <g id="Group-35" transform="translate(635.000000, 368.000000)">
                <g id="Group-34" transform="translate(0.000000, 94.000000)">
                    <g id="Group-2">
                        <g id="feedback" transform="translate(394.000000, 0.000000)">
                            <g transform="translate(10.000000, 6.000000)">
                                <path d="M3,0.5 C1.61928813,0.5 0.5,1.61928813 0.5,3 L0.5,23.2347421 C0.5,23.3737752 0.557889847,23.5065303 0.659771662,23.6011362 C0.862125567,23.7890392 1.17849123,23.7773243 1.36639416,23.5749704 L5.58562751,19.03125 L22,19.03125 C23.3807119,19.03125 24.5,17.9119619 24.5,16.53125 L24.5,3 C24.5,1.61928813 23.3807119,0.5 22,0.5 L3,0.5 Z" id="Rectangle"></path>
                                <path d="M6.00425779,13.2231741 L13.28125,13.2231741" id="Path-21" stroke-linecap="round"></path>
                                <path d="M6.00425779,10.0981741 L16.40625,10.0981741" id="Path-21" stroke-linecap="round"></path>
                                <path d="M6.00425779,6.19192412 L19.53125,6.19192412" id="Path-21" stroke-linecap="round"></path>
                            </g>
                        </g>
                    </g>
                </g>
            </g>
        </g>
    </g>
</svg>