<svg width="12" height="12" viewBox="0 0 12 12" fill="none" xmlns="http://www.w3.org/2000/svg">
<path d="M10.909 5.45453C11.2103 5.45453 11.4545 5.69874 11.4545 5.99998C11.4545 6.30123 11.2103 6.54544 10.909 6.54544H1.09086C0.789618 6.54544 0.54541 6.30123 0.54541 5.99998C0.54541 5.69874 0.789618 5.45453 1.09086 5.45453H10.909Z" fill="#564531"/>
<path d="M6.54541 10.9091C6.54541 11.2104 6.3012 11.4546 5.99996 11.4546C5.69871 11.4546 5.4545 11.2104 5.4545 10.9091L5.4545 1.09093C5.4545 0.78968 5.69871 0.545471 5.99996 0.545471C6.3012 0.545471 6.54541 0.78968 6.54541 1.09093L6.54541 10.9091Z" fill="#564531"/>
</svg>
