<?xml version="1.0" encoding="UTF-8"?>
<svg width="41px" height="43px" viewBox="0 0 41 43" version="1.1" xmlns="http://www.w3.org/2000/svg" xmlns:xlink="http://www.w3.org/1999/xlink">
    <!-- Generator: Sketch 52.2 (67145) - http://www.bohemiancoding.com/sketch -->
    <title>zoom-in</title>
    <desc>Created with Sketch.</desc>
    <g id="Page-1" stroke="none" stroke-width="1" fill="none" fill-rule="evenodd">
        <g id="Детальная" transform="translate(-545.000000, -760.000000)" fill="#564531">
            <g id="Group-46" transform="translate(150.000000, 367.000000)">
                <g id="Фото-товара">
                    <g id="zoom-in" transform="translate(395.000000, 393.000000)">
                        <path d="M22.1875,16.6875 L17.3125,16.6875 L17.3125,11.8125 C17.3125,11.364 16.9485,11 16.5,11 C16.0515,11 15.6875,11.364 15.6875,11.8125 L15.6875,16.6875 L10.8125,16.6875 C10.364,16.6875 10,17.0515 10,17.5 C10,17.9485 10.364,18.3125 10.8125,18.3125 L15.6875,18.3125 L15.6875,23.1875 C15.6875,23.636 16.0515,24 16.5,24 C16.9485,24 17.3125,23.636 17.3125,23.1875 L17.3125,18.3125 L22.1875,18.3125 C22.636,18.3125 23,17.9485 23,17.5 C23,17.0515 22.636,16.6875 22.1875,16.6875 Z" id="Path"></path>
                        <path d="M40.7759519,41.6255522 L28.8304092,29.0801646 C31.8772904,25.9943549 33.7649096,21.7403051 33.7649096,17.0486727 C33.7649096,7.64754748 26.1919227,0 16.8824548,0 C7.57298687,0 0,7.64754748 0,17.0486727 C0,26.449798 7.57298687,34.0973455 16.8824548,34.0973455 C20.9688128,34.0973455 24.7191295,32.6222294 27.642206,30.1745271 L39.61669,42.7507646 C39.7742596,42.9171922 39.9848883,43 40.196321,43 C40.3973026,43 40.5974802,42.9244987 40.753442,42.7734962 C41.0734047,42.4625609 41.0830518,41.9486652 40.7759519,41.6255522 Z M1.60785284,17.0486727 C1.60785284,8.54300872 8.45971771,1.62368312 16.8824548,1.62368312 C25.3051919,1.62368312 32.1570568,8.54300872 32.1570568,17.0486727 C32.1570568,25.5543367 25.3051919,32.4736623 16.8824548,32.4736623 C8.45971771,32.4736623 1.60785284,25.5543367 1.60785284,17.0486727 Z" id="Shape" fill-rule="nonzero"></path>
                    </g>
                </g>
            </g>
        </g>
    </g>
</svg>