<?xml version="1.0" encoding="UTF-8"?>
<svg width="35px" height="21px" viewBox="0 0 35 21" version="1.1" xmlns="http://www.w3.org/2000/svg" xmlns:xlink="http://www.w3.org/1999/xlink">
    <!-- Generator: Sketch 52.2 (67145) - http://www.bohemiancoding.com/sketch -->
    <title>vk</title>
    <desc>Created with Sketch.</desc>
    <g id="Page-1" stroke="none" stroke-width="1" fill="none" fill-rule="evenodd">
        <g id="Контакты" transform="translate(-150.000000, -666.000000)">
            <g id="Group-10" transform="translate(150.000000, 464.000000)">
                <g id="Group-6" transform="translate(0.000000, 201.000000)">
                    <g id="vk" transform="translate(0.000000, 1.000000)">
                        <path d="M33.4448242,15.7008496 C32.6835059,14.788457 31.8234082,13.9738184 30.991543,13.1859766 C30.6992383,12.9090527 30.3968164,12.6226953 30.1056055,12.3383887 C30.1055371,12.3383203 30.1054688,12.338252 30.1054004,12.3381836 C29.7137012,11.956123 29.5219531,11.6849414 29.5019238,11.4846484 C29.4822363,11.2877734 29.6167676,10.9956738 29.9262305,10.563916 C30.3889551,9.91450195 30.882168,9.26399414 31.3593164,8.63495117 C31.783418,8.07577148 32.221875,7.49751953 32.6421484,6.91598633 L32.7364844,6.78541992 C33.5564551,5.65051758 34.404248,4.47699219 34.8585645,3.04691406 C34.9883105,2.63689453 35.1230469,2.03013672 34.7980664,1.49748047 C34.4729492,0.9646875 33.8702246,0.806777344 33.4454395,0.734453125 C33.2379688,0.69890625 33.0410938,0.695966797 32.8578906,0.695966797 L27.5391211,0.69125 C26.6195508,0.6759375 25.9816211,1.11179688 25.6339453,1.98707031 C25.3557227,2.68611328 25.0271191,3.49624023 24.6464258,4.26473633 C23.9180566,5.74833984 22.9925391,7.45711914 21.6510547,8.88083984 L21.5914453,8.94427734 C21.5001172,9.04175781 21.3508887,9.20117188 21.2742578,9.23774414 C21.1289258,9.14641602 20.9612402,8.62408203 20.9688965,8.35043945 C20.9691016,8.34367188 20.9691699,8.33697266 20.9691699,8.33027344 L20.9644531,2.18456055 C20.9644531,2.15332031 20.9622656,2.12208008 20.9580957,2.09111328 C20.8388086,1.21433594 20.60625,0.335371094 19.2185547,0.0615234375 C19.1740527,0.0527050781 19.1287988,0.0483300781 19.0835449,0.0483300781 L13.5508789,0.0483300781 C12.5099707,0.0483300781 11.9594043,0.525 11.5180078,1.04179688 C11.3902441,1.19246094 11.0507715,1.5925 11.2237207,2.08154297 C11.3987207,2.57639648 11.920166,2.67517578 12.0913379,2.70757813 C12.6942676,2.82201172 13.0060547,3.1627832 13.1025781,3.81424805 C13.2933691,5.08005859 13.316748,6.43418945 13.1762695,8.07365234 C13.1370996,8.51381836 13.0642285,8.84836914 12.9466504,9.1265918 C12.9141113,9.20363281 12.8855371,9.25134766 12.8655762,9.27944336 C12.8337207,9.2665918 12.7841602,9.24198242 12.7155273,9.19501953 C12.2918359,8.90510742 11.9725293,8.45441406 11.66375,8.01869141 C10.4304102,6.27737305 9.39298828,4.35415039 8.49180664,2.13828125 C8.12068359,1.23026367 7.42300781,0.723105469 6.52859375,0.709980469 C4.82453125,0.681611328 3.24850586,0.682294922 1.71206055,0.712167969 C0.987382813,0.724746094 0.479199219,0.952861328 0.201386719,1.39029297 C-0.0767675781,1.82854492 -0.0665820312,2.38731445 0.231738281,3.05135742 C2.36427734,7.79344727 4.300625,11.2431348 6.51,14.2368652 C8.0656543,16.3445215 9.63163086,17.8075488 11.4381641,18.8411426 C13.3362305,19.9270312 15.4768359,20.459209 17.9601953,20.4591406 C18.2425879,20.4591406 18.5299023,20.4522363 18.8210449,20.4383594 C20.3531836,20.3685645 20.9765527,19.7591406 21.0445703,18.2669238 C21.0827148,17.4782617 21.1704883,16.839375 21.4750293,16.2842969 C21.5602051,16.128916 21.6563184,16.0247363 21.7320605,16.0056641 C21.8125879,15.9855664 21.9553906,16.0348535 22.1141895,16.1380078 C22.4045117,16.326543 22.654502,16.582207 22.8600586,16.8066309 C23.068418,17.0347461 23.2789648,17.2703809 23.4827441,17.4982227 C23.9163477,17.9833691 24.3647168,18.4850586 24.8344824,18.9635742 C25.8969922,20.0466602 27.1218555,20.5433594 28.4765332,20.4393164 L33.3440625,20.4415723 C33.3441992,20.4415723 33.3442676,20.4415723 33.3443359,20.4415723 C33.3597852,20.4415723 33.3752344,20.4410938 33.3906836,20.4400684 C33.9521191,20.4026758 34.4375391,20.0918457 34.7225977,19.5870801 C35.0658301,18.9792285 35.0606348,18.2092969 34.7084473,17.5267285 C34.3409473,16.8170898 33.8641406,16.2062988 33.4448242,15.7008496 Z M33.5084668,18.9015039 C33.4413379,19.0203809 33.3585547,19.0420508 33.3158301,19.0472461 L28.4493262,19.0449902 C28.4491895,19.0449902 28.4490527,19.0449902 28.4488477,19.0449902 C28.4296387,19.0449902 28.4104297,19.0457422 28.3913574,19.0473828 C27.4326172,19.1272266 26.6177051,18.7902148 25.8296582,17.9869922 C25.3826562,17.531582 24.945293,17.042334 24.5223535,16.5691504 C24.31625,16.3385742 24.1031738,16.1000684 23.8890723,15.8657324 C23.6235645,15.575752 23.2953711,15.2425 22.8736621,14.9686523 C22.2422949,14.5588379 21.7190723,14.5712109 21.3914258,14.6537891 C21.0671973,14.7354785 20.6063184,14.968584 20.2525586,15.6141699 C19.7942773,16.4494531 19.6931738,17.3505664 19.6520215,18.2018457 C19.6282324,18.7224707 19.5401855,18.8600098 19.5034082,18.8949414 C19.4552148,18.9407422 19.2941602,19.0212695 18.7567871,19.0458105 C16.1744434,19.1672168 14.0073145,18.7047656 12.1306445,17.6310449 C10.4980859,16.6969824 9.06855469,15.355293 7.63198242,13.4090332 C5.48378906,10.4983594 3.59365234,7.12769531 1.50356445,2.47994141 C1.42782227,2.31157227 1.40444336,2.20650391 1.39767578,2.15024414 C1.45099609,2.13274414 1.55517578,2.10970703 1.73783203,2.10635742 C3.25869141,2.07689453 4.81824219,2.07607422 6.50692383,2.10423828 C6.73811523,2.10765625 7.00136719,2.17704102 7.20070312,2.66478516 C8.14228516,4.98004883 9.22995117,6.99494141 10.5260449,8.82478516 C10.870166,9.31047852 11.2985059,9.91504883 11.9280273,10.3457812 C12.5046387,10.740625 12.9725586,10.7217578 13.2636328,10.6364453 C13.5548437,10.5510645 13.9589844,10.3138574 14.2311914,9.66936523 C14.4068066,9.25394531 14.5129687,8.78616211 14.5655371,8.19512695 C14.7157227,6.44150391 14.6890625,4.98353516 14.4817969,3.60834961 C14.3357129,2.62308594 13.8269824,1.91132812 13.0256055,1.54786133 C13.1679297,1.47375977 13.3283008,1.44286133 13.5510156,1.44286133 L19.0113574,1.44286133 C19.3185645,1.51176758 19.3794043,1.59270508 19.4002539,1.62039062 C19.4887109,1.73803711 19.5392969,2.01632812 19.5701953,2.2337793 L19.5748437,8.32282227 C19.5625391,8.90654297 19.8462305,10.2011328 20.8121484,10.556123 C20.8200781,10.5590625 20.8280762,10.5617969 20.8360742,10.5643945 C21.7154492,10.8517773 22.2971191,10.2310059 22.6093848,9.89748047 L22.6650293,9.83828125 C24.1344824,8.27866211 25.1239844,6.45633789 25.8970605,4.88167969 C26.2999707,4.06854492 26.6412207,3.22745117 26.9297656,2.50243164 C27.0741406,2.13882812 27.2055273,2.07894531 27.5190234,2.08557617 C27.5233301,2.08571289 27.5275684,2.08571289 27.5319434,2.08571289 L32.8574805,2.09042969 C32.9813477,2.09042969 33.1106152,2.09186523 33.2108984,2.10902344 C33.4646484,2.15222656 33.5691699,2.20486328 33.603623,2.22666992 C33.6071777,2.26707031 33.6063574,2.38328125 33.5296582,2.62582031 C33.1433594,3.84186523 32.3968066,4.87504883 31.6065039,5.96893555 L31.5120996,6.09970703 C31.1014648,6.66791016 30.6678613,7.23959961 30.2486133,7.79255859 C29.7653125,8.42973633 29.2657422,9.08851562 28.7920801,9.75337891 C27.7794043,11.1662988 27.8684082,12.103916 29.132168,13.3365723 C29.4308301,13.628125 29.7369434,13.9181055 30.0330762,14.1985156 C30.8725977,14.9937402 31.6656348,15.7448047 32.3733594,16.5928711 C32.7438672,17.0395312 33.1638672,17.5759473 33.4699805,18.1671191 C33.629668,18.476582 33.590498,18.7561719 33.5084668,18.9015039 Z" id="Shape" fill="#564531" fill-rule="nonzero"></path>
                        <path d="M5.08470703,4.35004883 C4.98230469,4.14743164 4.88079102,3.94426758 4.78023438,3.74069336 C4.60960938,3.39554687 4.19179688,3.25376953 3.84637695,3.42439453 C3.50116211,3.59495117 3.35952148,4.01303711 3.53007813,4.35825195 C3.63254883,4.5656543 3.73597656,4.77264648 3.84022461,4.97902344 C3.96292969,5.22183594 4.2084082,5.36183594 4.46297852,5.36183594 C4.56866211,5.36183594 4.67605469,5.33770508 4.77688477,5.28677734 C5.12066406,5.11300781 5.2584082,4.69369141 5.08470703,4.35004883 Z" id="Path" fill="#77BE32"></path>
                        <path d="M9.45772461,11.5828809 C8.31448242,10.0339258 7.24493164,8.3515332 6.1880957,6.43958984 C6.00181641,6.10257812 5.57757813,5.98048828 5.24063477,6.16669922 C4.90369141,6.35297852 4.78146484,6.7772168 4.96774414,7.11416016 C6.05438477,9.07990234 7.15613281,10.8125391 8.33587891,12.4109863 C8.47259766,12.5962402 8.68362305,12.6941992 8.89738281,12.6941992 C9.04121094,12.6941992 9.18626953,12.6499023 9.31082031,12.5578223 C9.62055664,12.3292285 9.68631836,11.8927539 9.45772461,11.5828809 Z" id="Path" fill="#77BE32"></path>
                    </g>
                </g>
            </g>
        </g>
    </g>
</svg>