<svg width="34" height="37" viewBox="0 0 34 37" fill="none" xmlns="http://www.w3.org/2000/svg">
<path fill-rule="evenodd" clip-rule="evenodd" d="M27.7104 12.0526C30.7625 12.0526 33.2367 9.57842 33.2367 6.52632C33.2367 3.47422 30.7625 1 27.7104 1C24.6583 1 22.1841 3.47422 22.1841 6.52632C22.1841 9.57842 24.6583 12.0526 27.7104 12.0526Z" stroke="#564531"/>
<path fill-rule="evenodd" clip-rule="evenodd" d="M27.7104 36C30.7625 36 33.2367 33.5258 33.2367 30.4737C33.2367 27.4216 30.7625 24.9474 27.7104 24.9474C24.6583 24.9474 22.1841 27.4216 22.1841 30.4737C22.1841 33.5258 24.6583 36 27.7104 36Z" stroke="#564531"/>
<path fill-rule="evenodd" clip-rule="evenodd" d="M6.52632 24.0263C9.57842 24.0263 12.0526 21.5521 12.0526 18.5C12.0526 15.4479 9.57842 12.9737 6.52632 12.9737C3.47422 12.9737 1 15.4479 1 18.5C1 21.5521 3.47422 24.0263 6.52632 24.0263Z" stroke="#564531"/>
<path d="M11.5244 16.2206L23.0268 9.53094" stroke="#564531"/>
<path d="M11.3643 21.2441L22.7628 27.8553" stroke="#564531"/>
<path d="M3.76318 17.7179C3.76318 17.7179 3.95266 16.592 4.30656 16.2261C4.66045 15.8603 5.67963 15.7368 5.67963 15.7368" stroke="#564531" stroke-linecap="round"/>
</svg>
