<?xml version="1.0" encoding="UTF-8"?>
<svg width="35px" height="35px" viewBox="0 0 35 35" version="1.1" xmlns="http://www.w3.org/2000/svg" xmlns:xlink="http://www.w3.org/1999/xlink">
    <!-- Generator: Sketch 52.2 (67145) - http://www.bohemiancoding.com/sketch -->
    <title>Group 4</title>
    <desc>Created with Sketch.</desc>
    <g id="Page-1" stroke="none" stroke-width="1" fill="none" fill-rule="evenodd">
        <g id="Контакты" transform="translate(-150.000000, -711.000000)" fill-rule="nonzero">
            <g id="Group-10" transform="translate(150.000000, 464.000000)">
                <g id="Group-7" transform="translate(0.000000, 247.000000)">
                    <g id="Group-4">
                        <path d="M4,1.3 C2.50883118,1.3 1.3,2.50883118 1.3,4 L1.3,31 C1.3,32.4911688 2.50883118,33.7 4,33.7 L31,33.7 C32.4911688,33.7 33.7,32.4911688 33.7,31 L33.7,4 C33.7,2.50883118 32.4911688,1.3 31,1.3 L4,1.3 Z M4,0 L31,0 C33.209139,-4.05812251e-16 35,1.790861 35,4 L35,31 C35,33.209139 33.209139,35 31,35 L4,35 C1.790861,35 2.705415e-16,33.209139 0,31 L0,4 C-2.705415e-16,1.790861 1.790861,4.05812251e-16 4,0 Z" id="Rectangle" fill="#564531"></path>
                        <path d="M17.5,26.1045455 C12.7478408,26.1045455 8.89545455,22.2521592 8.89545455,17.5 C8.89545455,12.7478408 12.7478408,8.89545455 17.5,8.89545455 C22.2521592,8.89545455 26.1045455,12.7478408 26.1045455,17.5 C26.1045455,22.2521592 22.2521592,26.1045455 17.5,26.1045455 Z M17.5,24.8045455 C21.5341891,24.8045455 24.8045455,21.5341891 24.8045455,17.5 C24.8045455,13.4658109 21.5341891,10.1954545 17.5,10.1954545 C13.4658109,10.1954545 10.1954545,13.4658109 10.1954545,17.5 C10.1954545,21.5341891 13.4658109,24.8045455 17.5,24.8045455 Z" id="Oval" fill="#564531"></path>
                        <path d="M28.6363636,9.13484848 C27.1058654,9.13484848 25.8651515,7.89413456 25.8651515,6.36363636 C25.8651515,4.83313817 27.1058654,3.59242424 28.6363636,3.59242424 C30.1668618,3.59242424 31.4075758,4.83313817 31.4075758,6.36363636 C31.4075758,7.89413456 30.1668618,9.13484848 28.6363636,9.13484848 Z M28.6363636,7.83484848 C29.4488917,7.83484848 30.1075758,7.17616438 30.1075758,6.36363636 C30.1075758,5.55110835 29.4488917,4.89242424 28.6363636,4.89242424 C27.8238356,4.89242424 27.1651515,5.55110835 27.1651515,6.36363636 C27.1651515,7.17616438 27.8238356,7.83484848 28.6363636,7.83484848 Z" id="Oval" fill="#77BE32"></path>
                    </g>
                </g>
            </g>
        </g>
    </g>
</svg>