<svg width="25" height="27" viewBox="0 0 25 27" fill="none" xmlns="http://www.w3.org/2000/svg">
<path fill-rule="evenodd" clip-rule="evenodd" d="M20.0787 8.89474C22.2588 8.89474 24.0261 7.12744 24.0261 4.94737C24.0261 2.7673 22.2588 1 20.0787 1C17.8986 1 16.1313 2.7673 16.1313 4.94737C16.1313 7.12744 17.8986 8.89474 20.0787 8.89474Z" fill="#77BE32" stroke="white"/>
<path fill-rule="evenodd" clip-rule="evenodd" d="M20.0787 26C22.2588 26 24.0261 24.2327 24.0261 22.0527C24.0261 19.8726 22.2588 18.1053 20.0787 18.1053C17.8986 18.1053 16.1313 19.8726 16.1313 22.0527C16.1313 24.2327 17.8986 26 20.0787 26Z" fill="#77BE32" stroke="white"/>
<path fill-rule="evenodd" clip-rule="evenodd" d="M4.94737 17.4474C7.12744 17.4474 8.89474 15.6801 8.89474 13.5C8.89474 11.3199 7.12744 9.55264 4.94737 9.55264C2.7673 9.55264 1 11.3199 1 13.5C1 15.6801 2.7673 17.4474 4.94737 17.4474Z" fill="#77BE32" stroke="white"/>
<path fill-rule="evenodd" clip-rule="evenodd" d="M8.51758 11.8719L16.7336 7.09354L8.51758 11.8719Z" fill="#77BE32"/>
<path d="M8.51758 11.8719L16.7336 7.09354" stroke="#77BE32"/>
<path fill-rule="evenodd" clip-rule="evenodd" d="M8.40283 15.4601L16.5446 20.1824L8.40283 15.4601Z" fill="#77BE32"/>
<path d="M8.40283 15.4601L16.5446 20.1824" stroke="#77BE32"/>
<path d="M2.97363 12.9414C2.97363 12.9414 3.10897 12.1371 3.36176 11.8758C3.61454 11.6145 4.34252 11.5263 4.34252 11.5263" stroke="white" stroke-linecap="round"/>
</svg>
