<?xml version="1.0" encoding="UTF-8"?>
<svg width="25px" height="37px" viewBox="0 0 25 37" version="1.1" xmlns="http://www.w3.org/2000/svg" xmlns:xlink="http://www.w3.org/1999/xlink">
    <!-- Generator: Sketch 52.2 (67145) - http://www.bohemiancoding.com/sketch -->
    <title>Group</title>
    <desc>Created with Sketch.</desc>
    <g id="Page-1" stroke="none" stroke-width="1" fill="none" fill-rule="evenodd">
        <g id="Контакты" transform="translate(-155.000000, -468.000000)">
            <g id="Group-10" transform="translate(150.000000, 464.000000)">
                <g id="Group-2" transform="translate(5.000000, 0.000000)">
                    <g id="Group" transform="translate(0.000000, 4.000000)">
                        <path d="M9.30526107,28.6533881 C5.26072868,29.1811403 2.38461538,30.5421783 2.38461538,31.9615385 C2.38461538,33.7785593 7.09808384,35.5 12.9423077,35.5 C18.7865315,35.5 23.5,33.7785593 23.5,31.9615385 C23.5,30.4495722 20.2363396,29.0037868 15.7732511,28.5609454 C14.8744206,29.6205586 13.906263,30.7169764 12.8688274,31.8504096 L12.5,32.2533658 L12.1311726,31.8504096 C11.1238758,30.7499041 10.1818904,29.6842946 9.30526107,28.6533881 Z M8.54292544,27.745771 C3.18488431,21.2848187 0.5,16.2406375 0.5,12.562753 C0.5,5.90128577 5.87197206,0.5 12.5,0.5 C19.1280279,0.5 24.5,5.90128577 24.5,12.562753 C24.5,16.2197925 21.8454634,21.2276854 16.5479193,27.6360525 C21.1592735,28.2008704 24.5,29.8400416 24.5,31.9615385 C24.5,34.605279 19.3120735,36.5 12.9423077,36.5 C6.57254189,36.5 1.38461538,34.605279 1.38461538,31.9615385 C1.38461538,29.9638219 4.34688027,28.3937896 8.54292544,27.745771 Z M23.5,12.562753 C23.5,6.45235597 18.5745213,1.5 12.5,1.5 C6.42547869,1.5 1.5,6.45235597 1.5,12.562753 C1.5,16.5869692 5.16019185,22.684108 12.4999954,30.770588 C19.8398066,22.6841106 23.5,16.58697 23.5,12.562753 Z" id="Oval" fill="#564531" fill-rule="nonzero"></path>
                        <path d="M12.5,17.6538462 C9.77943649,17.6538462 7.57692308,15.4194123 7.57692308,12.6666667 C7.57692308,9.91392107 9.77943649,7.67948718 12.5,7.67948718 C15.2205635,7.67948718 17.4230769,9.91392107 17.4230769,12.6666667 C17.4230769,15.4194123 15.2205635,17.6538462 12.5,17.6538462 Z M12.5,16.6538462 C14.6650323,16.6538462 16.4230769,14.8703227 16.4230769,12.6666667 C16.4230769,10.4630107 14.6650323,8.67948718 12.5,8.67948718 C10.3349677,8.67948718 8.57692308,10.4630107 8.57692308,12.6666667 C8.57692308,14.8703227 10.3349677,16.6538462 12.5,16.6538462 Z" id="Oval" fill="#77BE32" fill-rule="nonzero"></path>
                        <path d="M14.9607484,5.05095208 C14.70603,4.94430716 14.5859927,4.65136429 14.6926377,4.39664587 C14.7992826,4.14192746 15.0922255,4.02189017 15.3469439,4.1285351 C16.8916111,4.77525283 18.0833779,5.50460007 18.9216709,6.32417126 C18.9631751,6.3647485 19.3430471,6.7220175 19.4726777,6.8508914 C19.7251527,7.10189266 19.9428499,7.34601934 20.1515288,7.62228411 C20.1587325,7.63183304 20.1587325,7.63183304 20.1659364,7.64143073 C20.5368948,8.13629171 20.7925303,8.65782748 21.2731989,9.79419292 C21.5122492,10.3593402 21.6978157,11.2907978 21.8431557,12.6119933 C21.873351,12.8864798 21.6753138,13.1334732 21.4008273,13.1636685 C21.1263407,13.1938638 20.8793473,12.9958266 20.849152,12.7213401 C20.7136947,11.4899824 20.5436256,10.6363142 20.3522021,10.1837632 C19.9046559,9.12570341 19.6701195,8.64721306 19.365791,8.24123691 C19.3596885,8.23310654 19.3596885,8.23310654 19.3535857,8.22501695 C19.1757435,7.98957599 18.9887494,7.77987998 18.7676437,7.56006493 C18.6502829,7.4433892 18.27454,7.09000363 18.2225939,7.03921761 C17.4847305,6.31783315 16.3976398,5.65254649 14.9607484,5.05095208 Z" id="Path-40" fill="#77BE32" fill-rule="nonzero"></path>
                        <circle id="Oval" fill="#77BE32" cx="13" cy="4.19230769" r="1"></circle>
                    </g>
                </g>
            </g>
        </g>
    </g>
</svg>