<svg width="37" height="25" viewBox="0 0 37 25" fill="none" xmlns="http://www.w3.org/2000/svg">
<path d="M18.2625 1.25116H1V21.0573H3.74194" stroke="#564531" stroke-width="0.8" stroke-linecap="round"/>
<path d="M1 19.5871H4.06452" stroke="#564531" stroke-width="0.8" stroke-linecap="round"/>
<path d="M10.3547 19.5871H27.9354" stroke="#564531" stroke-width="0.8" stroke-linecap="round"/>
<path d="M34.2258 19.5871H36" stroke="#564531" stroke-width="0.8" stroke-linecap="round"/>
<path d="M10.6775 21.0387H27.613" stroke="#564531" stroke-width="0.8" stroke-linecap="round"/>
<path d="M20.5161 1.23657H24.7864V15H1" stroke="#564531" stroke-width="0.8" stroke-linecap="round"/>
<path d="M24.7734 5.83337H30.8388L36 13.2258V21.1459H34.5407" stroke="#564531" stroke-width="0.8" stroke-linecap="round"/>
<path fill-rule="evenodd" clip-rule="evenodd" d="M7.20969 24.5161C9.12487 24.5161 10.6774 22.9636 10.6774 21.0484C10.6774 19.1332 9.12487 17.5806 7.20969 17.5806C5.2945 17.5806 3.74194 19.1332 3.74194 21.0484C3.74194 22.9636 5.2945 24.5161 7.20969 24.5161Z" stroke="#564531" stroke-width="0.8" stroke-linecap="round"/>
<path fill-rule="evenodd" clip-rule="evenodd" d="M31.0805 24.5161C32.9957 24.5161 34.5483 22.9636 34.5483 21.0484C34.5483 19.1332 32.9957 17.5806 31.0805 17.5806C29.1654 17.5806 27.6128 19.1332 27.6128 21.0484C27.6128 22.9636 29.1654 24.5161 31.0805 24.5161Z" stroke="#564531" stroke-width="0.8" stroke-linecap="round"/>
<path fill-rule="evenodd" clip-rule="evenodd" d="M7.20958 22.9032C8.23397 22.9032 9.06441 22.0728 9.06441 21.0484C9.06441 20.024 8.23397 19.1935 7.20958 19.1935C6.18518 19.1935 5.35474 20.024 5.35474 21.0484C5.35474 22.0728 6.18518 22.9032 7.20958 22.9032Z" stroke="#564531" stroke-width="0.8" stroke-linecap="round"/>
<path fill-rule="evenodd" clip-rule="evenodd" d="M31.0807 22.9032C32.1051 22.9032 32.9355 22.0728 32.9355 21.0484C32.9355 20.024 32.1051 19.1935 31.0807 19.1935C30.0563 19.1935 29.2258 20.024 29.2258 21.0484C29.2258 22.0728 30.0563 22.9032 31.0807 22.9032Z" stroke="#564531" stroke-width="0.8" stroke-linecap="round"/>
<path fill-rule="evenodd" clip-rule="evenodd" d="M27.1292 8.22583V13.2258H33.4411L29.9431 8.22583H27.1292Z" stroke="#564531" stroke-width="0.8" stroke-linecap="round"/>
<path d="M26.8064 15H28.418" stroke="#564531" stroke-width="0.8" stroke-linecap="round"/>
<path d="M4.06445 4.15315H8.18729" stroke="#77BE32" stroke-width="0.8" stroke-linecap="round"/>
<path d="M4.06445 5.76601H7.05826" stroke="#77BE32" stroke-width="0.8" stroke-linecap="round"/>
<path d="M4.06445 7.37892H6.57439" stroke="#77BE32" stroke-width="0.8" stroke-linecap="round"/>
<path fill-rule="evenodd" clip-rule="evenodd" d="M12.9355 12.9032C15.5187 12.9032 17.6129 10.8091 17.6129 8.22582C17.6129 5.64255 15.5187 3.5484 12.9355 3.5484C10.3522 3.5484 8.25806 5.64255 8.25806 8.22582C8.25806 10.8091 10.3522 12.9032 12.9355 12.9032Z" stroke="#77BE32" stroke-width="0.8" stroke-linecap="round"/>
<path d="M11.0642 6.79864L12.9354 8.22579L14.7627 5.70605" stroke="#77BE32" stroke-width="0.8" stroke-linecap="round"/>
<path d="M17.6143 8.22579H16.1614" stroke="#77BE32" stroke-width="0.8" stroke-linecap="round"/>
<path d="M9.71094 8.22579H8.25806" stroke="#77BE32" stroke-width="0.8" stroke-linecap="round"/>
<path d="M12.9355 12.8232V11.3704" stroke="#77BE32" stroke-width="0.8" stroke-linecap="round"/>
<path d="M12.9355 5.0813V3.62842" stroke="#77BE32" stroke-width="0.8" stroke-linecap="round"/>
</svg>
