<?xml version="1.0" encoding="UTF-8"?>
<svg width="50px" height="50px" viewBox="0 0 50 50" version="1.1" xmlns="http://www.w3.org/2000/svg" xmlns:xlink="http://www.w3.org/1999/xlink">
    <!-- Generator: Sketch 53.2 (72643) - https://sketchapp.com -->
    <title>knitting (1)</title>
    <desc>Created with Sketch.</desc>
    <g id="Page-1" stroke="none" stroke-width="1" fill="none" fill-rule="evenodd">
        <g id="Главная-Итоговая" transform="translate(-560.000000, -698.000000)" fill-rule="nonzero">
            <g id="advantages" transform="translate(158.000000, 691.000000)">
                <g id="2" transform="translate(402.000000, 2.000000)">
                    <g id="knitting-(1)" transform="translate(0.000000, 5.000000)">
                        <path d="M45.8580018,13.2743836 L45.8580018,6.65664668 C45.8580018,6.57730098 45.8450317,6.49833682 45.8198547,6.42280576 L43.8476563,0.505828906 C43.7469482,0.203704883 43.4642792,-8.8817842e-16 43.1461334,-8.8817842e-16 C42.8276063,-8.8817842e-16 42.5449371,0.203704883 42.4442291,0.505828906 L41.3448334,3.80363467 C40.0146484,3.17687988 37.0464325,2.1697998 31.7062378,2.1697998 C31.2976837,2.1697998 30.966568,2.50091553 30.966568,2.90908809 C30.966568,3.31764219 31.2976837,3.64875791 31.7062378,3.64875791 C37.0922089,3.64875791 39.8651123,4.71687314 40.8725738,5.22041318 L40.4720307,6.42280576 C40.4468536,6.49833682 40.4338837,6.57730098 40.4338837,6.65664668 L40.4338837,8.98361211 L39.0457153,9.28726191 C37.3023986,9.66873164 35.8997345,10.8966827 35.2333068,12.4763488 L28.4351349,12.4763488 L28.4351349,11.7851258 C28.4351349,11.3765717 28.1040191,11.045456 27.695465,11.045456 C27.2872925,11.045456 26.9557953,11.3765717 26.9557953,11.7851258 L26.9557953,12.4763488 L20.5787658,12.4763488 L20.5787658,11.7851258 C20.5787658,11.3765717 20.2476502,11.045456 19.8390961,11.045456 C19.430542,11.045456 19.0994263,11.3765717 19.0994263,11.7851258 L19.0994263,12.4763488 L12.7220154,12.4763488 L12.7220154,11.7851258 C12.7220154,11.3765717 12.3908996,11.045456 11.9823456,11.045456 C11.5737915,11.045456 11.2426758,11.3765717 11.2426758,11.7851258 L11.2426758,12.4763488 L8.5033417,12.4763488 C7.63015742,11.2499237 6.20384219,10.5037689 4.68444824,10.5037689 C2.1015167,10.5037689 2.84217094e-14,12.6052856 2.84217094e-14,15.1882172 C2.84217094e-14,17.7715302 2.1015167,19.8726654 4.68444824,19.8726654 C6.2030792,19.8726654 7.62939453,19.1268921 8.50296016,17.9004669 L11.2426758,17.9004669 L11.2426758,19.033432 L9.76333613,19.033432 C9.35478213,19.033432 9.02366641,19.3649292 9.02366641,19.7731018 L9.02366641,21.05484 C9.02366641,21.4633941 9.35478213,21.7945099 9.76333613,21.7945099 C10.1718902,21.7945099 10.503006,21.4633941 10.503006,21.05484 L10.503006,20.5127716 L37.1303559,20.5127716 L37.1303559,24.5067597 C37.1303559,25.1956939 36.5512848,25.6217957 36.0153198,25.6217957 C35.8242035,25.6217957 35.6395722,25.5714416 35.4663849,25.472641 C35.0753784,25.2490997 34.6309662,25.1312256 34.1808319,25.1312256 C33.6402893,25.1312256 33.1214904,25.296402 32.680893,25.6092071 L31.6265106,26.3572693 C31.4373017,26.4915467 31.2149048,26.5625 30.9829712,26.5625 C30.7628632,26.5625 30.5492401,26.4980316 30.3661347,26.3755799 L29.1065216,25.5359649 C28.6792755,25.2513886 28.1822205,25.100708 27.6687622,25.100708 C27.2335053,25.100708 26.802063,25.2113342 26.4205933,25.4211426 L24.3522645,26.5590668 C24.0249634,26.7391205 23.608017,26.7387391 23.2807159,26.5590668 L21.2127686,25.421524 C20.8312988,25.2117157 20.3994751,25.100708 19.9642182,25.100708 C19.4507599,25.100708 18.9537049,25.2513886 18.5264588,25.5359649 L17.2668457,26.3755799 C17.0837402,26.4980316 16.8704986,26.5625 16.6503906,26.5625 C16.4180756,26.5625 16.1956787,26.4915467 16.0064697,26.3572693 L14.9520874,25.6092071 C14.5114898,25.296402 13.992691,25.1312256 13.4525299,25.1312256 C13.0023956,25.1312256 12.557602,25.2490997 12.166977,25.472641 C11.9934082,25.5714416 11.8087769,25.6217957 11.6176605,25.6217957 C11.3327026,25.6217957 11.0492706,25.5065918 10.8394623,25.3055572 C10.6861114,25.1579285 10.503006,24.9000549 10.503006,24.5067597 C10.503006,24.0982056 10.1718902,23.7670898 9.76333613,23.7670898 C9.35478213,23.7670898 9.02366641,24.0982056 9.02366641,24.5067597 L9.02366641,36.0103607 C9.02366641,36.9445801 9.50622559,37.782669 10.3141785,38.2514953 C11.1225128,38.7207031 12.0891571,38.7237549 12.9009247,38.2602691 C13.2751465,38.0462646 13.7443543,38.0691528 14.0960693,38.3190155 L15.1504517,39.0670776 C16.0202026,39.6842957 17.2004699,39.7014618 18.0877686,39.1101837 L19.3470001,38.2701874 C19.6933746,38.0393982 20.1351166,38.0207062 20.4998017,38.2213593 L22.567749,39.3585205 C22.9587555,39.5736694 23.387909,39.6812439 23.8166809,39.6812439 C24.2454529,39.6812439 24.6742248,39.5736694 25.0648498,39.358902 L27.1335602,38.2209777 C27.4978638,38.0207062 27.9396057,38.0393982 28.2859803,38.2701874 L29.5455933,39.1101837 C30.4325104,39.7014618 31.6131592,39.6842957 32.4825287,39.0670776 L33.536911,38.3190155 C33.8890076,38.0691528 34.3578339,38.0462646 34.7324371,38.2602691 C35.5438232,38.7237549 36.5104676,38.7203217 37.3188019,38.2514953 C38.1271362,37.782669 38.609314,36.9445801 38.609314,36.0103607 L38.609314,19.7731018 C38.609314,19.3645478 38.2781982,19.033432 37.8696441,19.033432 L36.2918854,19.033432 L36.2918854,17.9004669 L40.4338837,17.9004669 L40.4338837,41.4970398 C39.2074585,42.3706055 38.4616852,43.7965393 38.4616852,45.3155518 C38.4616852,47.8984833 40.5628204,50 43.145752,50 C45.7286835,50 47.8302002,47.8984833 47.8302002,45.3155518 C47.8302002,43.7969208 47.0844269,42.3706055 45.8580018,41.4970398 L45.8580018,27.3670196 C45.8580018,26.9584656 45.5268859,26.6273498 45.1183319,26.6273498 C44.7097778,26.6273498 44.3786621,26.9584656 44.3786621,27.3670196 L44.3786621,41.8998719 C44.3786621,42.1638488 44.5194244,42.4079895 44.7479248,42.539978 C45.7366943,43.1125641 46.3508605,44.1757202 46.3508605,45.3155518 C46.3508605,47.082901 44.9131012,48.5206604 43.145752,48.5206604 C41.3784027,48.5206604 39.9406434,47.082901 39.9406434,45.3155518 C39.9406434,44.1757202 40.555191,43.1121826 41.5439605,42.539978 C41.7724609,42.4079895 41.9132232,42.1638488 41.9132232,41.8998719 L41.9132232,10.1741791 L44.3786621,9.63478086 L44.3786621,13.792038 L44.3786621,16.5821075 L44.3786621,23.9151001 C44.3786621,24.3236542 44.7097778,24.6547699 45.1183319,24.6547699 C45.5268859,24.6547699 45.8580018,24.3236542 45.8580018,23.9151001 L45.8580018,17.1020508 L49.4941711,15.8901215 C49.7962951,15.7894135 50,15.5067443 50,15.1882172 C50,14.8700714 49.7962951,14.5874023 49.4941711,14.4866943 L45.8580018,13.2743836 Z M12.9009247,26.7566681 C13.0683898,26.6609191 13.2591248,26.6101837 13.4525299,26.6101837 C13.6844635,26.6101837 13.9068604,26.6811371 14.0960693,26.8154145 L15.1504517,27.563858 C15.5910492,27.8762817 16.109848,28.0418396 16.6503906,28.0418396 C17.1634674,28.0418396 17.6605225,27.8911591 18.0877686,27.6065826 L19.3470001,26.7669678 C19.5304871,26.6448975 19.7437286,26.5800477 19.9642182,26.5800477 C20.1507568,26.5800477 20.3361512,26.6277313 20.4998017,26.7177582 L22.567749,27.8549194 C22.9496002,28.0651093 23.3814239,28.1757354 23.8166809,28.1757354 C24.2519379,28.1757354 24.6837616,28.0651093 25.0648498,27.8553009 L27.1335602,26.7173768 C27.2972107,26.6273498 27.4822235,26.5800477 27.6687622,26.5800477 C27.8892518,26.5800477 28.1024933,26.644516 28.2859803,26.7669678 L29.5455933,27.6065826 C29.9728394,27.8911591 30.4695129,28.0418396 30.9829712,28.0418396 C31.5235138,28.0418396 32.0419312,27.8762817 32.4825287,27.563858 L33.536911,26.8154145 C33.72612,26.6811371 33.9488983,26.6101837 34.1808319,26.6101837 C34.3738556,26.6101837 34.5645904,26.6609191 34.7324371,26.7566681 C35.1264953,26.9821167 35.5701446,27.1011353 36.0153198,27.1011353 C36.4143371,27.1011353 36.7923736,27.010727 37.1303559,26.8489838 L37.1303559,29.2060852 C37.1303559,29.8946381 36.5516662,30.3211212 36.0153198,30.3211212 C35.8242035,30.3211212 35.6395722,30.2707672 35.4663849,30.1719666 C35.0753784,29.9484253 34.6309662,29.8305512 34.1808319,29.8305512 C33.6402893,29.8305512 33.1214904,29.9957275 32.680893,30.3085327 L31.6265106,31.0565948 C31.4376831,31.1908722 31.2149048,31.2618256 30.9829712,31.2618256 C30.7628632,31.2618256 30.5492401,31.1973572 30.3661347,31.0752869 L29.1065216,30.2352905 C28.6792755,29.9507141 28.1822205,29.8000336 27.6687622,29.8000336 C27.2335053,29.8000336 26.802063,29.9106598 26.4205933,30.1208496 L24.3522645,31.2583924 C24.0249634,31.4384461 23.608017,31.4380646 23.2807159,31.2583924 L21.2127686,30.1208496 C20.8312988,29.9110412 20.3994751,29.8000336 19.9642182,29.8000336 C19.4507599,29.8000336 18.9537049,29.9507141 18.5264588,30.2352905 L17.2672271,31.0752869 C17.0837402,31.1973572 16.8704986,31.2618256 16.6503906,31.2618256 C16.4180756,31.2618256 16.1956787,31.1908722 16.0064697,31.0565948 L14.9520874,30.3085327 C14.5114898,29.9957275 13.992691,29.8305512 13.4525299,29.8305512 C13.0023956,29.8305512 12.557602,29.9484253 12.1665955,30.1719666 C11.9934082,30.2707672 11.8087769,30.3211212 11.6176605,30.3211212 C11.0816955,30.3211212 10.503006,29.8946381 10.503006,29.2060852 L10.503006,26.8463135 C10.8505249,27.0118713 11.2331391,27.1011353 11.6176605,27.1011353 C12.0632172,27.1011353 12.5068664,26.9821167 12.9009247,26.7566681 Z M35.4663849,36.9758605 C34.5939637,36.4772797 33.5006714,36.5306854 32.680893,37.1124268 L31.6265106,37.8608703 C31.2534332,38.1256104 30.7468414,38.1328583 30.3661347,37.8791809 L29.1065216,37.0391846 C28.2997131,36.5013123 27.2705078,36.4570617 26.4205933,36.9247437 L24.3522645,38.0622863 C24.0169525,38.2469178 23.6160278,38.2469178 23.2807159,38.0622863 L21.2127686,36.9247437 C20.362854,36.4574433 19.3336486,36.5013123 18.5264588,37.0391846 L17.2672271,37.8791809 C16.8865204,38.1328583 16.3799286,38.1256104 16.0064697,37.8608703 L14.9524688,37.1124268 C14.1326904,36.5306854 13.0393982,36.4772797 12.166977,36.9758605 C11.8186951,37.1746063 11.4036561,37.1734619 11.0569,36.9720459 C10.710144,36.7710113 10.503006,36.4112854 10.503006,36.0103607 L10.503006,31.5483094 C10.8409882,31.709671 11.2190246,31.8004608 11.6176605,31.8004608 C12.0628357,31.8004608 12.5068664,31.6814423 12.9009247,31.4559937 C13.0683898,31.3602447 13.2591248,31.3095093 13.4525299,31.3095093 C13.6844635,31.3095093 13.9068604,31.3804627 14.0960693,31.51474 L15.1504517,32.2631836 C15.5910492,32.5759888 16.109848,32.7411651 16.6503906,32.7411651 C17.1634674,32.7411651 17.6605225,32.5904846 18.0877686,32.3059082 L19.3470001,31.4662934 C19.5304871,31.344223 19.7437286,31.2793731 19.9642182,31.2793731 C20.1507568,31.2793731 20.3361512,31.3270568 20.4998017,31.4170838 L22.567749,32.554245 C22.9496002,32.7644348 23.3814239,32.875061 23.8166809,32.875061 C24.2519379,32.875061 24.6837616,32.7644348 25.0648498,32.5546265 L27.1335602,31.4167022 C27.2972107,31.3266754 27.482605,31.2793731 27.6687622,31.2793731 C27.8892518,31.2793731 28.1024933,31.3438416 28.2859803,31.4662934 L29.5455933,32.3059082 C29.9728394,32.5904846 30.4695129,32.7411651 30.9829712,32.7411651 C31.5235138,32.7411651 32.0419312,32.5759888 32.4825287,32.2631836 L33.536911,31.51474 C33.72612,31.3804627 33.9488983,31.3095093 34.1808319,31.3095093 C34.3738556,31.3095093 34.5645904,31.3602447 34.7324371,31.4559937 C35.1264953,31.6814423 35.5701446,31.8004608 36.0153198,31.8004608 C36.4143371,31.8004608 36.7923736,31.709671 37.1303559,31.5483094 L37.1303559,36.0103607 C37.1303559,36.4112854 36.9232178,36.7710113 36.5760803,36.9720459 C36.2293243,37.1734619 35.8142853,37.1749878 35.4663849,36.9758605 Z M34.8125458,14.5462036 L34.8125458,16.4211273 L28.4351349,16.4211273 L28.4351349,13.955307 L34.846878,13.955307 C34.8251343,14.1502381 34.8125458,14.3470764 34.8125458,14.5462036 Z M26.9557953,13.9556885 L26.9557953,16.4211273 L20.5787658,16.4211273 L20.5787658,13.9556885 L26.9557953,13.9556885 Z M26.9557953,17.9004669 L26.9557953,19.033432 L20.5787658,19.033432 L20.5787658,17.9004669 L26.9557953,17.9004669 Z M19.0994263,13.9556885 L19.0994263,16.4211273 L12.7220154,16.4211273 L12.7220154,13.9556885 L19.0994263,13.9556885 Z M8.10050967,16.4211273 C7.83653262,16.4211273 7.59277344,16.5618896 7.46040342,16.7900086 C6.88781738,17.7791596 5.82427979,18.3933258 4.68444824,18.3933258 C2.91709902,18.3933258 1.47933965,16.9555664 1.47933965,15.1882172 C1.47933965,13.420868 2.91709902,11.9831085 4.68444824,11.9831085 C5.82466123,11.9831085 6.88819883,12.5972748 7.46040342,13.5860443 C7.59239199,13.8149262 7.83653262,13.955307 8.10050967,13.955307 L11.2426758,13.955307 L11.2426758,16.4211273 L8.10050967,16.4211273 Z M12.7220154,17.9004669 L19.0994263,17.9004669 L19.0994263,19.033432 L12.7220154,19.033432 L12.7220154,17.9004669 Z M34.8125458,19.033432 L28.4351349,19.033432 L28.4351349,17.9004669 L34.8125458,17.9004669 L34.8125458,19.033432 Z M36.2918854,16.4211273 L36.2918854,14.5462036 C36.2918854,14.3463135 36.3082886,14.1490937 36.3384247,13.9556885 L40.4338837,13.9556885 L40.4338837,16.4211273 L36.2918854,16.4211273 Z M40.4338837,12.4763488 L36.8934631,12.4763488 C37.4389648,11.6104126 38.3155822,10.9611512 39.3615723,10.7322693 L40.4338837,10.4976654 L40.4338837,12.4763488 Z M41.9132232,8.66012578 L41.9132232,6.77680967 L42.4621582,5.13038633 L43.1461334,3.07846074 L44.3786621,6.77680967 L44.3786621,8.12034609 L41.9132232,8.66012578 Z M45.8580018,15.5426025 L45.8580018,14.8338318 L46.9215393,15.1882172 L45.8580018,15.5426025 Z" id="Shape" fill="#77BE32"></path>
                        <path d="M45.8580018,13.2743836 L45.8580018,6.65664668 C45.8580018,6.57730098 45.8450317,6.49833682 45.8198547,6.42280576 L43.8476563,0.505828906 C43.7469482,0.203704883 43.4642792,-8.8817842e-16 43.1461334,-8.8817842e-16 C42.8276063,-8.8817842e-16 42.5449371,0.203704883 42.4442291,0.505828906 L40.4720307,6.42280576 C40.4468536,6.49833682 40.4338837,6.57730098 40.4338837,6.65664668 L40.4338837,8.98361211 C40.4338837,10.1927162 40.4338837,11.3569618 40.4338837,12.4763488 L28.4351349,12.4763488 L26.9557953,12.4763488 L20.5787658,12.4763488 L19.0994263,12.4763488 L12.7220154,12.4763488 L11.2426758,12.4763488 L8.5033417,12.4763488 C7.63015742,11.2499237 6.20384219,10.5037689 4.68444824,10.5037689 C2.1015167,10.5037689 2.84217094e-14,12.6052856 2.84217094e-14,15.1882172 C2.84217094e-14,17.7715302 2.1015167,19.8726654 4.68444824,19.8726654 C6.2030792,19.8726654 7.62939453,19.1268921 8.50296016,17.9004669 L11.2426758,17.9004669 L36.2918854,17.9004669 L40.4338837,17.9004669 L40.4338837,41.4970398 C39.2074585,42.3706055 38.4616852,43.7965393 38.4616852,45.3155518 C38.4616852,47.8984833 40.5628204,50 43.145752,50 C45.7286835,50 47.8302002,47.8984833 47.8302002,45.3155518 C47.8302002,43.7969208 47.0844269,42.3706055 45.8580018,41.4970398 L45.8580018,27.3670196 C45.8580018,26.9584656 45.5268859,26.6273498 45.1183319,26.6273498 C44.7097778,26.6273498 44.3786621,26.9584656 44.3786621,27.3670196 L44.3786621,41.8998719 C44.3786621,42.1638488 44.5194244,42.4079895 44.7479248,42.539978 C45.7366943,43.1125641 46.3508605,44.1757202 46.3508605,45.3155518 C46.3508605,47.082901 44.9131012,48.5206604 43.145752,48.5206604 C41.3784027,48.5206604 39.9406434,47.082901 39.9406434,45.3155518 C39.9406434,44.1757202 40.555191,43.1121826 41.5439605,42.539978 C41.7724609,42.4079895 41.9132232,42.1638488 41.9132232,41.8998719 L41.9132232,23.6601258 L44.3786621,23.1207278 L44.3786621,13.792038 L44.3786621,16.5821075 L44.3786621,23.9151001 C44.3786621,24.3236542 44.7097778,24.6547699 45.1183319,24.6547699 C45.5268859,24.6547699 45.8580018,24.3236542 45.8580018,23.9151001 L45.8580018,17.1020508 L49.4941711,15.8901215 C49.7962951,15.7894135 50,15.5067443 50,15.1882172 C50,14.8700714 49.7962951,14.5874023 49.4941711,14.4866943 L45.8580018,13.2743836 Z M26.9557953,17.9004669 L20.5787658,17.9004669 L26.9557953,17.9004669 Z M8.10050967,16.4211273 C7.83653262,16.4211273 7.59277344,16.5618896 7.46040342,16.7900086 C6.88781738,17.7791596 5.82427979,18.3933258 4.68444824,18.3933258 C2.91709902,18.3933258 1.47933965,16.9555664 1.47933965,15.1882172 C1.47933965,13.420868 2.91709902,11.9831085 4.68444824,11.9831085 C5.82466123,11.9831085 6.88819883,12.5972748 7.46040342,13.5860443 C7.59239199,13.8149262 7.83653262,13.955307 8.10050967,13.955307 L40.442676,13.955307 L40.442676,16.4211273 L8.10050967,16.4211273 Z M12.7220154,17.9004669 L19.0994263,17.9004669 L12.7220154,17.9004669 Z M28.4351349,17.9004669 L34.8125458,17.9004669 L28.4351349,17.9004669 Z M40.4338837,12.4763488 L36.8934631,12.4763488 C37.9389445,12.4763488 39.1190847,12.4763488 40.4338837,12.4763488 Z M41.9132232,23.6601258 L41.9132232,6.77680967 L42.4621582,5.13038633 L43.1461334,3.07846074 L44.3786621,6.77680967 L44.3786621,23.1203461 L41.9132232,23.6601258 Z M45.8580018,15.5426025 L45.8580018,14.8338318 L46.9215393,15.1882172 L45.8580018,15.5426025 Z" id="Shape" fill="#564531"></path>
                    </g>
                </g>
            </g>
        </g>
    </g>
</svg>