<?xml version="1.0" encoding="UTF-8"?>
<svg width="274px" height="89px" viewBox="0 0 274 89" version="1.1" xmlns="http://www.w3.org/2000/svg" xmlns:xlink="http://www.w3.org/1999/xlink">
    <!-- Generator: Sketch 53.2 (72643) - https://sketchapp.com -->
    <title>logo</title>
    <desc>Created with Sketch.</desc>
    <g id="Page-1" stroke="none" stroke-width="1" fill="none" fill-rule="evenodd">
        <g id="Главная-Итоговая" transform="translate(-149.000000, -75.000000)">
            <g id="header">
                <g id="head" transform="translate(149.000000, 75.000000)">
                    <g id="logo">
                        <path d="M123.371526,36.473525 C122.219233,36.473525 120.512131,35.9652042 120,35.3298033 C121.664424,32.6611195 122.005845,22.1981846 122.005845,18.7246596 C122.005845,13.9379728 122.347265,9.36308623 124.267755,6.22844175 C124.438465,5.93192133 125.206661,5 126.913763,5 C128.53551,5 130.370645,5.80484115 132.333812,12.4977307 C133.955559,17.9621785 135.748016,23.214826 135.748016,23.214826 C135.748016,23.2571861 140.485224,8.0075643 145.307787,8.0075643 C146.161338,8.0075643 147.185599,8.55824508 148.081828,10.4220877 C149.362155,13.0484115 149.404832,21.0121029 149.404832,24.612708 C149.404832,30.3736762 149.490187,33.1270802 150.343738,34.9062027 C149.916963,35.8381241 148.679314,36.3888048 147.484342,36.3888048 C144.496914,36.3888048 144.070138,34.1437216 144.070138,29.6535552 C144.070138,24.0620272 144.368881,20.9273828 144.368881,15.6747352 C144.368881,15.2511346 144.326204,14.9969743 144.155493,14.9969743 C143.856751,14.9969743 143.856751,15.4205749 142.832489,17.623298 C140.997355,21.6051437 138.863477,26.6036309 137.839216,27.366112 C137.199053,27.8320726 136.473534,28.086233 135.577306,28.086233 C133.955559,28.086233 132.760588,27.3237519 132.035069,25.8835098 C130.669388,23.0877458 128.620865,14.065053 127.895347,14.065053 C127.852669,14.065053 127.724637,13.9379728 127.596604,13.9379728 C127.425894,13.9379728 127.383216,14.1497731 127.383216,15.0393343 C127.468571,17.8774584 127.596604,21.1391831 127.596604,24.2738275 C127.596604,30.7125567 126.913763,36.473525 123.371526,36.473525 Z M162.378807,17.71572 C166.731917,17.71572 168.78044,21.5281254 168.78044,25.6794114 C168.78044,30.5931784 165.878366,36.0576262 160.24493,36.1423463 C154.952914,36.2270664 152.562971,31.8216201 152.562971,28.1362949 C152.562971,25.0863705 154.056685,22.3329666 156.788048,22.3329666 L156.873403,22.3329666 C157.214824,19.2406822 159.476734,17.71572 162.378807,17.71572 Z M160.458318,33.1270802 C162.67755,33.1270802 163.531101,29.0605144 163.531101,26.2647504 C163.531101,23.2995461 162.762905,20.2919818 160.116897,20.2919818 C159.092636,20.2919818 158.367118,21.1815431 157.98302,21.774584 C159.306024,22.2405446 159.775477,23.5113464 159.775477,24.9092284 C159.775477,25.5022693 159.690122,26.0529501 159.562089,26.6036309 C158.452473,27.0272315 157.897665,28.4251135 157.897665,29.8229955 C157.897665,31.4750378 159.007281,33.1270802 160.458318,33.1270802 Z M177.990835,20.1157704 C176.74187,20.3553608 175.85516,20.7707414 175.722502,21.390207 C175.340956,23.1718859 169.636398,22.4880419 170.177661,19.9605441 C171.233567,15.0298515 181.85145,14.88811 186.59649,15.8891961 C188.355886,16.2603854 189.040337,17.2276093 188.836254,18.1806003 C188.667664,18.9678538 187.815004,20.0871558 186.500102,20.5026466 C185.435626,20.1982567 184.045081,19.9925927 182.617893,19.9065565 C183.088582,21.13812 183.329605,22.6156932 183.329605,23.9002888 C183.329605,24.3662495 183.329605,24.8745702 183.286927,25.3828909 C183.286927,26.5070928 182.902829,36.20011 180.939662,36.20011 C179.872723,36.20011 178.848462,35.6070692 178.165621,34.5480677 C178.293654,33.7432265 178.976495,28.9834961 178.976495,25.5523312 C178.976495,24.8745702 178.989771,21.6722654 178.549719,21.2162013 C178.267001,20.9231961 178.079821,20.5346108 177.990835,20.1157704 Z M198.92243,17.71572 C203.27554,17.71572 205.324062,21.5281254 205.324062,25.6794114 C205.324062,30.5931784 202.421989,36.0576262 196.788552,36.1423463 C191.496536,36.2270664 189.106593,31.8216201 189.106593,28.1362949 C189.106593,25.0863705 190.600307,22.3329666 193.331671,22.3329666 L193.417026,22.3329666 C193.758446,19.2406822 196.020356,17.71572 198.92243,17.71572 Z M197.00194,33.1270802 C199.221172,33.1270802 200.074724,29.0605144 200.074724,26.2647504 C200.074724,23.2995461 199.306528,20.2919818 196.660519,20.2919818 C195.636258,20.2919818 194.91074,21.1815431 194.526642,21.774584 C195.849646,22.2405446 196.319099,23.5113464 196.319099,24.9092284 C196.319099,25.5022693 196.233744,26.0529501 196.105711,26.6036309 C194.996095,27.0272315 194.441287,28.4251135 194.441287,29.8229955 C194.441287,31.4750378 195.550903,33.1270802 197.00194,33.1270802 Z M224.587156,31.4326778 C225.056609,31.8139183 225.269997,32.4916793 225.269997,32.9576399 C225.269997,35.0332829 221.642405,36.8547655 218.78301,36.8547655 C214.813997,36.8547655 212.50941,34.3131619 212.50941,31.5173979 C212.50941,27.9591528 214.643287,25.0363086 215.624871,23.3842663 C210.162144,22.5370651 207.430781,21.5627837 207.430781,18.301059 C207.430781,15.9712557 208.924496,15.0816944 210.546242,15.0816944 C211.869246,15.0816944 214.003124,15.4205749 214.003124,17.3267776 C214.003124,18.0892587 213.789736,18.6399395 213.234928,19.5295008 C216.563777,20.2496218 222.069181,20.1649017 222.069181,22.4523449 C222.069181,24.7397882 218.270879,28.5521936 218.270879,31.602118 C218.270879,32.8729198 219.081752,33.5083207 220.234046,33.5083207 C221.471695,33.5083207 223.178797,32.4916793 224.587156,31.4326778 Z M243.834732,32.6187595 C244.005442,33 244.005442,33.6354009 244.005442,33.9742814 C244.005442,35.3298033 242.597083,36.2617247 241.018013,36.2617247 C236.963646,36.2617247 235.171189,32.6611195 233.250699,28.5945537 L232.055728,29.2723147 C232.01305,30.1195159 231.970373,31.0937973 231.927695,32.2375189 C231.84234,33.9742814 231.372887,36.2617247 229.367042,36.2617247 C228.470813,36.2617247 227.617262,35.8804841 227.019777,35.4568835 C227.48923,33 227.873328,30.4583964 227.873328,27.366112 C227.873328,24.1891074 227.531907,21.0121029 226.763711,17.7927383 C228.342781,16.903177 229.281687,16.5642965 230.177916,16.5642965 C231.885018,16.5642965 232.610536,17.9621785 232.610536,20.7579425 C232.610536,22.7065053 232.482503,23.8502269 232.311793,25.7564297 C234.573703,24.0196672 237.134356,21.1391831 237.561132,17.4538578 C238.201295,17.1149773 239.268234,16.903177 239.993752,16.903177 C241.231401,16.903177 242.29834,17.4962179 242.29834,19.1482602 C242.29834,21.3933434 240.676593,23.6807867 236.707581,26.4341906 C237.262389,27.5355522 238.073262,28.7639939 239.097523,29.9924357 C240.463205,31.5597579 241.743532,32.2375189 243.834732,32.6187595 Z M261.930013,28.806354 C261.930013,31.3055976 262.570176,32.322239 264.106568,33.2118003 C263.978535,34.2284418 263.210339,35.4992436 261.545915,35.4992436 C260.180233,35.4992436 257.44887,34.7367625 256.766029,30.8396369 C255.101605,33.2118003 252.75434,35.4992436 249.937621,35.4992436 C247.376968,35.4992436 245.883254,33.9742814 245.883254,30.204236 C245.883254,28.7639939 246.011287,25.8411498 246.011287,22.8759455 C246.011287,20.9273828 245.925932,19.9531014 245.669866,18.6399395 C246.736805,18.4704992 247.803744,18.301059 248.828005,18.301059 C251.047238,18.301059 251.559368,19.4024206 251.559368,21.5204236 C251.559368,22.9606657 251.303303,26.3918306 251.303303,28.7639939 C251.303303,30.204236 251.516691,31.2208775 252.626307,31.2208775 C253.181115,31.2208775 254.376086,30.6701967 256.680674,27.1543116 C256.808707,25.3751891 257.022095,23.5113464 257.022095,21.9440242 C257.022095,20.7579425 256.936739,19.5295008 256.680674,18.6822995 C257.320837,18.5975794 257.961001,18.5128593 258.515809,18.5128593 C260.905752,18.5128593 262.271433,19.4024206 262.271433,23.1301059 C262.271433,24.2314675 261.930013,26.8154312 261.930013,28.806354 Z M143.558008,73.623298 C143.643363,74.0468986 143.68604,74.4281392 143.68604,74.8093797 C143.68604,76.9273828 142.405714,78.494705 139.119542,78.494705 C134.083592,78.494705 130.96813,72.0983359 127.724637,65.2360061 L127.169828,65.5325265 L125.718792,66.0832073 C125.548082,69.9803328 125.334694,73.2844175 125.249339,75.1482602 C125.163984,77.0544629 124.52382,78.7065053 122.816718,78.7065053 C121.877812,78.7065053 121.152294,78.494705 120.682841,78.1981846 C120.512131,77.6051437 120.213388,60.322239 120.213388,52.1891074 C120.213388,49.4357035 121.536392,47.5295008 124.139722,47.5295008 C124.865241,47.5295008 125.377371,47.698941 125.974857,48.0378215 C126.188245,48.9697428 125.974857,51.2995461 125.974857,56.086233 L125.974857,57.1452345 C125.974857,58.8396369 125.932179,60.5340393 125.889502,62.1860817 C129.175673,60.279879 134.97982,55.366112 135.705338,48.9697428 C136.601567,48.5037821 137.711183,48.2072617 138.735445,48.2072617 C140.442547,48.2072617 141.381453,49.0121029 141.381453,51.2995461 C141.381453,54.7730711 138.8208,58.3736762 131.522939,62.9909228 C132.504522,64.7700454 133.614139,66.6762481 135.363918,68.709531 C137.583151,71.3358548 140.143804,72.9878971 143.558008,73.623298 Z M145.334946,75.3177005 C146.103142,75.1482602 146.956693,74.6822995 147.127403,74.5975794 C148.706472,73.2844175 149.816088,68.9636914 152.376741,63.5839637 C153.529035,61.1694402 155.492203,59.8986384 157.327337,59.8986384 C158.266243,59.8986384 159.759958,60.1527988 161.082962,60.7881997 C160.869574,62.4826021 160.698864,64.5582451 160.698864,66.633888 C160.698864,70.5733737 161.339027,74.6399395 163.55826,76.9697428 C163.387549,78.0287443 161.851158,78.8335855 160.570831,78.8335855 C156.601819,78.8335855 156.132366,73.4114977 156.132366,70.9969743 C156.132366,69.5143722 156.260399,68.4130106 156.260399,66.2102874 C156.260399,65.4478064 156.175043,64.8547655 155.961656,64.8124054 C155.577558,64.8547655 154.766684,67.98941 153.230292,71.9288956 C151.992644,75.1482602 150.968382,78.8335855 147.895599,78.8335855 C145.847076,78.8335855 145.249591,77.6898638 145.249591,76.3343419 C145.249591,75.9954614 145.292268,75.6565809 145.334946,75.3177005 Z M178.18114,59.6868381 C180.869826,59.6868381 181.339279,61.677761 181.339279,63.9228442 C181.339279,67.9470499 176.772781,89 168.578691,89 C165.249843,89 164.652357,87.4326778 164.695034,86.0347958 C164.695034,85.2299546 164.865745,84.1709531 165.335198,84.1709531 C165.719296,84.1709531 166.146071,84.5945537 167.127655,84.5945537 C170.584536,84.5945537 173.956063,77.2239032 173.99874,76.7579425 C174.382838,75.698941 174.681581,74.6399395 174.980324,73.5385779 C173.956063,74.8517398 172.590381,75.9107413 171.053989,75.9107413 C167.981206,75.9107413 166.231426,69.4720121 165.719296,67.1422088 C165.207165,64.8547655 164.097549,62.1013616 163.073287,61.1694402 C163.073287,61.1694402 165.207165,60.0257186 166.999622,60.0257186 C168.066561,60.0257186 169.005467,60.4493192 169.560275,61.720121 C170.584536,64.2617247 171.011312,72.3101362 173.017157,72.3101362 C173.785353,72.3101362 175.065679,70.9546142 175.91923,68.709531 L175.961908,68.709531 C176.175295,67.1845688 176.303328,65.6172466 176.303328,64.0075643 C176.303328,62.6520424 176.217973,61.3388805 175.961908,60.0680787 C176.900814,59.8139183 177.498299,59.6868381 178.18114,59.6868381 Z M197.029098,63.075643 C197.797294,64.473525 198.22407,66.8456884 198.22407,68.709531 C198.22407,73.1996974 195.663417,78.1558245 189.987303,78.3252648 C185.122062,78.3252648 182.604086,74.4281392 182.604086,70.3192133 C182.604086,65.193646 185.463482,61.5930408 189.176429,60.3645991 C186.829164,58.8396369 183.841735,57.5688351 183.841735,54.9848714 C183.841735,49.9440242 191.95047,47.6142209 195.748772,47.6142209 C197.157131,47.6142209 197.839972,48.419062 197.839972,49.3933434 C197.839972,50.1981846 197.370519,51.4689864 196.431613,52.1467474 C193.614894,51.892587 188.322878,53.3751891 188.322878,55.2390318 C188.322878,57.0605144 195.407351,59.7291982 196.730355,62.5249622 C196.815711,62.7367625 196.943743,62.9062027 197.029098,63.075643 Z M190.414078,75.2329803 C192.12118,75.2329803 192.932054,72.1406959 192.932054,69.0907716 C192.932054,66.0832073 192.163858,63.1603631 190.883531,63.1603631 C189.176429,63.1603631 188.280201,67.0574887 188.280201,69.5567322 C188.280201,72.183056 188.920364,75.2329803 190.414078,75.2329803 Z M209.902199,59.3055976 C214.25531,59.3055976 216.303832,63.118003 216.303832,67.269289 C216.303832,72.183056 213.401758,77.6475038 207.768322,77.7322239 C202.476306,77.816944 200.086363,73.4114977 200.086363,69.7261725 C200.086363,66.6762481 201.580077,63.9228442 204.31144,63.9228442 L204.396795,63.9228442 C204.738216,60.8305598 207.000126,59.3055976 209.902199,59.3055976 Z M207.98171,75.4871407 C210.200942,75.4871407 211.054493,71.4205749 211.054493,68.6248109 C211.054493,65.6596067 210.286297,62.6520424 207.640289,62.6520424 C206.616028,62.6520424 205.89051,63.5416036 205.506412,64.1346445 C206.829416,64.6006051 207.298869,65.871407 207.298869,67.269289 C207.298869,67.8623298 207.213514,68.4130106 207.085481,68.9636914 C205.975865,69.387292 205.421057,70.785174 205.421057,72.183056 C205.421057,73.8350983 206.530673,75.4871407 207.98171,75.4871407 Z M234.170206,73.7927383 C234.639659,74.1739788 234.853047,74.8517398 234.853047,75.3177005 C234.853047,77.3933434 231.225455,79.214826 228.36606,79.214826 C224.397047,79.214826 222.09246,76.6732224 222.09246,73.8774584 C222.09246,70.3192133 224.226337,67.3963691 225.207921,65.7443268 C219.745194,64.8971256 217.013831,63.9228442 217.013831,60.6611195 C217.013831,58.3313162 218.507545,57.4417549 220.129292,57.4417549 C221.452296,57.4417549 223.586174,57.7806354 223.586174,59.6868381 C223.586174,60.4493192 223.372786,61 222.817978,61.8895613 C226.146827,62.6096823 231.652231,62.5249622 231.652231,64.8124054 C231.652231,67.0998487 227.853929,70.9122542 227.853929,73.9621785 C227.853929,75.2329803 228.664802,75.8683812 229.817096,75.8683812 C231.054745,75.8683812 232.761847,74.8517398 234.170206,73.7927383 Z M253.572973,74.97882 C253.743683,75.3600605 253.743683,75.9954614 253.743683,76.3343419 C253.743683,77.6898638 252.335324,78.6217852 250.756254,78.6217852 C246.701887,78.6217852 244.90943,75.02118 242.98894,70.9546142 L241.793969,71.6323752 C241.751291,72.4795764 241.708614,73.4538578 241.665936,74.5975794 C241.580581,76.3343419 241.111128,78.6217852 239.105283,78.6217852 C238.209054,78.6217852 237.355503,78.2405446 236.758018,77.816944 C237.227471,75.3600605 237.611569,72.8184569 237.611569,69.7261725 C237.611569,66.5491679 237.270148,63.3721634 236.501952,60.1527988 C238.081022,59.2632375 239.019928,58.924357 239.916157,58.924357 C241.623259,58.924357 242.348777,60.322239 242.348777,63.118003 C242.348777,65.0665658 242.220744,66.2102874 242.050034,68.1164902 C244.311944,66.3797277 246.872597,63.4992436 247.299373,59.8139183 C247.939536,59.4750378 249.006475,59.2632375 249.731993,59.2632375 C250.969642,59.2632375 252.036581,59.8562784 252.036581,61.5083207 C252.036581,63.7534039 250.414834,66.0408472 246.445822,68.7942511 C247.00063,69.8956127 247.811503,71.1240545 248.835764,72.3524962 C250.201446,73.9198185 251.481773,74.5975794 253.572973,74.97882 Z M271.823445,71.1664145 C271.823445,73.6656581 272.463608,74.6822995 274,75.5718608 C273.871967,76.5885023 273.103771,77.8593041 271.439347,77.8593041 C270.073665,77.8593041 267.342302,77.096823 266.659461,73.1996974 C264.995037,75.5718608 262.647772,77.8593041 259.831053,77.8593041 C257.2704,77.8593041 255.776686,76.3343419 255.776686,72.5642965 C255.776686,71.1240545 255.904719,68.2012103 255.904719,65.2360061 C255.904719,63.2874433 255.819364,62.3131619 255.563298,61 C256.630237,60.8305598 257.697176,60.6611195 258.721437,60.6611195 C260.94067,60.6611195 261.4528,61.7624811 261.4528,63.8804841 C261.4528,65.3207262 261.196735,68.7518911 261.196735,71.1240545 C261.196735,72.5642965 261.410123,73.580938 262.519739,73.580938 C263.074547,73.580938 264.269519,73.0302572 266.574106,69.5143722 C266.702139,67.7352496 266.915527,65.871407 266.915527,64.3040847 C266.915527,63.118003 266.830172,61.8895613 266.574106,61.0423601 C267.21427,60.9576399 267.854433,60.8729198 268.409241,60.8729198 C270.799184,60.8729198 272.164865,61.7624811 272.164865,65.4901664 C272.164865,66.591528 271.823445,69.1754917 271.823445,71.1664145 Z" id="Моточки-Клубочки" fill="#5F9828"></path>
                        <g id="Логотип-вектор" transform="translate(46.000000, 42.500000) scale(-1, 1) translate(-46.000000, -42.500000) ">
                            <path d="M72.431915,14.7168964 C72.6899848,16.3393535 73.4396161,17.051248 75.1846594,16.9560528 C80.2436465,16.6746061 82.6482015,18.5660932 83.8975869,23.5990215 C84.0122846,24.0625807 83.9918029,24.5137231 84.5816767,24.7248081 C88.4691089,26.1030689 92.0288334,34.8775821 90.7261954,39.2689776 C88.7148896,45.9616133 86.9862317,52.7411664 85.1346834,59.4834692 C84.5228432,61.112922 83.7196789,62.6622985 82.7424174,64.0983665 C80.9523143,66.0891877 79.6210019,68.4111225 78.1012576,70.596473 C76.3234435,73.1543263 74.3162341,75.4390109 71.2726491,76.5275472 C70.7114497,76.7262154 66.6724528,82.2930646 61.511057,81.5315031 C58.6763857,81.1176109 55.9768938,81.692921 53.3429435,82.7400681 C49.3203319,84.3335528 45.2157934,85.4676172 40.828607,84.8095287 C40.2253464,84.7424729 39.6340503,84.592068 39.0712746,84.3625252 C36.0604605,82.9759866 32.9922975,83.1870716 29.8913637,83.9486331 C27.8186127,84.2756079 25.7171873,84.2921636 23.6321473,84.4825539 C22.657217,84.5694713 21.5430109,84.4825539 21.2685557,83.1208488 L25.0126158,82.4751771 C23.9106988,81.4031965 22.9644429,80.4636614 22.0018016,79.5489597 C20.0191702,77.6616116 18.3888246,75.5962899 18.3150904,72.6617947 C18.2828869,71.8785407 17.8032591,71.1855443 17.0861866,70.8861974 C16.1358344,70.3936658 15.1977712,69.9425234 15.7958377,68.5559848 C16.0375221,67.9972304 15.6155985,67.856507 15.1650005,67.8151178 C13.0226116,67.6247275 11.2366048,66.3416619 9,65.9194919 C9.61445187,64.5288143 10.6876945,63.5768624 11.072751,62.2441298 C11.1113442,61.9958829 11.2594541,61.7787893 11.4753423,61.6540274 C11.6912304,61.5292656 11.9515204,61.5103448 12.1828607,61.602597 C12.7604455,61.7764316 12.838276,62.2772411 12.7768308,62.7656338 C12.6785185,63.5934181 12.625266,64.3135904 13.6944123,64.4625916 C14.6775353,64.599176 15.4886118,64.3425629 15.8572829,63.3409439 C17.3770272,59.2020226 20.6213331,56.7517812 24.1564795,54.5581529 C25.8974265,53.4778944 27.6629515,52.4100527 29.2851045,51.1642374 C33.7542178,47.7413495 39.2597066,46.454145 44.0606239,43.7141791 C49.0950329,40.8169341 54.3957044,38.3873873 58.6231332,34.2360493 C62.0599674,30.8586895 64.7225922,26.8232412 67.8849711,23.2099629 C69.4088118,21.467477 70.8589182,19.6546295 72.53842,17.6389748 C69.9577221,17.7300311 67.9628017,18.681983 66.1317351,19.9112426 C61.8344023,22.7153323 57.2784989,25.0925027 52.5277707,27.0094927 C45.5148266,29.9439879 39.8741584,34.5795797 35.9334738,41.1687424 C34.0573474,44.3060448 30.7270182,44.9765501 27.8513835,46.4417282 C27.5482539,46.5948683 27.2901841,46.5079509 27.2041608,46.2099486 C27.0362106,45.6139439 27.5482539,45.3573308 27.9005396,45.0676063 C30.8212342,42.6711709 33.3404868,39.8484266 36.0932312,37.2574618 C43.3314377,30.4270511 51.51245,24.6942185 60.3804656,20.2382174 C63.2479077,18.785456 66.0416155,17.208527 68.1307519,14.6258401 C69.1876091,13.317941 69.7692902,11.7741233 70.4206092,10.267556 C70.5618918,10.0965642 70.7714861,9.99841687 70.9919357,10.0000193 C71.2123852,10.0016218 71.4205603,10.1028059 71.5593933,10.2758338 C71.8543302,11.7575676 72.1943269,13.2268847 72.431915,14.7168964 Z" id="Path" fill="#85C44E"></path>
                            <path d="M4.89355138,42.466396 C5.47957021,41.9958319 6.10656557,41.5787218 6.76701845,41.2200676 C22.178466,34.4109603 35.0725719,23.6842275 48.851486,14.3243015 C53.3419914,11.270797 58.3600584,9.05648693 63.4985922,7.21607538 C64.3792464,6.87125786 65.1228175,6.80063259 65.193436,8.07188752 C63.3150488,10.1134996 60.9786869,11.679767 58.3766745,12.6417582 C48.1536092,16.5386116 39.388608,22.7494812 31.2259411,29.8950972 C29.5200198,31.3768432 27.8362534,32.8987486 26.1746418,34.4608135 C25.343836,35.2543092 24.4465658,36.0602682 24.338561,37.5600167 C26.6278742,36.8143729 28.7884577,35.7199645 30.7440737,34.3154085 C36.0439965,30.5529677 41.5802696,27.1351356 47.3186493,24.0830526 C53.7283161,20.7595103 59.307177,16.1688675 65.4468318,12.4506545 C65.7999243,12.2346243 66.1530167,12.0144396 66.5144172,11.815027 C67.345223,11.3663488 68.2341852,10.9841415 68.8240574,12.0892193 C69.3308489,13.0530466 68.6537422,13.5931222 67.9226331,14.0999624 C58.8917741,20.3648396 49.6739838,26.3181348 40.0906389,31.7313543 C31.3173297,36.6834324 22.8514187,42.1506595 14.5433607,47.9668585 C11.7518532,49.9194396 9.21374152,52.088051 8.24169874,56.23417 L18.6600034,50.4512064 C19.3786504,50.3515001 19.6985107,50.6464645 19.5821979,51.3734894 C18.593539,53.6916601 16.45006,54.7884291 14.5599768,56.1593903 C13.8911782,56.6454584 13.2099174,57.1190632 12.5328107,57.5968224 C11.1661351,59.0051734 10.576263,60.8954381 9.5252937,62.4990473 C8.5947912,63.0806672 7.67259677,63.4462568 7.3901228,61.9008096 C6.94148767,59.4081529 5.75343538,57.2353871 4.70662008,54.9878416 C3.51441376,52.4204052 3.74288536,51.6102918 6.06914159,49.9568295 C10.5024274,46.8976622 14.4095961,43.1388434 17.6381123,38.8271172 C14.0656474,39.9862025 11.7850855,42.8693755 8.38293573,43.4634587 C7.14088106,43.3969878 5.51665573,44.7097871 4.89355138,42.466396 Z" id="Path" fill="#86C34F"></path>
                            <path d="M60.721397,2.64518087 C50.1004134,7.68396182 34.4467177,17.6187583 19.7162305,28.7418672 C17.6924991,30.2725337 15.5084005,31.5654769 13.2047506,32.5965346 C9.5688565,34.1717188 6.09902422,36.1245866 2.84929165,38.4247246 C2.37134739,38.7732403 1.84438321,39.390491 1.28882407,38.6556687 C0.8190498,38.0342191 0.937514616,37.3455857 1.53392369,36.7913198 C3.270046,35.1705119 4.07887475,33.0122341 4.69979379,30.7867725 C5.30959559,28.3326838 6.662968,26.1415682 8.5641978,24.5302861 C9.90816072,23.4175553 10.6720545,21.9857018 10.4800598,20.1423477 C10.369765,19.1093976 10.6720545,18.4249632 11.7055579,18.0680496 C12.6361657,17.7658296 13.3914507,17.0600469 13.7725647,16.1365169 C14.5895635,14.0370248 16.2644109,12.920095 17.9310883,11.6897927 C20.5822492,9.73726506 23.3518749,7.88131407 25.6925763,5.5718728 C28.5234769,2.77115039 31.7220269,1.59963382 35.549666,1.37288868 C38.8748508,1.18393439 42.1796107,0.793428867 45.5211355,1.01597503 C46.4010982,1.11691106 47.2917552,1.04133154 48.1437015,0.793428867 C49.4549844,0.323142644 50.4966578,0.478505057 51.5097363,1.45266937 C52.5228147,2.42683369 53.8381826,2.46042557 55.1208707,1.89776169 C56.3055188,1.37708766 57.469742,0.797627851 58.6748152,0.314744676 C60.2311977,-0.306704975 61.4975458,-0.105153737 62,1.80538404 C61.8284303,2.48981845 61.1094714,2.2924662 60.721397,2.64518087 Z" id="Path" fill="#86C44F"></path>
                            <path d="M62.0708333,0.904159132 L63.3791667,0 C68.2541667,1.30198915 71.0166667,4.74683544 72,10 L70.8208333,9.94575045 C70.2375,8.7477396 69.3333333,7.83453888 68.5333333,6.82640145 C67.15,5.08137432 65.6166667,4.43490054 63.7,5.84086799 C63.3875,4.98191682 62.6791667,4.97739602 62,4.90958409 C62.2583333,4.66546112 62.5083333,4.40777577 62.7791667,4.18625678 C63.45,3.6437613 64.7,3.55334539 64.4083333,2.21971067 C64.1166667,0.886075949 63.0625,0.904159132 62.0708333,0.904159132 Z" id="Path" fill="#ABD686"></path>
                            <path d="M53,32 C49.687875,36.0467927 45.5477187,39.0351281 41.1922743,41.7769152 C40.894183,41.9639518 40.5381296,42.1297343 40.2441785,41.8534302 C39.9473921,41.5296473 39.917799,41.0345646 40.1737958,40.6759495 C40.3649486,40.2208137 40.6638058,39.8219134 41.0432286,39.5154722 C45.001218,36.9989792 48.627995,33.9341289 53,32 Z" id="Path" fill="#B6DA96"></path>
                            <path d="M3.57964423,42 C4.47137984,43.3463593 5.81509104,42.8975728 7,43.0636238 C6.59038273,43.3007806 6.16252659,43.4975181 5.72143844,43.651534 C3.81988351,44.1272476 2.98108197,45.3434588 3.27832718,47.520073 C3.33940496,47.9688594 3.73030276,48.6151118 3.15209976,48.9247744 C2.70826788,49.1671191 2.2562923,48.7676992 1.84503524,48.5208667 C0.533256349,47.7812299 -0.194335205,46.1918885 0.0452766059,44.5894976 C0.28551588,42.296199 2.08934636,42.3500534 3.57964423,42 Z" id="Path" fill="#A6D47F"></path>
                            <path d="M17.9772823,51 L17,49.812502 C19.042608,48.1328878 21.0764116,46.4425753 23.1322261,44.7897065 C23.6252694,44.3938739 24.2019539,43.4470849 24.7830407,44.4366666 C25.302497,45.3192664 24.8050516,46.2286117 24.1755409,46.6939826 C22.1373351,48.1917278 20.0463033,49.571793 17.9772823,51 Z" id="Path" fill="#AFD78B"></path>
                            <path d="M7,63 C7.28176796,61.7288136 7.97790055,60.6152542 10,60 C10,60.3355932 9.95441989,60.6737288 9.96270718,61.0169492 C9.97928177,62.6949153 9.90055249,62.740678 7,63 Z" id="Path" fill="#B0D88F"></path>
                            <path d="M46.8633995,62.3445911 C38.5455043,68.3734122 29.4249321,73.0004704 20.3667442,77.7515784 C19.2521462,78.3346126 19.1190599,77.8301433 19.0441989,76.8749597 C18.5825557,71.3588778 21.7641506,66.0164657 27.3246636,63.2294798 C30.5792366,61.6015305 33.674363,59.6759686 36.5700041,57.4777032 C33.0931239,57.3991383 31.1384186,60.5375987 27.9734594,60.2026642 C38.9073327,51.8127615 51.4839903,46.5571842 64.1978932,41.4794117 C62.7796921,43.5841236 60.5712909,44.8494317 58.8619634,46.6233441 C58.3171413,47.5495828 56.9821191,47.7894124 56.7117875,49.1043405 C58.1923728,49.1043405 59.0657518,47.9796221 60.2302572,47.5206378 C67.2214481,43.8983831 72.4159737,38.1217966 78.0388709,32.8538143 C79.5333555,31.4142604 81.1658915,30.1235094 82.9131575,29 C83.248381,31.2438399 82.6037378,33.5232048 81.1414458,35.2645158 C78.8581836,38.0845817 75.9593971,40.2265085 72.9192064,42.1203357 C68.2487082,45.0561814 63.5158258,47.9093272 58.7787844,50.7459331 C57.1602933,51.6721963 55.6875337,52.8299644 54.4077305,54.182113 C51.9373156,56.6631094 48.6808596,57.9656325 45.8527752,59.9132146 C44.7797668,60.6492435 43.6235793,61.2694926 42.4341203,62.1378414 C43.8440035,62.3032411 44.837992,61.3108426 46.0440868,61.3108426 C46.5930679,61.4472974 47.0380753,61.6581821 46.8633995,62.3445911 Z" id="Path" fill="#FDFDFD"></path>
                            <path d="M39.708424,75.8255467 C37.3997653,76.8271277 34.9816982,77.5346904 32.5075568,77.9326285 C31.4334866,77.9930776 30.2215008,78.3298653 30,76.6372913 C45.2083319,66.1321068 60.1700874,55.2426388 75.7587321,45.3462628 C78.8764611,43.3687147 82.5667488,42.4058473 85.2999857,39.6942748 C85.6903054,39.3895992 86.1489637,39.1920332 86.6331701,39.1200087 C87.0845303,39.0120639 87.703061,38.8393523 87.9579959,39.3272626 C88.1000908,39.5949657 87.8493351,40.1390073 87.6863439,40.5189728 C86.1191209,44.1934127 83.9918769,47.526747 80.9284784,49.9749343" id="Path" fill="#FDFDFD"></path>
                            <path d="M54.106257,41.8132616 C60.0370806,38.5395004 64.100413,33.2687449 68.3812774,28.2476137 C70.0141025,26.2369848 71.8350718,24.3857907 73.8195759,22.7190496 C75.3340907,21.4913891 77.029198,20.4151402 79.0567599,21.3604387 C81.1828267,22.3507514 82.036537,24.4418664 82.9271866,26.4388607 C83.1570317,26.9544781 82.799951,27.1918258 82.451079,27.400528 C73.286007,32.8963546 64.3466756,38.7973091 54.4592334,43 C54.0332916,42.7693013 53.8753185,42.2381815 54.106257,41.8132616 L54.106257,41.8132616 Z" id="Path" fill="#FDFDFD"></path>
                            <path d="M80,53 C78.5458583,57.139185 76.190389,59.9145671 73.8829906,62.6638893 C67.7659811,69.9519821 60.4071427,75.5678962 52.6316906,80.5366555 C48.5857315,83.1426481 44.0430409,83.9722224 39.3721614,83.9722224 C38.8674179,83.9722224 38.1183146,84.1807018 38.0101553,83.4553672 C37.901996,82.7300326 38.6831465,82.6909427 39.147831,82.4607467 C43.3339965,80.4063559 47.4961267,78.2911585 51.7143395,76.3279774 C61.6401033,71.7600792 70.4031481,64.6636314 77.2599643,55.6407392 C77.8127786,54.9197479 78.4336931,54.2552198 79.038584,53.5863483 C79.3422529,53.3601442 79.6640125,53.1639095 80,53 Z" id="Path" fill="#FCFDFC"></path>
                            <path d="M81.7769245,63 C82.3191506,64.4922657 81.7517047,65.3732926 81.3565943,66.2163805 C78.1452711,72.8809907 72.6347415,77.1765238 66.4012438,80.7343549 C65.8169847,81.0673746 65.4218743,81.2739312 65.5605833,80.1737014 C65.6908856,79.2378738 64.8712417,79.5835398 64.3836586,79.7521574 C63.2992065,80.131547 62.2399743,80.3886888 61,79.3854142 C69.8437486,76.3966674 75.9511472,70.027138 81.7769245,63 Z" id="Path" fill="#FBFCFB"></path>
                            <path d="M28,81.3477844 C39.3373095,79.1870283 49.6580517,74.402497 59.55666,68.5243586 C61.8783963,67.1441206 64.1699801,65.7197854 67,64 C66.4000218,65.1977041 65.4894399,66.2031269 64.3681246,66.9059964 C54.8547102,73.8699498 44.0931898,78.8449346 32.6994698,81.5462212 C31.8518916,81.6922572 30.9956019,81.7791815 30.1365142,81.8063938 C29.4171637,81.6873318 28.4996687,82.5604536 28,81.3477844 Z" id="Path" fill="#F9FBF7"></path>
                            <path d="M26,58.540378 C29.1898694,54.6989498 33.0039226,51.8442331 37.0175694,49.2973367 C37.1850641,49.2223099 37.3590601,49.1685849 37.5365129,49.1371015 C38.0808592,48.9599995 38.6941561,48.833498 38.9445554,49.5587731 C39.1949547,50.2840483 38.5381102,50.465367 38.1534388,50.7394536 C35.5381571,52.5919974 32.9156175,54.4332967 30.28582,56.2633514 C28.9648729,57.1868122 27.6366679,58.0891894 26.3120919,59 L26,58.540378 Z" id="Path" fill="#F8FBF6"></path>
                            <path d="M45.811413,61.5660196 C44.4126553,62.3535329 43.0922594,63.5517128 41,62.7158857 C45.3334062,59.2324677 49.4238908,55.9519673 53.6946076,53 C53.4869489,54.0918897 54.7446553,55.4639989 53.2792902,56.31432 C52.6719864,57.2177863 51.7864983,57.5511508 50.9480273,57.9038409 C49.0281639,58.7300052 47.5823891,60.4741299 45.811413,61.5660196 Z" id="Path" fill="#A3D279"></path>
                            <path d="M87.5799315,36 C87.1070957,33.8029188 87.0903581,31.781604 87.0066704,29.7427126 C86.9773797,28.9737342 87.0066704,28.2135441 87.9063137,28.0289893 C88.7180849,27.8620111 89.16163,28.4420405 89.5298561,29.1099532 C90.596875,31.1224796 89.8060257,34.106116 87.5799315,36 Z" id="Path" fill="#F9FBF6"></path>
                            <path d="M47,61.9076087 C49.0398741,58.5217391 51.9863589,57.1793478 55,56 C54.5508919,58.0543478 53.2875131,59.1467391 51.9821616,60.125 C50.6768101,61.1032609 49.207765,62.048913 47.818468,63 C47.6804573,62.499768 47.3819697,62.1013831 47,61.9076087 Z" id="Path" fill="#CEE6B9"></path>
                            <path d="M31.6,74 C32.076,74.9439024 33.2,74.7317073 34,75.097561 C31.6,76.2646341 28.988,76.5353659 26,77 C27.564,75.0390244 29.724,74.7463415 31.6,74 Z" id="Path" fill="#C2E1A7"></path>
                            <path d="M54.6095346,42 L55,42.7857786 C52.5618615,43.8145815 49.8059024,44.4275428 47,45 C48.7207719,43.2448245 51.7355278,42.6831683 54.6095346,42 Z" id="Path" fill="#CCE5B7"></path>
                            <path d="M61,46.8423142 C60.5202931,48.0488724 59.6646756,48.5155601 58.7725891,48.9139519 C58.5159355,49.1005387 58.1960662,48.9737925 58.0544314,48.6293863 C57.9454324,48.3370809 58.0041405,47.9813534 58.1946966,47.7794837 C58.7333149,47.020642 59.1849687,46.0758842 60.0770552,46 C60.158409,46.7550474 60.5679833,46.8423142 61,46.8423142 Z" id="Path" fill="#C4E2AA"></path>
                            <path d="M28.2425402,81 C28.4591737,81.728797 28.7515532,81.222688 29,81.506109 C28.7366419,82.1377587 28.3843436,82.1658774 28.1122571,81.5769643 C27.8426014,80.9544502 28.1289212,81.0506109 28.2425402,81 Z" id="Path" fill="#C8E4AF"></path>
                            <path d="M22.1598974,18.4944032 C22.5975392,18.233462 23.0833216,18.0366116 23.0920744,17.2949891 C20.7813257,17.2308983 19.1839331,18.6317407 17.6390575,20.1149856 C16.514318,21.1953738 15.4508484,22.3306971 14.3042269,23.3973516 C13.7396689,23.923812 13.0481949,24.3129348 12.3567208,23.649137 C11.6652468,22.9853391 12.1247707,22.1979375 12.5142719,21.6028084 C12.9080795,21.066563 13.3842942,20.602457 13.9234785,20.2294335 C19.026382,16.3198929 24.2124375,12.5202224 28.7026424,7.81412439 C29.3069901,7.2690521 29.9675299,6.79613365 30.6720306,6.40412616 C31.3430007,5.89701671 32.2404472,5.86445833 32.9433916,6.32172366 C33.7880403,6.88938529 33.5429609,7.77750106 33.3022579,8.61068183 C33.1315776,9.18292137 32.707065,9.81925174 33.2628701,10.295355 C33.9587206,10.8859062 34.4182445,10.0344138 34.9696732,9.77805049 C36.0944126,9.25616803 37.2060228,8.70224015 38.3438915,8.21240311 C38.8603089,7.98808521 39.5167716,7.65847523 39.8931435,8.36805226 C40.2695155,9.07762929 39.5605358,9.41181719 39.175411,9.82382966 C38.0550479,11.0964904 36.4489025,11.5313924 35.0922129,12.3966186 C31.5473142,14.6489535 28.0024156,16.8875546 24.7069727,19.5335902 C24.0592628,20.0554727 23.328401,20.5041085 22.5187637,19.9913818 C22.0023463,19.6251485 21.5559517,19.162779 22.1598974,18.4944032 Z" id="Path" fill="#FDFDFC"></path>
                            <path d="M42.1133841,9.06010164 C43.5283702,9.35024477 42.9901046,9.91844172 42.2846504,10.4342517 C40.7065535,11.5867647 39.1366121,12.7594265 37.4973486,13.8313441 C32.8242243,16.893966 28.0573114,19.8155461 23.8327418,23.5027816 C23.6288533,23.2771147 23.4983646,23.1965194 23.473898,23.099805 C23.3067095,22.3704174 24.5708181,21.5725239 23.5309868,20.9640292 C22.7439772,20.504636 22.2301782,21.4395416 21.6266683,21.8022205 C18.123864,23.9178474 14.6292152,26.0536232 11,28 C13.4262731,24.4618658 17.2716101,22.5799653 20.4563483,19.9404688 C21.3738465,18.509902 22.8459215,17.7764847 24.3343075,17.1720198 C28.4558663,15.4841676 32.3900323,13.380217 36.0742069,10.893645 C37.8928923,9.65650695 39.829833,8.75383946 42.1133841,9.06010164 Z" id="Path" fill="#FCFDFB"></path>
                            <path d="M41,8.59827968 C38.1588855,9.11480767 35.6698042,10.4188292 33.342244,12.1165974 C30.6378012,14.089565 27.6268825,15.5036662 24.6118223,16.8923644 C22.6818524,17.7899376 20.8844127,18.9542425 19,20 C19,17.3030465 21.3565512,16.5324883 22.8433735,15.0464119 C23.0670181,17.032081 24.0071536,16.282692 24.8851657,15.5883429 C28.6694982,12.6772764 32.6730633,10.0766535 36.8584337,7.81078619 C37.5128012,7.44667629 38.1381777,6.96401899 38.9292169,7.00212351 C39.3019578,7.9886073 40.3125,8.07751785 41,8.59827968 Z" id="Path" fill="#A8D481"></path>
                            <path d="M50,6 C47.778956,7.65424165 45.9575856,8.69922879 43,9 C44.5473083,7.15681234 46.7169657,6.38560411 50,6 Z" id="Path" fill="#EEF5E7"></path>
                            <path d="M11.0096793,81 C12.4387817,81.0826571 13.9025991,80.9173429 13.9951726,82.2398564 C14.087746,83.5623698 12.8380047,84.0707109 11.1832545,83.9921867 C9.52850439,83.9136625 7.00587831,83.8020754 7.00009247,82.6118133 C6.98273496,81.5951311 9.4127876,81.0661257 11.0096793,81 Z" id="Path" fill="#FBFCFB"></path>
                            <path d="M90.5160595,74 C91.360615,74.0332846 92.0350442,74.1198245 91.9985886,75.0251652 C91.9682089,76.1934541 91.2482101,76.8225328 90.2730219,76.968985 C89.9418415,77.0557044 89.5929286,76.9580241 89.340315,76.7078681 C89.0877015,76.4577122 88.9638458,76.0872232 89.0092266,75.7174846 C89.073024,74.6157648 89.7839089,74.1364668 90.5160595,74 Z" id="Path" fill="#FBFCFA"></path>
                            <path d="M46,53.4651376 L48.78,51 L49,51.3964907 C48.6325,52.7755886 47.985,53.7133752 46.785,53.865076 C46.4775,53.9030012 46.075,54.3201783 46,53.4651376 Z" id="Path" fill="#B0D88C"></path>
                            <path d="M46.3980952,56 C46.5390476,56.6097561 46.7790476,56.4439024 47,56.5463415 C46.7009524,57.2390244 46.3485714,56.8829268 46,57 C46.0171429,56.2341463 46.2438095,56.2146341 46.3980952,56 Z" id="Path" fill="#C1E0A6"></path>
                        </g>
                    </g>
                </g>
            </g>
        </g>
    </g>
</svg>