<svg width="126" height="119" viewBox="0 0 126 119" fill="none" xmlns="http://www.w3.org/2000/svg">
<path fill-rule="evenodd" clip-rule="evenodd" d="M94.697 3.61484L38.4054 35.5271L12.2134 20.6724C13.5833 18.8371 15.0482 17.0743 16.6023 15.3913L38.4054 27.7326L87.3632 0C89.8863 1.03949 92.3365 2.24716 94.697 3.61484ZM106.561 12.0589C104.806 10.4074 102.963 8.85186 101.04 7.39912L38.4054 42.9262L8.50403 25.9534C7.37241 27.9095 6.35145 29.9271 5.44593 31.997L38.4054 50.6925L106.561 12.0589ZM3.0391 38.4359L38.4054 58.487L111.318 17.1422C112.79 18.8796 114.161 20.6994 115.424 22.5927L38.4054 66.2532L1.34016 45.242C1.75929 42.9392 2.32678 40.6658 3.0391 38.4359ZM63.0259 118.525C97.3625 118.525 125.326 91.0072 125.788 56.7643C125.802 46.9416 123.432 37.2615 118.879 28.5516L38.4054 74.1889L0.405739 52.6411C0.320792 53.9967 0.26416 55.3805 0.26416 56.7643C0.725398 91.0072 28.6892 118.525 63.0259 118.525Z" fill="#299D37"/>
</svg>
