<svg width="150" height="116" viewBox="0 0 150 116" fill="none" xmlns="http://www.w3.org/2000/svg">
<path fill-rule="evenodd" clip-rule="evenodd" d="M12.8571 0H108.321C115.422 0 121.178 5.75634 121.178 12.8571V35.545H136.757C143.858 35.545 149.614 41.3014 149.614 48.4022V103.02C149.614 110.12 143.858 115.877 136.757 115.877H41.2932C34.1924 115.877 28.436 110.12 28.436 103.02V80.3318H12.8571C5.75634 80.3318 0 74.5754 0 67.4746V12.8571C0 5.75634 5.75634 0 12.8571 0ZM31.8646 80.3318V103.02C31.8646 108.227 36.0859 112.448 41.2932 112.448H136.757C141.965 112.448 146.186 108.227 146.186 103.02V48.4022C146.186 43.1949 141.965 38.9736 136.757 38.9736H121.178V67.4746C121.178 74.5754 115.422 80.3318 108.321 80.3318H31.8646ZM117.75 38.9736V67.4746C117.75 72.6819 113.529 76.9032 108.321 76.9032H31.8646V48.4022C31.8646 43.1949 36.0859 38.9736 41.2932 38.9736H117.75ZM117.75 35.545H41.2932C34.1924 35.545 28.436 41.3014 28.436 48.4022V76.9032H12.8571C7.64989 76.9032 3.42857 72.6819 3.42857 67.4746V12.8571C3.42857 7.64989 7.64989 3.42857 12.8571 3.42857H108.321C113.529 3.42857 117.75 7.64989 117.75 12.8571V35.545Z" fill="#564531"/>
<path d="M0.421387 36.0474V18.9045H120.853V36.0474H0.421387Z" fill="#564531"/>
<path fill-rule="evenodd" clip-rule="evenodd" d="M61.5557 76.0663C61.5557 85.2581 69.0071 92.7095 78.1989 92.7095C87.3906 92.7095 94.8421 85.2581 94.8421 76.0663C94.8421 66.8745 87.3906 59.4231 78.1989 59.4231C69.0071 59.4231 61.5557 66.8745 61.5557 76.0663ZM91.4135 76.0663C91.4135 83.3645 85.4971 89.2809 78.1989 89.2809C70.9006 89.2809 64.9842 83.3645 64.9842 76.0663C64.9842 68.7681 70.9006 62.8517 78.1989 62.8517C85.4971 62.8517 91.4135 68.7681 91.4135 76.0663Z" fill="#77BE32"/>
<path fill-rule="evenodd" clip-rule="evenodd" d="M84.3047 76.0663C84.3047 85.2581 91.7561 92.7095 100.948 92.7095C110.14 92.7095 117.591 85.2581 117.591 76.0663C117.591 66.8745 110.14 59.4231 100.948 59.4231C91.7561 59.4231 84.3047 66.8745 84.3047 76.0663ZM114.163 76.0663C114.163 83.3645 108.246 89.2809 100.948 89.2809C93.6496 89.2809 87.7333 83.3645 87.7333 76.0663C87.7333 68.7681 93.6496 62.8517 100.948 62.8517C108.246 62.8517 114.163 68.7681 114.163 76.0663Z" fill="#77BE32"/>
</svg>
