<?xml version="1.0" encoding="UTF-8"?>
<svg width="43px" height="43px" viewBox="0 0 43 43" version="1.1" xmlns="http://www.w3.org/2000/svg" xmlns:xlink="http://www.w3.org/1999/xlink">
    <!-- Generator: Sketch 53.2 (72643) - https://sketchapp.com -->
    <title>percent</title>
    <desc>Created with Sketch.</desc>
    <g id="Page-1" stroke="none" stroke-width="1" fill="none" fill-rule="evenodd">
        <g id="Главная-Итоговая" transform="translate(-978.000000, -699.000000)">
            <g id="advantages" transform="translate(158.000000, 691.000000)">
                <g id="3" transform="translate(820.000000, 0.500000)">
                    <g id="percent" transform="translate(0.000000, 7.500000)">
                        <polygon id="Path" fill="#564531" points="0.385526316 40.8260591 40.8260591 0.385526316 42.4144733 1.97394057 1.97394057 42.4144733"></polygon>
                        <path d="M7.89473684,15.7894737 C12.2486842,15.7894737 15.7894737,12.2486842 15.7894737,7.89473684 C15.7894737,3.54078947 12.2486842,0 7.89473684,0 C3.54078947,0 0,3.54078947 0,7.89473684 C0,12.2486842 3.54078947,15.7894737 7.89473684,15.7894737 Z M7.89473684,2.63157895 C10.7973684,2.63157895 13.1578947,4.99210526 13.1578947,7.89473684 C13.1578947,10.7973684 10.7973684,13.1578947 7.89473684,13.1578947 C4.99210526,13.1578947 2.63157895,10.7973684 2.63157895,7.89473684 C2.63157895,4.99210526 4.99210526,2.63157895 7.89473684,2.63157895 Z" id="Shape" fill="#77BE32" fill-rule="nonzero"></path>
                        <path d="M34.9052628,27.010526 C30.5513155,27.010526 27.010526,30.5513155 27.010526,34.9052628 C27.010526,39.2592102 30.5513155,42.7999997 34.9052628,42.7999997 C39.2592102,42.7999997 42.7999997,39.2592102 42.7999997,34.9052628 C42.7999997,30.5513155 39.2592102,27.010526 34.9052628,27.010526 Z M34.9052628,40.1684207 C32.0026313,40.1684207 29.6421049,37.8078944 29.6421049,34.9052628 C29.6421049,32.0026313 32.0026313,29.6421049 34.9052628,29.6421049 C37.8078944,29.6421049 40.1684207,32.0026313 40.1684207,34.9052628 C40.1684207,37.8078944 37.8078944,40.1684207 34.9052628,40.1684207 Z" id="Shape" fill="#77BE32" fill-rule="nonzero"></path>
                    </g>
                </g>
            </g>
        </g>
    </g>
</svg>