<?xml version="1.0" encoding="UTF-8"?>
<svg width="101px" height="79px" viewBox="0 0 101 79" version="1.1" xmlns="http://www.w3.org/2000/svg" xmlns:xlink="http://www.w3.org/1999/xlink">
    <!-- Generator: Sketch 52.2 (67145) - http://www.bohemiancoding.com/sketch -->
    <title>Group 13</title>
    <desc>Created with Sketch.</desc>
    <g id="Page-1" stroke="none" stroke-width="1" fill="none" fill-rule="evenodd" fill-opacity="0.5">
        <g id="Личный-кабинет" transform="translate(-240.000000, -538.000000)" fill="#564531" fill-rule="nonzero">
            <g id="Group-13" transform="translate(240.000000, 538.000000)">
                <path d="M82.5,18.5 L93,18.5 C93.2761424,18.5 93.5,18.7238576 93.5,19 C93.5,19.2761424 93.2761424,19.5 93,19.5 L82.5,19.5 L82.5,30 C82.5,30.2761424 82.2761424,30.5 82,30.5 C81.7238576,30.5 81.5,30.2761424 81.5,30 L81.5,19.5 L71,19.5 C70.7238576,19.5 70.5,19.2761424 70.5,19 C70.5,18.7238576 70.7238576,18.5 71,18.5 L81.5,18.5 L81.5,8 C81.5,7.72385763 81.7238576,7.5 82,7.5 C82.2761424,7.5 82.5,7.72385763 82.5,8 L82.5,18.5 Z M12,10.5 C12.2761424,10.5 12.5,10.7238576 12.5,11 C12.5,11.2761424 12.2761424,11.5 12,11.5 L6,11.5 C3.51471863,11.5 1.5,13.5147186 1.5,16 L1.5,73 C1.5,75.4852814 3.51471863,77.5 6,77.5 L81,77.5 C83.4852814,77.5 85.5,75.4852814 85.5,73 L85.5,39 C85.5,38.7238576 85.7238576,38.5 86,38.5 C86.2761424,38.5 86.5,38.7238576 86.5,39 L86.5,73 C86.5,76.0375661 84.0375661,78.5 81,78.5 L6,78.5 C2.96243388,78.5 0.5,76.0375661 0.5,73 L0.5,16 C0.5,12.9624339 2.96243388,10.5 6,10.5 L12,10.5 Z M60.4470588,16.5 C60.7232012,16.5 60.9470588,16.7238576 60.9470588,17 C60.9470588,17.2761424 60.7232012,17.5 60.4470588,17.5 L8,17.5 C7.72385763,17.5 7.5,17.7238576 7.5,18 L7.5,72 C7.5,72.2761424 7.72385763,72.5 8,72.5 L79,72.5 C79.2761424,72.5 79.5,72.2761424 79.5,72 L79.5,65 C79.5,64.7238576 79.7238576,64.5 80,64.5 C80.2761424,64.5 80.5,64.7238576 80.5,65 L80.5,72 C80.5,72.8284271 79.8284271,73.5 79,73.5 L8,73.5 C7.17157288,73.5 6.5,72.8284271 6.5,72 L6.5,18 C6.5,17.1715729 7.17157288,16.5 8,16.5 L60.4470588,16.5 Z M15,11.5 C14.7238576,11.5 14.5,11.2761424 14.5,11 C14.5,10.7238576 14.7238576,10.5 15,10.5 L62,10.5 C62.2761424,10.5 62.5,10.7238576 62.5,11 C62.5,11.2761424 62.2761424,11.5 62,11.5 L15,11.5 Z M78.75,39.25 C78.75,38.9738576 78.9738576,38.75 79.25,38.75 C79.5261424,38.75 79.75,38.9738576 79.75,39.25 L79.75,60.75 C79.75,61.0261424 79.5261424,61.25 79.25,61.25 C78.9738576,61.25 78.75,61.0261424 78.75,60.75 L78.75,39.25 Z M34.1799204,36.7427814 C33.8761937,37.5020981 33.1407762,38 32.322967,38 L30,38 C28.8954305,38 28,38.8954305 28,40 L28,55 C28,56.6568542 29.3431458,58 31,58 L56,58 C57.6568542,58 59,56.6568542 59,55 L59,40 C59,38.8954305 58.1045695,38 57,38 L54.6766504,38 C53.8592239,38 53.1240698,37.5025577 52.820087,36.7437557 L52.0701962,34.8718778 C51.617244,33.7412183 50.5218212,33 49.3038078,33 L37.6925824,33 C36.47526,33 35.3805789,33.7411352 34.9284767,34.8713907 L34.1799204,36.7427814 Z M33.2514437,36.3713907 L34,34.5 C34.6039656,32.9900861 36.0663554,32 37.6925824,32 L49.3038078,32 C50.9305345,32 52.3935343,32.9899394 52.9984779,34.5 L53.7483687,36.3718778 C53.9003601,36.7512788 54.2679372,37 54.6766504,37 L57,37 C58.6568542,37 60,38.3431458 60,40 L60,55 C60,57.209139 58.209139,59 56,59 L31,59 C28.790861,59 27,57.209139 27,55 L27,40 C27,38.3431458 28.3431458,37 30,37 L32.322967,37 C32.7318716,37 33.0995804,36.7510491 33.2514437,36.3713907 Z M43.5,53.5 C39.6340068,53.5 36.5,50.3659932 36.5,46.5 C36.5,42.6340068 39.6340068,39.5 43.5,39.5 C47.3659932,39.5 50.5,42.6340068 50.5,46.5 C50.5,50.3659932 47.3659932,53.5 43.5,53.5 Z M43.5,52.5 C46.8137085,52.5 49.5,49.8137085 49.5,46.5 C49.5,43.1862915 46.8137085,40.5 43.5,40.5 C40.1862915,40.5 37.5,43.1862915 37.5,46.5 C37.5,49.8137085 40.1862915,52.5 43.5,52.5 Z M82,37.5 C71.7827321,37.5 63.5,29.2172679 63.5,19 C63.5,8.78273213 71.7827321,0.5 82,0.5 C92.2172679,0.5 100.5,8.78273213 100.5,19 C100.5,29.2172679 92.2172679,37.5 82,37.5 Z M82,36.5 C91.6649831,36.5 99.5,28.6649831 99.5,19 C99.5,9.33501688 91.6649831,1.5 82,1.5 C72.3350169,1.5 64.5,9.33501688 64.5,19 C64.5,28.6649831 72.3350169,36.5 82,36.5 Z" id="Combined-Shape"></path>
            </g>
        </g>
    </g>
</svg>