<?xml version="1.0" encoding="UTF-8"?>
<svg width="101px" height="79px" viewBox="0 0 101 79" version="1.1" xmlns="http://www.w3.org/2000/svg" xmlns:xlink="http://www.w3.org/1999/xlink">
    <!-- Generator: Sketch 52.2 (67145) - http://www.bohemiancoding.com/sketch -->
    <title>Group 13</title>
    <desc>Created with Sketch.</desc>
    <g id="Page-1" stroke="none" stroke-width="1" fill="none" fill-rule="evenodd">
        <g id="Изменить-профиль" transform="translate(-240.000000, -538.000000)">
            <g id="Group" transform="translate(150.000000, 451.000000)">
                <g id="Group-13" transform="translate(91.000000, 88.000000)">
                    <path d="M11,10 L5,10 C2.23857625,10 5.50001544e-16,12.2385763 8.8817842e-16,15 L0,72 C3.38176876e-16,74.7614237 2.23857625,77 5,77 L80,77 C82.7614237,77 85,74.7614237 85,72 L85,38" id="Path-2" stroke="#FFFFFF" stroke-linecap="round"></path>
                    <path d="M59.4470588,16 L7,16 C6.44771525,16 6,16.4477153 6,17 L6,71 C6,71.5522847 6.44771525,72 7,72 L78,72 C78.5522847,72 79,71.5522847 79,71 L79,64" id="Path-2" stroke="#FFFFFF" stroke-linecap="round"></path>
                    <path d="M14,10 L61,10" id="Path-4" stroke="#FFFFFF" stroke-linecap="round"></path>
                    <path d="M67.5,49 L89,49" id="Path-4" stroke="#FFFFFF" stroke-linecap="round" transform="translate(78.500000, 49.500000) rotate(90.000000) translate(-78.500000, -49.500000) "></path>
                    <path d="M32.7156821,35.557086 C32.487887,36.1265736 31.9363239,36.5 31.322967,36.5 L29,36.5 C27.6192881,36.5 26.5,37.6192881 26.5,39 L26.5,54 C26.5,55.9329966 28.0670034,57.5 30,57.5 L55,57.5 C56.9329966,57.5 58.5,55.9329966 58.5,54 L58.5,39 C58.5,37.6192881 57.3807119,36.5 56,36.5 L53.6766504,36.5 C53.0635805,36.5 52.512215,36.1269183 52.2842279,35.5578168 L51.5343371,33.6859389 C51.0053892,32.3655789 49.7261779,31.5 48.3038078,31.5 L36.6925824,31.5 C35.2708077,31.5 33.9922722,32.3656106 33.4642383,33.6856953 L32.7156821,35.557086 Z" id="Rectangle" stroke="#FFFFFF"></path>
                    <circle id="Oval" stroke="#FFFFFF" cx="42.5" cy="45.5" r="6.5"></circle>
                    <circle id="Oval" stroke="#FFFFFF" cx="81" cy="18" r="18"></circle>
                    <g id="Group-4" transform="translate(72.000000, 9.000000)" fill="#FFFFFF">
                        <path d="M17.5364228,4.64518172 C17.3572848,4.57436786 17.1525556,4.65955483 17.0799889,4.83939397 L16.7339826,5.69757377 C16.1176917,3.99909293 14.962234,2.56353482 13.4022258,1.59843312 C11.5687779,0.463658613 9.40229464,0.111342154 7.30347012,0.605636887 C4.28616887,1.31657995 1.93388684,3.51110834 1.16475021,6.33244452 C1.11356792,6.51894437 1.22399547,6.71175438 1.41084589,6.76293667 C1.59524236,6.81411896 1.79015575,6.70404198 1.84133804,6.51684099 C2.54246532,3.94370387 4.69702945,1.94023267 7.46437883,1.28853486 C9.38161138,0.836307762 11.3587903,1.15917688 13.0334328,2.19474187 C14.4844157,3.09253535 15.5567899,4.43274015 16.1113816,6.02079344 L15.1673137,5.54823365 C14.9944858,5.46234556 14.7837971,5.53175716 14.6968573,5.7049356 C14.6102681,5.87776348 14.6803808,6.08880279 14.8535592,6.17539201 L16.5148803,7.00692896 C16.5201388,7.00973347 16.5264489,7.00868178 16.532058,7.01113573 C16.5460805,7.01919869 16.5565974,7.03146842 16.5720222,7.037428 C16.6151415,7.05460562 16.6593126,7.06266858 16.703133,7.06266858 C16.8419562,7.06266858 16.9734176,6.97993556 17.0284561,6.84321574 L17.730635,5.10161558 C17.8028512,4.92177643 17.7159114,4.71774839 17.5364228,4.64518172 Z" id="Path"></path>
                        <path d="M16.7006791,10.9413047 C16.5141792,10.8918752 16.3210186,10.9994983 16.2698364,11.1866992 C15.5645023,13.7587847 13.4064325,15.7587502 10.6387326,16.4058907 C8.72114948,16.8542616 6.74432111,16.5292891 5.07073029,15.4902185 C3.6215002,14.5906722 2.55122941,13.248364 1.99944224,11.6589085 L2.94245843,12.1332211 C3.11668856,12.2201609 3.32632562,12.1503987 3.4132654,11.9775708 C3.50020518,11.8047429 3.43044302,11.5937036 3.25761514,11.5067639 L1.59769631,10.6724224 C1.59068503,10.6689168 1.58262207,10.6678651 1.57526023,10.6650606 C1.56299051,10.6580493 1.55387585,10.6475324 1.54055443,10.6419234 C1.36071529,10.5693567 1.15633668,10.6555953 1.08377001,10.8350839 L0.378435966,12.5752818 C0.305869292,12.755121 0.392107948,12.9594996 0.571596532,13.0320663 C0.614715859,13.0495944 0.659588005,13.0576574 0.70340846,13.0576574 C0.841881098,13.0576574 0.973342464,12.9752749 1.02838096,12.8389057 L1.37614009,11.9807259 C1.98962646,13.680609 3.14263027,15.1182705 4.70123622,16.0858261 C5.99586774,16.8900191 7.45736756,17.3036842 8.94480908,17.3036842 C9.56145053,17.3036842 10.1826493,17.2328704 10.7982391,17.0887887 C13.8169426,16.3831041 16.1727302,14.1927825 16.9464242,11.372498 C16.9972559,11.185297 16.8875295,10.992487 16.7006791,10.9413047 Z" id="Path"></path>
                    </g>
                </g>
            </g>
        </g>
    </g>
</svg>