<svg width="277" height="138" viewBox="0 0 277 138" fill="none" xmlns="http://www.w3.org/2000/svg">
<path fill-rule="evenodd" clip-rule="evenodd" d="M3 129C1.97468 129 0.455696 128.548 0 127.983C1.48101 125.608 1.78481 116.3 1.78481 113.21C1.78481 108.952 2.08861 104.882 3.79747 102.093C3.94937 101.829 4.63291 101 6.1519 101C7.59494 101 9.22785 101.716 10.9747 107.67C12.4177 112.532 14.0127 117.205 14.0127 117.205C14.0127 117.242 18.2278 103.676 22.519 103.676C23.2785 103.676 24.1899 104.166 24.9873 105.824C26.1266 108.16 26.1646 115.245 26.1646 118.448C26.1646 123.573 26.2405 126.023 27 127.606C26.6203 128.435 25.519 128.925 24.4557 128.925C21.7975 128.925 21.4177 126.927 21.4177 122.933C21.4177 117.958 21.6835 115.17 21.6835 110.497C21.6835 110.12 21.6456 109.894 21.4937 109.894C21.2278 109.894 21.2278 110.271 20.3165 112.23C18.6835 115.773 16.7848 120.219 15.8734 120.898C15.3038 121.312 14.6582 121.538 13.8608 121.538C12.4177 121.538 11.3544 120.86 10.7089 119.579C9.49367 117.092 7.67089 109.065 7.02532 109.065C6.98734 109.065 6.87342 108.952 6.75949 108.952C6.60759 108.952 6.56962 109.14 6.56962 109.931C6.64557 112.456 6.75949 115.358 6.75949 118.147C6.75949 123.875 6.1519 129 3 129ZM37.4737 112C41.2316 112 43 115.517 43 119.347C43 123.88 40.4947 128.921 35.6316 128.999C31.0632 129.077 29 125.013 29 121.613C29 118.8 30.2895 116.259 32.6474 116.259H32.7211C33.0158 113.407 34.9684 112 37.4737 112ZM35.2727 127C37.2424 127 38 123.198 38 120.584C38 117.812 37.3182 115 34.9697 115C34.0606 115 33.4167 115.832 33.0758 116.386C34.25 116.822 34.6667 118.01 34.6667 119.317C34.6667 119.871 34.5909 120.386 34.4773 120.901C33.4924 121.297 33 122.604 33 123.911C33 125.455 33.9848 127 35.2727 127ZM58.9354 110.451C54.6286 109.537 44.9912 109.666 44.0328 114.169C43.5416 116.478 48.7193 117.102 49.0656 115.475C49.186 114.909 49.9909 114.53 51.1245 114.311C51.2053 114.694 51.3751 115.048 51.6318 115.316C52.0208 115.722 52.0195 118.506 52.0191 119.223C52.0191 119.242 52.0191 119.26 52.0191 119.276C52.0191 122.409 51.3993 126.756 51.2831 127.491C51.9029 128.458 52.8326 129 53.801 129C55.5829 129 55.9315 120.148 55.9315 119.121C55.9702 118.657 55.9702 118.193 55.9702 117.767C55.9702 116.594 55.7515 115.245 55.3242 114.12C56.6196 114.199 57.8818 114.386 58.8479 114.664C60.0414 114.285 60.8153 113.263 60.9683 112.544C61.1536 111.673 60.5323 110.79 58.9354 110.451ZM69.4737 112C73.2316 112 75 115.517 75 119.347C75 123.88 72.4947 128.921 67.6316 128.999C63.0632 129.077 61 125.013 61 121.613C61 118.8 62.2895 116.259 64.6474 116.259H64.7211C65.0158 113.407 66.9684 112 69.4737 112ZM68.2727 127C70.2424 127 71 123.198 71 120.584C71 117.812 70.3182 115 67.9697 115C67.0606 115 66.4167 115.832 66.0758 116.386C67.25 116.822 67.6667 118.01 67.6667 119.317C67.6667 119.871 67.5909 120.386 67.4773 120.901C66.4924 121.297 66 122.604 66 123.911C66 125.455 66.9848 127 68.2727 127ZM92.3876 125.019C92.8086 125.37 93 125.992 93 126.42C93 128.327 89.7464 130 87.1818 130C83.622 130 81.555 127.665 81.555 125.097C81.555 121.829 83.4689 119.144 84.3493 117.626C79.4498 116.848 77 115.953 77 112.957C77 110.817 78.3397 110 79.7943 110C80.9809 110 82.8947 110.311 82.8947 112.062C82.8947 112.763 82.7033 113.268 82.2057 114.086C85.1914 114.747 90.1292 114.669 90.1292 116.77C90.1292 118.872 86.7225 122.374 86.7225 125.175C86.7225 126.342 87.4498 126.926 88.4833 126.926C89.5933 126.926 91.1244 125.992 92.3876 125.019ZM108.851 125.671C109 126.019 109 126.6 109 126.91C109 128.148 107.775 129 106.401 129C102.874 129 101.314 125.71 99.6436 121.994L98.604 122.613C98.5668 123.387 98.5297 124.277 98.4926 125.323C98.4183 126.91 98.0099 129 96.2649 129C95.4851 129 94.7426 128.652 94.2228 128.265C94.6312 126.019 94.9653 123.697 94.9653 120.871C94.9653 117.968 94.6683 115.065 94 112.123C95.3738 111.31 96.1906 111 96.9703 111C98.4554 111 99.0866 112.277 99.0866 114.832C99.0866 116.613 98.9753 117.658 98.8267 119.4C100.795 117.813 103.022 115.181 103.394 111.813C103.95 111.503 104.879 111.31 105.51 111.31C106.587 111.31 107.515 111.852 107.515 113.361C107.515 115.413 106.104 117.503 102.651 120.019C103.134 121.026 103.839 122.148 104.73 123.271C105.918 124.703 107.032 125.323 108.851 125.671ZM125.111 122.773C125.111 125.099 125.667 126.044 127 126.872C126.889 127.818 126.222 129 124.778 129C123.593 129 121.222 128.291 120.63 124.665C119.185 126.872 117.148 129 114.704 129C112.481 129 111.185 127.581 111.185 124.074C111.185 122.734 111.296 120.015 111.296 117.256C111.296 115.443 111.222 114.537 111 113.315C111.926 113.158 112.852 113 113.741 113C115.667 113 116.111 114.025 116.111 115.995C116.111 117.335 115.889 120.527 115.889 122.734C115.889 124.074 116.074 125.02 117.037 125.02C117.519 125.02 118.556 124.507 120.556 121.236C120.667 119.581 120.852 117.847 120.852 116.389C120.852 115.286 120.778 114.143 120.556 113.355C121.111 113.276 121.667 113.197 122.148 113.197C124.222 113.197 125.407 114.025 125.407 117.493C125.407 118.517 125.111 120.921 125.111 122.773ZM161.885 124.435C161.962 124.815 162 125.158 162 125.5C162 127.402 160.855 128.81 157.915 128.81C153.409 128.81 150.622 123.065 147.72 116.902L147.224 117.168L145.925 117.663C145.773 121.163 145.582 124.13 145.505 125.804C145.429 127.516 144.856 129 143.329 129C142.489 129 141.84 128.81 141.42 128.543C141.267 128.011 141 112.489 141 105.185C141 102.712 142.184 101 144.513 101C145.162 101 145.62 101.152 146.155 101.457C146.345 102.293 146.155 104.386 146.155 108.685V109.636C146.155 111.158 146.116 112.679 146.078 114.163C149.018 112.451 154.211 108.038 154.86 102.293C155.662 101.875 156.655 101.609 157.571 101.609C159.098 101.609 159.938 102.332 159.938 104.386C159.938 107.505 157.647 110.739 151.118 114.886C151.996 116.484 152.989 118.196 154.555 120.022C156.54 122.38 158.831 123.864 161.885 124.435ZM164.075 125.843C164.746 125.691 165.492 125.273 165.641 125.197C167.021 124.018 167.991 120.139 170.228 115.309C171.235 113.141 172.951 112 174.555 112C175.375 112 176.681 112.228 177.837 112.799C177.65 114.32 177.501 116.183 177.501 118.047C177.501 121.584 178.061 125.235 180 127.327C179.851 128.277 178.508 129 177.389 129C173.921 129 173.51 124.132 173.51 121.964C173.51 120.633 173.622 119.644 173.622 117.667C173.622 116.982 173.548 116.45 173.361 116.412C173.026 116.45 172.317 119.264 170.974 122.801C169.893 125.691 168.998 129 166.312 129C164.522 129 164 127.973 164 126.756C164 126.452 164.037 126.148 164.075 125.843ZM192.234 112C194.589 112 195 113.766 195 115.757C195 119.327 191 138 183.822 138C180.907 138 180.383 136.61 180.421 135.37C180.421 134.656 180.57 133.717 180.981 133.717C181.318 133.717 181.692 134.092 182.551 134.092C185.579 134.092 188.533 127.555 188.57 127.142C188.907 126.202 189.168 125.263 189.43 124.286C188.533 125.451 187.336 126.39 185.991 126.39C183.299 126.39 181.766 120.679 181.318 118.613C180.869 116.584 179.897 114.142 179 113.315C179 113.315 180.869 112.301 182.439 112.301C183.374 112.301 184.196 112.676 184.682 113.803C185.579 116.058 185.953 123.197 187.71 123.197C188.383 123.197 189.505 121.994 190.252 120.003H190.29C190.477 118.65 190.589 117.26 190.589 115.832C190.589 114.63 190.514 113.465 190.29 112.338C191.112 112.113 191.636 112 192.234 112ZM208.929 115.097C209.617 116.371 210 118.534 210 120.233C210 124.327 207.705 128.846 202.617 129C198.257 129 196 125.447 196 121.701C196 117.028 198.563 113.745 201.891 112.625C199.787 111.234 197.109 110.076 197.109 107.72C197.109 103.124 204.377 101 207.781 101C209.044 101 209.656 101.734 209.656 102.622C209.656 103.356 209.235 104.514 208.393 105.132C205.869 104.901 201.126 106.252 201.126 107.952C201.126 109.612 207.475 112.046 208.661 114.594C208.738 114.788 208.852 114.942 208.929 115.097ZM203.835 127C205.303 127 206 124.182 206 121.404C206 118.663 205.339 116 204.239 116C202.771 116 202 119.551 202 121.828C202 124.221 202.55 127 203.835 127ZM220.474 112C224.232 112 226 115.517 226 119.347C226 123.88 223.495 128.921 218.632 128.999C214.063 129.077 212 125.013 212 121.613C212 118.8 213.289 116.259 215.647 116.259H215.721C216.016 113.407 217.968 112 220.474 112ZM218.273 126C220.242 126 221 122.198 221 119.584C221 116.812 220.318 114 217.97 114C217.061 114 216.417 114.832 216.076 115.386C217.25 115.822 217.667 117.01 217.667 118.317C217.667 118.871 217.591 119.386 217.477 119.901C216.492 120.297 216 121.604 216 122.911C216 124.455 216.985 126 218.273 126ZM242.388 125.019C242.809 125.37 243 125.992 243 126.42C243 128.327 239.746 130 237.182 130C233.622 130 231.555 127.665 231.555 125.097C231.555 121.829 233.469 119.144 234.349 117.626C229.45 116.848 227 115.953 227 112.957C227 110.817 228.34 110 229.794 110C230.981 110 232.895 110.311 232.895 112.062C232.895 112.763 232.703 113.268 232.206 114.086C235.191 114.747 240.129 114.669 240.129 116.77C240.129 118.872 236.722 122.374 236.722 125.175C236.722 126.342 237.45 126.926 238.483 126.926C239.593 126.926 241.124 125.992 242.388 125.019ZM258.851 125.671C259 126.019 259 126.6 259 126.91C259 128.148 257.775 129 256.401 129C252.874 129 251.314 125.71 249.644 121.994L248.604 122.613C248.567 123.387 248.53 124.277 248.493 125.323C248.418 126.91 248.01 129 246.265 129C245.485 129 244.743 128.652 244.223 128.265C244.631 126.019 244.965 123.697 244.965 120.871C244.965 117.968 244.668 115.065 244 112.123C245.374 111.31 246.191 111 246.97 111C248.455 111 249.087 112.277 249.087 114.832C249.087 116.613 248.975 117.658 248.827 119.4C250.795 117.813 253.022 115.181 253.394 111.813C253.951 111.503 254.879 111.31 255.51 111.31C256.587 111.31 257.515 111.852 257.515 113.361C257.515 115.413 256.104 117.503 252.651 120.019C253.134 121.026 253.839 122.148 254.73 123.271C255.918 124.703 257.032 125.323 258.851 125.671ZM275.111 121.773C275.111 124.099 275.667 125.044 277 125.872C276.889 126.818 276.222 128 274.778 128C273.593 128 271.222 127.291 270.63 123.665C269.185 125.872 267.148 128 264.704 128C262.481 128 261.185 126.581 261.185 123.074C261.185 121.734 261.296 119.015 261.296 116.256C261.296 114.443 261.222 113.537 261 112.315C261.926 112.158 262.852 112 263.741 112C265.667 112 266.111 113.025 266.111 114.995C266.111 116.335 265.889 119.527 265.889 121.734C265.889 123.074 266.074 124.02 267.037 124.02C267.519 124.02 268.556 123.507 270.556 120.236C270.667 118.581 270.852 116.847 270.852 115.389C270.852 114.286 270.778 113.143 270.556 112.355C271.111 112.276 271.667 112.197 272.148 112.197C274.222 112.197 275.407 113.025 275.407 116.493C275.407 117.517 275.111 119.921 275.111 121.773Z" fill="#77BE32"/>
<path fill-rule="evenodd" clip-rule="evenodd" d="M111.568 14.7169C111.31 16.3394 110.56 17.0512 108.815 16.9561C103.756 16.6746 101.352 18.5661 100.102 23.599C99.9877 24.0626 100.008 24.5137 99.4183 24.7248C95.5309 26.1031 91.9712 34.8776 93.2738 39.269C95.2851 45.9616 97.0138 52.7412 98.8653 59.4835C99.4772 61.1129 100.28 62.6623 101.258 64.0984C103.048 66.0892 104.379 68.4111 105.899 70.5965C107.677 73.1543 109.684 75.439 112.727 76.5275C113.289 76.7262 117.328 82.2931 122.489 81.5315C125.324 81.1176 128.023 81.6929 130.657 82.7401C134.68 84.3335 138.784 85.4676 143.171 84.8095C143.775 84.7425 144.366 84.5921 144.929 84.3625C147.94 82.976 151.008 83.1871 154.109 83.9486C156.181 84.2756 158.283 84.2922 160.368 84.4826C161.343 84.5695 162.457 84.4826 162.731 83.1208L158.987 82.4752C160.089 81.4032 161.036 80.4637 161.998 79.549C163.981 77.6616 165.611 75.5963 165.685 72.6618C165.717 71.8785 166.197 71.1855 166.914 70.8862C167.864 70.3937 168.802 69.9425 168.204 68.556C167.962 67.9972 168.384 67.8565 168.835 67.8151C170.977 67.6247 172.763 66.3417 175 65.9195C174.386 64.5288 173.312 63.5769 172.927 62.2441C172.889 61.9959 172.741 61.7788 172.525 61.654C172.309 61.5293 172.048 61.5103 171.817 61.6026C171.24 61.7764 171.162 62.2772 171.223 62.7656C171.321 63.5934 171.375 64.3136 170.306 64.4626C169.322 64.5992 168.511 64.3426 168.143 63.3409C166.623 59.202 163.379 56.7518 159.844 54.5582C158.103 53.4779 156.337 52.4101 154.715 51.1642C150.246 47.7413 144.74 46.4541 139.939 43.7142C134.905 40.8169 129.604 38.3874 125.377 34.236C121.94 30.8587 119.277 26.8232 116.115 23.21C114.591 21.4675 113.141 19.6546 111.462 17.639C114.042 17.73 116.037 18.682 117.868 19.9112C122.166 22.7153 126.722 25.0925 131.472 27.0095C138.485 29.944 144.126 34.5796 148.067 41.1687C149.943 44.306 153.273 44.9765 156.149 46.4417C156.452 46.5949 156.71 46.508 156.796 46.2099C156.964 45.6139 156.452 45.3573 156.099 45.0676C153.179 42.6712 150.66 39.8484 147.907 37.2575C140.669 30.4271 132.488 24.6942 123.62 20.2382C120.752 18.7855 117.958 17.2085 115.869 14.6258C114.812 13.3179 114.231 11.7741 113.579 10.2676C113.438 10.0966 113.229 9.99842 113.008 10C112.788 10.0016 112.579 10.1028 112.441 10.2758C112.146 11.7576 111.806 13.2269 111.568 14.7169Z" fill="#85C44E"/>
<path fill-rule="evenodd" clip-rule="evenodd" d="M179.106 42.4664C178.52 41.9958 177.893 41.5787 177.233 41.2201C161.822 34.411 148.927 23.6842 135.149 14.3243C130.658 11.2708 125.64 9.05649 120.501 7.21608C119.621 6.87126 118.877 6.80063 118.807 8.07189C120.685 10.1135 123.021 11.6798 125.623 12.6418C135.846 16.5386 144.611 22.7495 152.774 29.8951C154.48 31.3768 156.164 32.8987 157.825 34.4608C158.656 35.2543 159.553 36.0603 159.661 37.56C157.372 36.8144 155.212 35.72 153.256 34.3154C147.956 30.553 142.42 27.1351 136.681 24.0831C130.272 20.7595 124.693 16.1689 118.553 12.4507C118.2 12.2346 117.847 12.0144 117.486 11.815C116.655 11.3663 115.766 10.9841 115.176 12.0892C114.669 13.053 115.346 13.5931 116.077 14.1C125.108 20.3648 134.326 26.3181 143.909 31.7314C152.683 36.6834 161.149 42.1507 169.457 47.9669C172.248 49.9194 174.786 52.0881 175.758 56.2342L165.34 50.4512C164.621 50.3515 164.301 50.6465 164.418 51.3735C165.406 53.6917 167.55 54.7884 169.44 56.1594C170.109 56.6455 170.79 57.1191 171.467 57.5968C172.834 59.0052 173.424 60.8954 174.475 62.499C175.405 63.0807 176.327 63.4463 176.61 61.9008C177.059 59.4082 178.247 57.2354 179.293 54.9878C180.486 52.4204 180.257 51.6103 177.931 49.9568C173.498 46.8977 169.59 43.1388 166.362 38.8271C169.934 39.9862 172.215 42.8694 175.617 43.4635C176.859 43.397 178.483 44.7098 179.106 42.4664Z" fill="#86C34F"/>
<path fill-rule="evenodd" clip-rule="evenodd" d="M123.279 2.64518C133.9 7.68396 149.553 17.6188 164.284 28.7419C166.308 30.2725 168.492 31.5655 170.795 32.5965C174.431 34.1717 177.901 36.1246 181.151 38.4247C181.629 38.7732 182.156 39.3905 182.711 38.6557C183.181 38.0342 183.062 37.3456 182.466 36.7913C180.73 35.1705 179.921 33.0122 179.3 30.7868C178.69 28.3327 177.337 26.1416 175.436 24.5303C174.092 23.4176 173.328 21.9857 173.52 20.1423C173.63 19.1094 173.328 18.425 172.294 18.0681C171.364 17.7658 170.609 17.06 170.227 16.1365C169.41 14.037 167.736 12.9201 166.069 11.6898C163.418 9.73726 160.648 7.88131 158.307 5.57187C155.477 2.77115 152.278 1.59963 148.45 1.37289C145.125 1.18393 141.82 0.793429 138.479 1.01597C137.599 1.11691 136.708 1.04133 135.856 0.793429C134.545 0.323143 133.503 0.478505 132.49 1.45267C131.477 2.42683 130.162 2.46043 128.879 1.89776C127.694 1.37709 126.53 0.797628 125.325 0.314745C123.769 -0.306705 122.502 -0.105154 122 1.80538C122.172 2.48982 122.891 2.29247 123.279 2.64518Z" fill="#86C44F"/>
<path fill-rule="evenodd" clip-rule="evenodd" d="M121.929 0.904159L120.621 0C115.746 1.30199 112.983 4.74684 112 10L113.179 9.94575C113.762 8.74774 114.667 7.83454 115.467 6.8264C116.85 5.08137 118.383 4.4349 120.3 5.84087C120.612 4.98192 121.321 4.9774 122 4.90958C121.742 4.66546 121.492 4.40778 121.221 4.18626C120.55 3.64376 119.3 3.55335 119.592 2.21971C119.883 0.886076 120.938 0.904159 121.929 0.904159Z" fill="#ABD686"/>
<path fill-rule="evenodd" clip-rule="evenodd" d="M131 32C134.312 36.0468 138.452 39.0351 142.808 41.7769C143.106 41.964 143.462 42.1297 143.756 41.8534C144.053 41.5296 144.082 41.0346 143.826 40.6759C143.635 40.2208 143.336 39.8219 142.957 39.5155C138.999 36.999 135.372 33.9341 131 32Z" fill="#B6DA96"/>
<path fill-rule="evenodd" clip-rule="evenodd" d="M180.42 42C179.529 43.3464 178.185 42.8976 177 43.0636C177.41 43.3008 177.837 43.4975 178.279 43.6515C180.18 44.1272 181.019 45.3435 180.722 47.5201C180.661 47.9689 180.27 48.6151 180.848 48.9248C181.292 49.1671 181.744 48.7677 182.155 48.5209C183.467 47.7812 184.194 46.1919 183.955 44.5895C183.714 42.2962 181.911 42.3501 180.42 42Z" fill="#A6D47F"/>
<path fill-rule="evenodd" clip-rule="evenodd" d="M166.023 51L167 49.8125C164.957 48.1329 162.924 46.4426 160.868 44.7897C160.375 44.3939 159.798 43.4471 159.217 44.4367C158.698 45.3193 159.195 46.2286 159.824 46.694C161.863 48.1917 163.954 49.5718 166.023 51Z" fill="#AFD78B"/>
<path fill-rule="evenodd" clip-rule="evenodd" d="M177 63C176.718 61.7288 176.022 60.6153 174 60C174 60.3356 174.046 60.6737 174.037 61.0169C174.021 62.6949 174.099 62.7407 177 63Z" fill="#B0D88F"/>
<path fill-rule="evenodd" clip-rule="evenodd" d="M137.137 62.3446C145.454 68.3734 154.575 73.0005 163.633 77.7516C164.748 78.3346 164.881 77.8301 164.956 76.875C165.417 71.3589 162.236 66.0165 156.675 63.2295C153.421 61.6015 150.326 59.676 147.43 57.4777C150.907 57.3991 152.862 60.5376 156.027 60.2027C145.093 51.8128 132.516 46.5572 119.802 41.4794C121.22 43.5841 123.429 44.8494 125.138 46.6233C125.683 47.5496 127.018 47.7894 127.288 49.1043C125.808 49.1043 124.934 47.9796 123.77 47.5206C116.779 43.8984 111.584 38.1218 105.961 32.8538C104.467 31.4143 102.834 30.1235 101.087 29C100.752 31.2438 101.396 33.5232 102.859 35.2645C105.142 38.0846 108.041 40.2265 111.081 42.1203C115.751 45.0562 120.484 47.9093 125.221 50.7459C126.84 51.6722 128.312 52.83 129.592 54.1821C132.063 56.6631 135.319 57.9656 138.147 59.9132C139.22 60.6492 140.376 61.2695 141.566 62.1378C140.156 62.3032 139.162 61.3108 137.956 61.3108C137.407 61.4473 136.962 61.6582 137.137 62.3446Z" fill="#FDFDFD"/>
<path fill-rule="evenodd" clip-rule="evenodd" d="M144.292 75.8255C146.6 76.8271 149.018 77.5347 151.492 77.9326C152.567 77.9931 153.778 78.3299 154 76.6373C138.792 66.1321 123.83 55.2426 108.241 45.3463C105.124 43.3687 101.433 42.4058 98.7 39.6943C98.3097 39.3896 97.851 39.192 97.3668 39.12C96.9155 39.0121 96.2969 38.8394 96.042 39.3273C95.8999 39.595 96.1507 40.139 96.3137 40.519C97.8809 44.1934 100.008 47.5267 103.072 49.9749" fill="#FDFDFD"/>
<path fill-rule="evenodd" clip-rule="evenodd" d="M129.894 41.8133C123.963 38.5395 119.9 33.2687 115.619 28.2476C113.986 26.237 112.165 24.3858 110.18 22.719C108.666 21.4914 106.971 20.4151 104.943 21.3604C102.817 22.3508 101.963 24.4419 101.073 26.4389C100.843 26.9545 101.2 27.1918 101.549 27.4005C110.714 32.8964 119.653 38.7973 129.541 43C129.967 42.7693 130.125 42.2382 129.894 41.8133Z" fill="#FDFDFD"/>
<path fill-rule="evenodd" clip-rule="evenodd" d="M104 53C105.454 57.1392 107.81 59.9146 110.117 62.6639C116.234 69.952 123.593 75.5679 131.368 80.5367C135.414 83.1426 139.957 83.9722 144.628 83.9722C145.133 83.9722 145.882 84.1807 145.99 83.4554C146.098 82.73 145.317 82.6909 144.852 82.4607C140.666 80.4064 136.504 78.2912 132.286 76.328C122.36 71.7601 113.597 64.6636 106.74 55.6407C106.187 54.9197 105.566 54.2552 104.961 53.5863C104.658 53.3601 104.336 53.1639 104 53Z" fill="#FCFDFC"/>
<path fill-rule="evenodd" clip-rule="evenodd" d="M102.223 63C101.681 64.4923 102.248 65.3733 102.643 66.2164C105.855 72.881 111.365 77.1765 117.599 80.7344C118.183 81.0674 118.578 81.2739 118.439 80.1737C118.309 79.2379 119.129 79.5835 119.616 79.7522C120.701 80.1315 121.76 80.3887 123 79.3854C114.156 76.3967 108.049 70.0271 102.223 63Z" fill="#FBFCFB"/>
<path fill-rule="evenodd" clip-rule="evenodd" d="M156 81.3478C144.663 79.187 134.342 74.4025 124.443 68.5244C122.122 67.1441 119.83 65.7198 117 64C117.6 65.1977 118.511 66.2031 119.632 66.906C129.145 73.8699 139.907 78.8449 151.301 81.5462C152.148 81.6923 153.004 81.7792 153.863 81.8064C154.583 81.6873 155.5 82.5605 156 81.3478Z" fill="#F9FBF7"/>
<path fill-rule="evenodd" clip-rule="evenodd" d="M158 58.5404C154.81 54.6989 150.996 51.8442 146.982 49.2973C146.815 49.2223 146.641 49.1686 146.463 49.1371C145.919 48.96 145.306 48.8335 145.055 49.5588C144.805 50.284 145.462 50.4654 145.847 50.7395C148.462 52.592 151.084 54.4333 153.714 56.2634C155.035 57.1868 156.363 58.0892 157.688 59L158 58.5404Z" fill="#F8FBF6"/>
<path fill-rule="evenodd" clip-rule="evenodd" d="M138.189 61.566C139.587 62.3535 140.908 63.5517 143 62.7159C138.667 59.2325 134.576 55.952 130.305 53C130.513 54.0919 129.255 55.464 130.721 56.3143C131.328 57.2178 132.214 57.5512 133.052 57.9038C134.972 58.73 136.418 60.4741 138.189 61.566Z" fill="#A3D279"/>
<path fill-rule="evenodd" clip-rule="evenodd" d="M96.4201 36C96.8929 33.8029 96.9096 31.7816 96.9933 29.7427C97.0226 28.9737 96.9933 28.2135 96.0937 28.029C95.2819 27.862 94.8384 28.442 94.4701 29.11C93.4031 31.1225 94.194 34.1061 96.4201 36Z" fill="#F9FBF6"/>
<path fill-rule="evenodd" clip-rule="evenodd" d="M137 61.9076C134.96 58.5217 132.014 57.1793 129 56C129.449 58.0543 130.712 59.1467 132.018 60.125C133.323 61.1033 134.792 62.0489 136.182 63C136.32 62.4998 136.618 62.1014 137 61.9076Z" fill="#CEE6B9"/>
<path fill-rule="evenodd" clip-rule="evenodd" d="M152.4 74C151.924 74.9439 150.8 74.7317 150 75.0976C152.4 76.2646 155.012 76.5354 158 77C156.436 75.039 154.276 74.7463 152.4 74Z" fill="#C2E1A7"/>
<path fill-rule="evenodd" clip-rule="evenodd" d="M129.39 42L129 42.7858C131.438 43.8146 134.194 44.4275 137 45C135.279 43.2448 132.264 42.6832 129.39 42Z" fill="#CCE5B7"/>
<path fill-rule="evenodd" clip-rule="evenodd" d="M123 46.8423C123.48 48.0489 124.335 48.5156 125.227 48.914C125.484 49.1005 125.804 48.9738 125.946 48.6294C126.055 48.3371 125.996 47.9814 125.805 47.7795C125.267 47.0206 124.815 46.0759 123.923 46C123.842 46.755 123.432 46.8423 123 46.8423Z" fill="#C4E2AA"/>
<path fill-rule="evenodd" clip-rule="evenodd" d="M155.757 81C155.541 81.7288 155.248 81.2227 155 81.5061C155.263 82.1378 155.616 82.1659 155.888 81.577C156.157 80.9545 155.871 81.0506 155.757 81Z" fill="#C8E4AF"/>
<path fill-rule="evenodd" clip-rule="evenodd" d="M161.84 18.4944C161.402 18.2335 160.917 18.0366 160.908 17.295C163.219 17.2309 164.816 18.6317 166.361 20.115C167.486 21.1954 168.549 22.3307 169.696 23.3974C170.26 23.9238 170.952 24.3129 171.643 23.6491C172.335 22.9853 171.875 22.1979 171.486 21.6028C171.092 21.0666 170.616 20.6025 170.077 20.2294C164.974 16.3199 159.788 12.5202 155.297 7.81412C154.693 7.26905 154.032 6.79613 153.328 6.40413C152.657 5.89702 151.76 5.86446 151.057 6.32172C150.212 6.88939 150.457 7.7775 150.698 8.61068C150.868 9.18292 151.293 9.81925 150.737 10.2954C150.041 10.8859 149.582 10.0344 149.03 9.77805C147.906 9.25617 146.794 8.70224 145.656 8.2124C145.14 7.98809 144.483 7.65848 144.107 8.36805C143.73 9.07763 144.439 9.41182 144.825 9.82383C145.945 11.0965 147.551 11.5314 148.908 12.3966C152.453 14.649 155.998 16.8876 159.293 19.5336C159.941 20.0555 160.672 20.5041 161.481 19.9914C161.998 19.6251 162.444 19.1628 161.84 18.4944Z" fill="#FDFDFC"/>
<path fill-rule="evenodd" clip-rule="evenodd" d="M141.887 9.0601C140.472 9.35024 141.01 9.91844 141.715 10.4343C143.293 11.5868 144.863 12.7594 146.503 13.8313C151.176 16.894 155.943 19.8155 160.167 23.5028C160.371 23.2771 160.502 23.1965 160.526 23.0998C160.693 22.3704 159.429 21.5725 160.469 20.964C161.256 20.5046 161.77 21.4395 162.373 21.8022C165.876 23.9178 169.371 26.0536 173 28C170.574 24.4619 166.728 22.58 163.544 19.9405C162.626 18.5099 161.154 17.7765 159.666 17.172C155.544 15.4842 151.61 13.3802 147.926 10.8936C146.107 9.65651 144.17 8.75384 141.887 9.0601Z" fill="#FCFDFB"/>
<path fill-rule="evenodd" clip-rule="evenodd" d="M143 8.59828C145.841 9.11481 148.33 10.4188 150.658 12.1166C153.362 14.0896 156.373 15.5037 159.388 16.8924C161.318 17.7899 163.116 18.9542 165 20C165 17.303 162.643 16.5325 161.157 15.0464C160.933 17.0321 159.993 16.2827 159.115 15.5883C155.331 12.6773 151.327 10.0767 147.142 7.81079C146.487 7.44668 145.862 6.96402 145.071 7.00212C144.698 7.98861 143.688 8.07752 143 8.59828Z" fill="#A8D481"/>
<path fill-rule="evenodd" clip-rule="evenodd" d="M134 6C136.221 7.65424 138.042 8.69923 141 9C139.453 7.15681 137.283 6.3856 134 6Z" fill="#EEF5E7"/>
<path fill-rule="evenodd" clip-rule="evenodd" d="M172.99 81C171.561 81.0827 170.097 80.9173 170.005 82.2399C169.912 83.5624 171.162 84.0707 172.817 83.9922C174.471 83.9137 176.994 83.8021 177 82.6118C177.017 81.5951 174.587 81.0661 172.99 81Z" fill="#FBFCFB"/>
<path fill-rule="evenodd" clip-rule="evenodd" d="M93.4839 74C92.6394 74.0333 91.965 74.1198 92.0014 75.0252C92.0318 76.1935 92.7518 76.8225 93.727 76.969C94.0582 77.0557 94.4071 76.958 94.6597 76.7079C94.9123 76.4577 95.0362 76.0872 94.9908 75.7175C94.927 74.6158 94.2161 74.1365 93.4839 74Z" fill="#FBFCFA"/>
<path fill-rule="evenodd" clip-rule="evenodd" d="M138 53.4651L135.22 51L135 51.3965C135.368 52.7756 136.015 53.7134 137.215 53.8651C137.522 53.903 137.925 54.3202 138 53.4651Z" fill="#B0D88C"/>
<path fill-rule="evenodd" clip-rule="evenodd" d="M137.602 56C137.461 56.6098 137.221 56.4439 137 56.5463C137.299 57.239 137.651 56.8829 138 57C137.983 56.2341 137.756 56.2146 137.602 56Z" fill="#C1E0A6"/>
</svg>
