<?xml version="1.0" encoding="UTF-8"?>
<svg width="20px" height="17px" viewBox="0 0 20 17" version="1.1" xmlns="http://www.w3.org/2000/svg" xmlns:xlink="http://www.w3.org/1999/xlink">
    <!-- Generator: Sketch 52.2 (67145) - http://www.bohemiancoding.com/sketch -->
    <title>Path</title>
    <desc>Created with Sketch.</desc>
    <g id="Page-1" stroke="none" stroke-width="1" fill="none" fill-rule="evenodd">
        <g id="Личный-кабинет" transform="translate(-1270.000000, -606.000000)" fill="#564531">
            <g id="заказ1" transform="translate(441.000000, 522.000000)">
                <g id="заказ" transform="translate(0.000000, 54.000000)">
                    <g id="repeat" transform="translate(829.000000, 30.000000)">
                        <path d="M2.19591837,16.2918367 L17.8040816,16.2918367 C19.0163265,16.2918367 20,15.3081633 20,14.0959184 L20,4.76122449 C20,3.54897959 19.0163265,2.56530612 17.8040816,2.56530612 L13.2734694,2.56530612 C12.9959184,2.56530612 12.7714286,2.78979592 12.7714286,3.06734694 C12.7714286,3.34489796 12.9959184,3.56938776 13.2734694,3.56938776 L17.8040816,3.56938776 C18.4653061,3.56938776 19,4.10408163 19,4.76530612 L19,14.1 C19,14.7612245 18.4653061,15.2959184 17.8040816,15.2959184 L2.19591837,15.2959184 C1.53469388,15.2959184 1,14.7612245 1,14.1 L1,4.76122449 C1,4.1 1.53469388,3.56530612 2.19591837,3.56530612 L8.79183673,3.56530612 L7.11428571,5.24285714 C6.91836735,5.43877551 6.91836735,5.75306122 7.11428571,5.94897959 C7.2122449,6.04693878 7.33877551,6.09591837 7.46938776,6.09591837 C7.6,6.09591837 7.72653061,6.04693878 7.8244898,5.94897959 L10.355102,3.41836735 C10.5510204,3.22244898 10.5510204,2.90816327 10.355102,2.7122449 L7.8244898,0.181632653 C7.62857143,-0.0142857143 7.31428571,-0.0142857143 7.11836735,0.181632653 C6.92244898,0.37755102 6.92244898,0.691836735 7.11836735,0.887755102 L8.79591837,2.56530612 L2.19591837,2.56530612 C0.983673469,2.56530612 0,3.54897959 0,4.76122449 L0,14.0959184 C0,15.3040816 0.983673469,16.2918367 2.19591837,16.2918367 Z" id="Path"></path>
                    </g>
                </g>
            </g>
        </g>
    </g>
</svg>